<mxfile host="app.diagrams.net" agent="Mozilla/5.0 (Macintosh; Intel Mac OS X 10_15_7) AppleWebKit/537.36 (KHTML, like Gecko) Chrome/130.0.0.0 Safari/537.36" version="24.8.3">
  <diagram name="第 1 页" id="uMz2aZqzXcH4UEnasDj1">
    <mxGraphModel dx="1253" dy="862" grid="1" gridSize="10" guides="1" tooltips="1" connect="1" arrows="1" fold="1" page="1" pageScale="1" pageWidth="827" pageHeight="1169" math="0" shadow="0">
      <root>
        <mxCell id="0" />
        <mxCell id="1" parent="0" />
        <mxCell id="4lkgSBnJgcppSlId6tgm-102" value="" style="rounded=0;whiteSpace=wrap;html=1;" vertex="1" parent="1">
          <mxGeometry x="1000" y="300" width="520" height="340" as="geometry" />
        </mxCell>
        <mxCell id="4lkgSBnJgcppSlId6tgm-71" value="&lt;span style=&quot;color: rgba(0, 0, 0, 0); font-family: monospace; font-size: 0px; text-align: start; text-wrap-mode: nowrap;&quot;&gt;%3CmxGraphModel%3E%3Croot%3E%3CmxCell%20id%3D%220%22%2F%3E%3CmxCell%20id%3D%221%22%20parent%3D%220%22%2F%3E%3CmxCell%20id%3D%222%22%20value%3D%22waiting%20time%22%20style%3D%22text%3Bhtml%3D1%3Balign%3Dcenter%3BverticalAlign%3Dmiddle%3BwhiteSpace%3Dwrap%3Brounded%3D0%3B%22%20vertex%3D%221%22%20parent%3D%221%22%3E%3CmxGeometry%20x%3D%22520%22%20y%3D%22590%22%20width%3D%2260%22%20height%3D%2230%22%20as%3D%22geometry%22%2F%3E%3C%2FmxCell%3E%3C%2Froot%3E%3C%2FmxGraphModel%3E&lt;/span&gt;" style="rounded=0;whiteSpace=wrap;html=1;strokeColor=#FF0000;" vertex="1" parent="1">
          <mxGeometry y="640" width="530" height="160" as="geometry" />
        </mxCell>
        <mxCell id="4lkgSBnJgcppSlId6tgm-65" value="&lt;span style=&quot;color: rgba(0, 0, 0, 0); font-family: monospace; font-size: 0px; text-align: start; text-wrap-mode: nowrap;&quot;&gt;%3CmxGraphModel%3E%3Croot%3E%3CmxCell%20id%3D%220%22%2F%3E%3CmxCell%20id%3D%221%22%20parent%3D%220%22%2F%3E%3CmxCell%20id%3D%222%22%20value%3D%22waiting%20time%22%20style%3D%22text%3Bhtml%3D1%3Balign%3Dcenter%3BverticalAlign%3Dmiddle%3BwhiteSpace%3Dwrap%3Brounded%3D0%3B%22%20vertex%3D%221%22%20parent%3D%221%22%3E%3CmxGeometry%20x%3D%22520%22%20y%3D%22590%22%20width%3D%2260%22%20height%3D%2230%22%20as%3D%22geometry%22%2F%3E%3C%2FmxCell%3E%3C%2Froot%3E%3C%2FmxGraphModel%3E&lt;/span&gt;" style="rounded=0;whiteSpace=wrap;html=1;strokeColor=#FF0000;" vertex="1" parent="1">
          <mxGeometry x="277.5" y="650" width="242.5" height="110" as="geometry" />
        </mxCell>
        <mxCell id="4lkgSBnJgcppSlId6tgm-61" value="&lt;span style=&quot;color: rgba(0, 0, 0, 0); font-family: monospace; font-size: 0px; text-align: start; text-wrap-mode: nowrap;&quot;&gt;%3CmxGraphModel%3E%3Croot%3E%3CmxCell%20id%3D%220%22%2F%3E%3CmxCell%20id%3D%221%22%20parent%3D%220%22%2F%3E%3CmxCell%20id%3D%222%22%20value%3D%22waiting%20time%22%20style%3D%22text%3Bhtml%3D1%3Balign%3Dcenter%3BverticalAlign%3Dmiddle%3BwhiteSpace%3Dwrap%3Brounded%3D0%3B%22%20vertex%3D%221%22%20parent%3D%221%22%3E%3CmxGeometry%20x%3D%22520%22%20y%3D%22590%22%20width%3D%2260%22%20height%3D%2230%22%20as%3D%22geometry%22%2F%3E%3C%2FmxCell%3E%3C%2Froot%3E%3C%2FmxGraphModel%3E&lt;/span&gt;" style="rounded=0;whiteSpace=wrap;html=1;strokeColor=#FF0000;" vertex="1" parent="1">
          <mxGeometry x="5" y="650" width="255" height="110" as="geometry" />
        </mxCell>
        <mxCell id="4lkgSBnJgcppSlId6tgm-58" value="&lt;span style=&quot;color: rgba(0, 0, 0, 0); font-family: monospace; font-size: 0px; text-align: start; text-wrap-mode: nowrap;&quot;&gt;%3CmxGraphModel%3E%3Croot%3E%3CmxCell%20id%3D%220%22%2F%3E%3CmxCell%20id%3D%221%22%20parent%3D%220%22%2F%3E%3CmxCell%20id%3D%222%22%20value%3D%22waiting%20time%22%20style%3D%22text%3Bhtml%3D1%3Balign%3Dcenter%3BverticalAlign%3Dmiddle%3BwhiteSpace%3Dwrap%3Brounded%3D0%3B%22%20vertex%3D%221%22%20parent%3D%221%22%3E%3CmxGeometry%20x%3D%22520%22%20y%3D%22590%22%20width%3D%2260%22%20height%3D%2230%22%20as%3D%22geometry%22%2F%3E%3C%2FmxCell%3E%3C%2Froot%3E%3C%2FmxGraphModel%3E&lt;/span&gt;" style="rounded=0;whiteSpace=wrap;html=1;strokeColor=#FF0000;" vertex="1" parent="1">
          <mxGeometry x="345" y="560" width="455" height="70" as="geometry" />
        </mxCell>
        <mxCell id="4lkgSBnJgcppSlId6tgm-1" value="" style="rounded=0;whiteSpace=wrap;html=1;" vertex="1" parent="1">
          <mxGeometry x="130" y="440" width="120" height="60" as="geometry" />
        </mxCell>
        <mxCell id="4lkgSBnJgcppSlId6tgm-2" value="" style="rounded=0;whiteSpace=wrap;html=1;" vertex="1" parent="1">
          <mxGeometry x="130" y="350" width="120" height="60" as="geometry" />
        </mxCell>
        <mxCell id="4lkgSBnJgcppSlId6tgm-3" value="" style="rounded=0;whiteSpace=wrap;html=1;" vertex="1" parent="1">
          <mxGeometry x="130" y="270" width="120" height="60" as="geometry" />
        </mxCell>
        <mxCell id="4lkgSBnJgcppSlId6tgm-4" value="" style="rounded=0;whiteSpace=wrap;html=1;" vertex="1" parent="1">
          <mxGeometry x="330" y="270" width="120" height="60" as="geometry" />
        </mxCell>
        <mxCell id="4lkgSBnJgcppSlId6tgm-5" value="" style="rounded=0;whiteSpace=wrap;html=1;" vertex="1" parent="1">
          <mxGeometry x="330" y="350" width="120" height="60" as="geometry" />
        </mxCell>
        <mxCell id="4lkgSBnJgcppSlId6tgm-6" value="" style="rounded=0;whiteSpace=wrap;html=1;" vertex="1" parent="1">
          <mxGeometry x="330" y="440" width="120" height="60" as="geometry" />
        </mxCell>
        <mxCell id="4lkgSBnJgcppSlId6tgm-7" value="" style="shape=image;verticalLabelPosition=bottom;labelBackgroundColor=default;verticalAlign=top;aspect=fixed;imageAspect=0;image=data:image/png,iVBORw0KGgoAAAANSUhEUgAABRQAAADwCAYAAABxC+jbAAAACXBIWXMAABYlAAAWJQFJUiTwAAAgAElEQVR4nOyddVhVyRvHv/S9wKVDGgUREcFcTIw1sdfu7nbtWlfXWrtdE8XuTmxFRUVBAWkkpLv79wc/Lhzm3AAvXND5PA/Pw50zZ86cmjPznXfeV6aoqKgINYwNGzZgxYoVMDY2Rnh4eIX2jY6OxsmTJ3Hjxg14eXkhLS0NAGBlZYVevXph1KhRaNasWaXr5uTkBD8/PwQFBVW6jPT0dPB4PADAgQMHMG3atEqXVZOozHnt2bMHc+bMAY/HQ2pqqsB8hYWFMDMzQ0REBD/t0KFDmDx58o9X/P8kJiYiLi4OSkpKUFJSAofDgZKSEhQVFZGfn4+cnBzGn7y8PMzNzYly4uPjkZ6eDjMzM8jIyIh9/JycHNy7dw/Xrl1DZGQkIiMjkZ+fj4YNG8Le3h42NjZo3rw5LC0txSpP3HpMnDgRx44d4/8eMWIETp8+LXa9K0tYWBg+f/6MwMBAFBYWwtLSEjY2NrCwsODnyc7ORkhICON+cDgcKCoqoqioiHE/srOzkZubi4YNGxLHyszMRHh4OFRVVaGiogIul4v8/Hykp6cjPT0dBgYGUFZWFlhXSd+bypCRkYHHjx/j6dOnCA8Px/fv3xEVFQUNDQ1YWlrCwsICFhYW6NOnD/T09Cp1jISEBFy+fBmPHj1CVFQUYmJiwOFwYGdnB1tbW9jY2KB169bQ0dERu8y8vDy8e/cOQUFBiIyMRJ06dWBlZYUmTZoIveaSIDY2Frdv38a9e/cQFhaGiIgI5ObmokGDBjAwMECrVq3QpUsX2NrainxXw8PDkZ2dzW8fSp5FeXl55ObmEs+ilpYWdHV1JXo+hYWFcHV1xeXLl/HmzRukp6ejQYMGGDlyJIYPHw5ZWVlG/qCgIHC5XCgrK4PL5SI3NxdpaWnIyMiAjo4ONDU1K31efn5+kJOT47+XJfvJyMjw98vOzubva2pqWmX3u6ioCK9fv8bFixfh5+eHmJgYJCcnw8LCAo0bN4atrS1sbW3RokWLCrXJAPDt2zd4enoiKioKiYmJ0NDQgKmpKRo1akS0/0lJSUhOToaKigpUVFSgoKCArKwsZGRkIDMzE+bm5pCXlyeOERERgVWrVsHZ2RkAoKenh86dO7M+Pzk5OYiKikJkZCQ8PDxY63zjxg306dNH6HlJs02T1LsUGhqKwsJCqKqqQlVVFXJycsjMzERGRgYAwNjYWGAdCgsL8ebNG9y4cQOfPn1CeHg4wsPDUb9+fRgYGKBevXro0qULOnToAHV19Uqfa25uLt6+fYuwsDBER0ejsLAQBgYGqF+/Pho3bky8E0FBQeBwOFBWVoaysjIKCgr456SkpIQ6deqIPKYk2vH8/Hy4u7vjwYMHCAoKwvfv3xEREQF5eXlYWFjA0tIS9erVQ6dOndCoUaNKXx9xSU9Px/Xr13H16lX4+voiPz8fzZo1w9y5c9GqVStG3tzcXISFhfG/94qKisjKyuJ/7+vWrQslJaUa8RwC1dPGSAovLy/4+fkhNDQUqqqqqF+/Puzt7RnXpaZc16roz4hLdXwff+T8Ktu3zsvLQ2BgIGO/kr+ioiLG/c3KyoKysjIMDAyI42dlZSEsLIz/HCsrKyM/Px8ZGRlIT0+HnJwczMzMBJ57ZmYmXF1dcevWLQQEBCAsLAzp6emoV68eDAwMYGtri65du8LBwQGKiooVuq4liDNGEYY0nz9hfP36FVeuXIGnpyfCwsIQGxsLPT091K9fHxYWFmjfvj0cHR2JdkTSfWA/Pz9cv34dL1++RGRkJAICAmBiYgIjIyMYGRmhQ4cO6NKli8j3XBhFRUX4/PkzfHx8EBcXh4yMDOjr68PIyAimpqawtrZm5E9LS0NcXBz/uVRUVER2djYyMjKQkZEBZWVlGBoaCj1mdbXnldUaqgqZn01QLE9eXh4UFBQkVDPwByjXrl2rdBlUUCxFXEHxypUrGDhwIP93165dce/ePWIATakYERERMDEx4f/W09PD58+fKy1IUSgUCkU8MjMzsWXLFqxZs4aftm7dOixfvlysb1twcDAWL16My5cvM9KXLVuGDRs2SLq6FAqFQqFQKBQKg59ejZGkmBgXF4fg4GBWCyhK1ZGfn49ly5bxf/N4PDg7O1MxUQKsX7+e8dvFxYWKiRQKhVINrFy5kiEmLlmyBCtXrhT721avXj0cP36caLO/ffsmyWpSKBQKhUKhUCisUEWmAty9excAqmV5B6WUs2fPwt/fn//bxcVFpMkxRTSBgYE4ePAg//f8+fPRrVs3KdaIQqFQfg0SExOxY8cO/m8ej8eYOBMXHo+Hnj17MtIqu8SLQqFQKBQKhUKpCFRQFJOioiLs3bsXPB4Pffv2lXZ1fhlycnKwfPly/u9p06ahX79+UqzRz8PatWv5/9vZ2dElchQKhVJNPH36lPG7ZcuWlfbVV973Vt26dStbLQqFQqFQKBQKRWyooCgm586dw7t37zBr1iyoqalJuzq/DMePH+cHYrGyssK2bdukXKOfg8+fP8PFxYX/++zZs+BwOFKsEYVCofw6lLW6ByBWsA1BvH37lvG7TZs2lS6LQqFQKBQKhUIRFyooisGXL18wYsQIAMCsWbOkXJtfi8ePHwMAhgwZgtu3b1d5VNhfhRcvXgAAWrVqBVdXV9jY2Ei5RhQKhfLrUH5Z8pcvXypVTmpqKiPas7GxMTp16vRDdaNQKBQKhUKhUMSBPRY1hU9WVhY/uvClS5eo775qxtnZGTt37qTXXcJMnz4d3bp1g6WlpbSrQqFQKL8c5ubmjN9eXl5ITU2t8AqIFStWMH7v2LEDcnJyP1o9CoVCoVAoFApFJNRCUQQBAQHw9/fH1q1b+cIipfpQVlamYmIVICMjQ8VECoVCkRJsVoRz586tUBnHjh3D3r17+b9HjRqFQYMG/XDdKBQKhUKhUCgUcajRFooRERHo3bs3I23mzJlERMOqxM7ODpmZmeByuRIrs6ioSGJl1STEOa/y9zMgIKCqqkOhUCgUSo1EU1MTGzZsYAQdc3Z2RqNGjbBgwQLIygqe701OTsaWLVsYgbQGDBiAo0ePVmmdKRQKhUKhUCiUstRoQREAbt++zfjdv3//aq+DJMVEAIzgFz+TT0Bxzqv8/aRQKBQK5Vdk2bJlUFBQwKJFi/hpixYtgouLC9atW4c2bdpAR0cHAJCYmAh/f3+4ublhzZo1SEtLAwDweDxs3LgRU6ZMgYKCglTOg0KhUCgUCoXya1IjBcV27dph9OjRrNuaN29ezbWRPAoKCrh27RqeP38OJycnaVdHYohzXvPnz0d8fDyRXjJoolAoFArlV2HhwoXQ09PDokWLEBsbC6DYn2K/fv0AFAuGAPgCYlmWLFmCJUuWQFNTs/oqTKFQKBQKhUKh/B+Zop91/S2FQqFQKBRKLSA/Px+urq44c+YM3r59C39/f9Z8PXv2ROfOnTFo0CAisAuFQqFQKBQKhVKdUEGRQqFQKBQKpYaRmpqK+Ph4KCgoQFtb+6dykUKhUCgUCoVCqf1QQZFCoVAoFAqFQqFQKBQKhUKhiI3gMIIUCoVCoVAoFAqFQqFQKBQKhVIOKihSKBQKhUKhUCgUCoVCoVAoFLGhgiKFQqFQKBQKhUKhUCgUCoVCERsqKFIoFAqFQqFQKBQKhUKhUCgUsaGCIoVCoVAoFAqFQqFQKBQKhUIRGyooUigUCoVCoVAoFAqFQqFQKBSxoYIiRSjx8fF49eqVtKtBodQYMjMz4ebmhoyMDGlXhVIJaJtGoZDQ96J2QO8ThVI7CA4OhpeXl7SrQaGIBR3bUH4EeWlXgFJzyM3NRVBQELy9veHm5ob79+/Dx8cHAJCYmAhNTU0p15BSlszMTLi7uyMiIgKxsbGIjY1FYmIiVFVVoaurCx0dHejq6qJ58+YwMTGRdnVrJYWFhQgLC8PXr1/h7u4OV1dXvHjxAgBw69Yt9OrVS8o1pAiDtmkUCgl9L2oH9D5RKLWDtLQ0+Pv74/Pnz3j27Bnu3LmD2NhYNGvWDB8+fJB29SgUBnRsQ5E0UhcU47MLMbBXd3i4vwVPXR2KiopQVFKCqooK5BUVweUqQ1FREUBx5yonJxu52dnIyclBdk4OsjIzkZebi+ysLH6ZHC4XAKCgqAiusjK0NDUxfNwkDB87XirnWNN599oNC2dNRcBXX4F5QhPTka2kVo21qlqyMzLR3dEBSQkJ/OeEo6QEJSUlyCsqQlFRCVwuF7KyssjNzUVuTg5yc7KRm5uL9IwMFOTnIyM9nf/c6RkYwNTMHMamZjAwNkZj+6bo+HtXyCsoSLTeyUlJuHrhLJ48uAfXe3fE3q9efSt06tod/QYOQYtWrcXaZ1ifHvD57AUVVVX+O8lVVgHn/9clKysLOVmZyMzMREZGBv96fAmNgiKXU9lTrBEkJyVhZL+e+PjhvcA8kUnpiMosqMZa/RwUFRXh1tXLCPD/Co6iEoaNnQAtbW2JHuNXbNMkhawMoM+Vk3Y1KGwUZgIFcZXe/ZXbB0yZvgQ+voEC82SlBUJTVa/Sx6D8OPQ+USi1g/0HTmDTvwcRHhnFuj09LRnI+1bNtaJQ2ElKSkX3XmPw7v0ngXky0sJq1jMrowTI15F2LSgikLqg6Bmfi+/xSUhPT0N6eppEyixfTjAAh4ET8CoqRyLl/2y89YsQOvAGAK8UOQTh57l+KfGJIs+5IqQHpCE4wJ+RxlFRRY+Rk9Gu7zCYWdv+UPkZaam4d/IArh3ajuyM9ArvHxzgj+AAfxzdvwctu/TGiEVrYWzRQOg+3+OTEB8Xi/i42Aod61V0NhQ5MhWuY00iJT5DqJgIACFZ8rRNqQQnNizDrWO7+b8P7NuLbbfdoaKuIbFj/IptmqRQkpNFH3MqKNZI8qOAjEeV3j3m20ehIhUAcAteAenKlT4G5ceh94lCqR34+TwTKCYCgJJiLpB+vxprRKEIJiclVaiYCADK8AbSa1AfUF4H4P0h7VpQRCBTVFRUJM0KPIrIRnxmLjJTkxEfFYk3d67gysGtrHk5KqrQ1DOEupY25BUVISsnh8KCAuRmZSEnOxPpyUlIiI5k3XfXg08wrFe/Kk+l1pKaGA+PJ/cQ6PUBz66dYRWsTn2OgxL35+m8FhUVISMlGZnpKfD/9A6nNq0Q+Oyoa+uBo6wCjooKuDx1cFVUgIJCpKUkIS0pETHhISKP18ZpICav3QVVjYovUfJ4cg875o0l7ot189Zo0bUPGrZoDQ0dPaioayE3KwPxURGIDg3G+0e34XbnssByu42YhKHzVkFNS4d1e0FBvljvZft+w9Bl2HgYmNWHqro6FJRqt3UiABTk5+Gd620EffHAB9c7CA8kxalVJ27Brm0nKdSu9pKVkY4x9vpE+uS1u9BtxCSJHedXbNMkRbGgWPvf4Z+S3KAfEhTj4tNw+8EXvPsYCpfzr5GWTgrqGRF7oKys+CO1pPwg9D5RKLUDP/9oPHzmi7cfQnDqwltiu0OLenjzYIkUakahkOTlFeDGPU98+PgN1+96wsePFMMfXp2HLh0aSqF2AqCCYq2gRgiKSTmFjLQDy2bg8cUTjDQbh/b4+/Q9keVlZ6YhzN8XYV+/4L+Vs/npFwLSISNTu62mKkNaUjyeXj2Nph16wtjCSmT+hOhIzOvejBiAn/NLgZyc1A1aq4wXNy9g93xySbzzh0iRllPZmWkI9f2Cr+9e4d6pQ0KFyXk7nWHbuoNYdSoqLMTV/7bh7LY1jHS7dp0xdsW/MK0vusHPykjHs8suOLp2Iet2E8uGWHvuoVhCJ9t7aVDXCrvuf4CM7M8b3ykvJxsbJv2BL6+fMdL/PvsANi3bSqlWtZO4yDDMYOmoDJmzAoPnLBerjLzcHLy6eREauvpo4thVZP5ftU2rLJIUFHNycnD27FnUqVMHPXr0kEiZvzRCBMWcnHycvfwOdfR56PG7aIv48O+JaNRqDSFW5cUegLz8z9ue1zbofaJQagcPnvii+8CdjLTOjg3x6No8KdWodhCfkI6T59+gVxdbNLCiS1uri+zsPPQatg+PnzMNJp7fWYj2rWqQARYVFGsFNbI30qBZKyJNx8BYrH05yjxYNfkNXYZN4As36tp6v5yYGBH4Fae3rMKElmY4uWE5nl09JdZ+2nWM0MZpIJH+sw+8G7fqyJquzBPtY42jzIN189boP20h9j/zxYpj12BQlxRvUxJi8fdoJ7y8dVGsOh1ZM58QE6eu34tVzjfFEhMBgKuiih5jpuO/VwFo1pkc0IcH+mL9hH7IFMPdANt7ad2k5U8tJgKAghIHHQeNIdIVfwJLzOpGx9AE2nWMiPSGYgizKfFxuO28D7M7N8a+JVNxfuc6sY75q7Zp0iQmJga7du2CpaUlxo8fj9WrV0u7Sj8t0fGp2HXwEeo3X4nxs5yxesNNsfYzMdTCkP4tiHQqUtUs6H2iUGoH3To1hIkhc3Key6H9DEH4fo3C0r+vQLf+n/hz5UWcOPda2lX6peBwFDB+RBuWdPrMUipOjeyRyCmSyzg4KqoVLsfSrjkAQLuOwQ/XqTZxcfcGzO/RHNf+285Pq9eoidj7q2kxAyRU5trXNjgqXNb0ioplsnJyaOLYFVtuvELvCXNY8+yaNw7BXz4KLefeyQN4cOYII23erhPoMrRygYW09A2xeP85tHYiZ3kCvT5g89TByMnKFFoG23upoPxrLBnlqZFWqgqKSlKoSe1GRkYGSw9fZljpjlq6QaTVrufLR5jUyhzO/yzmWwBb2rcU+7i/YpsmLR48eIA6depg3rx5iIiIAAA4ODhIuVY/Jw+e+MLAahHmLb+A8O9JAACHFnXF3l9Hm/ke8FRpm1YTofeJQqkd6OjyGL+VudQtARt/b74FmzZrsHlXqX/JpvamUqzRr4mmBjn25chLNpgo5degRgqK8vKkOl4ZaxIdQxMAgDKLGPAzU1CQT6QZmFfefFmJ8/OLRkocFSLtR0QHJa4yxi7fiKFzV7Ju3zDxDyQLCHby+c1zYomyY//haNtrUKXrAwBy8gqYu/0YmnbsRmzzefsCN4/sErq/pN7LnwUqKFYO84aN8ZfLHTh/iMQ5vxT0mzS3UuUYieHCQRC/QptWk7C2tpZ2FX4ZrOtXfskYlw5+awX0PlEotQMOh4ozbBQUFBBpDerRqPU1ASUl+sxSKk6NFBTZqMySZXVtXQAAV4UnIufPhaYO2Shzf8CSTF7h529cqmrZ7qDZy9B58FgiPSUhFlcPbSPSCwrycXgVKbAMFdO/nCjk5BUw9Z+9rNuuH9mJnKyKRZD+1VwJlEWRxWKTIj4q6hpiC9JsgYM4XHISQFx+hTZNWujq6hJpKiqVv1cUwehpkZNeKsqVn+hQUvh1J4hqE/Q+USi1A0WFGhQttwahp0u6k1L+gW8XRXIoKNHvC6Xi1BpBsTI079QTh9wCMXPzf9KuSrWioqlNpClw2Jf0UqqeMUs3sFo73jm+FxlpqYy0VzcvIirEn5HWY/Q06JnWk1h9tOsYYdLfO4j07Ix0PL9yVmLHoVAkBZugqMChPixrImyCIpdLvz9VgbYuKdRyuVQsp1AoFErNpbwbBwDgKNNvF4VSW/mpBUUFJQ409QxERun92eBpaBFpdImf9FBR18CweStYt728cY7/f0FBPs5s/YvI88d09gjNP0LHP0axipyXD2xhXTJPoUgTFTVyNvtHLBQpVYeGBvm9pRaKVYOmGnldVZSp5TSFQqFQai5amizW9VxqoUih1FaoXWsZCgsKEBH4FUlx0UhNSkBOZga09AygZ2IOXSNTKHErJ8oVFhQgPMAXId6f4Nh/OGTlSk3gi4qK8O3rFwR/8YCCIgemDRvDzMrmh86jqLCQSFOUsDVPamI8wvy8Ef89HDLy8tA1NEZdmybgSiDYQXpyEkJ9vZAQHYnCggJo6OpDu44RTKxsau0S2w4Dx8J5/TIi/fEFZ3QfOQUAEPzlIz/gRAnNOveApp7kgwopcZXRecg43DnOXP6cEB0J3/evYevQXuLHrG5iwkMQExaKxP9fU56mNnQMTWDaoJFUn6OMtFREBn1FQlQEMlJToKKmDm0DY1g0biZRn5SxEaGIjQxHWmIcMlJToKquCT0Tc+gbm//QJEt6chL8PN5AXUePH/iqhIyUZHi7v0B6chI09erAukUbgW1CUVERYr4Fwc/zPZp26Ao1DdKyujQveb8q2x4LQtJtWm52FgI/eyAzLQUtOjsxtn0PDkD0tyAkxUVDSVkFWvoGMLG0Bk+TtMQsS0JUBII+eyAjNQVFRYXQ0jeEiZUNa+RsaVFUVESkKVdT8KaAgADk5+ejYcOG1XI8AMjMzIS3tzdiY2ORkJCAgoICmJmZwdzcHKampqy+ZyUF+7WWrKAYF5+Gz76RCAtPgry8HExNNNHU1gQ8XuX6FFlZeXjvGYrk5Cz06WHH2JaTkw+3d0EIDI6FpoYKWjvUg5G+6LaqsLAQ3j7fERgah/jEdGioK0NfTw2NGxpBU+PHnr3EpAx8+hKOiMhkFBQUoo6+OkwMNNDIxrBW9UcyM3Ph7V98HxOTMqDG40JXRxVNG5v+8DWqTiR9rxOTMuDmHgR9fR5aNmEGNEpKzsSzV/5ITM6Egb462jlYVPq5L4+w9yA1NRsfvL4h8nsKcvPyYWyoiUY2BmK9C6KQ9PULDIrFW48QdO1oAz1d8d1LFRUVISAwFu4fv6FXN1uxjy3p+1Wb3wth1yIyJhlenyMRHZMCBQX5H263y5KdnQePz2EIC09EekYOdLRUYWCgjiaNTKAk5nLZwkLShyK3GvxNFhQUwMc3CupaKjAtF5G7KolPSIdfUAzi49ORkJQBJUU51DXXgZmpNgz11Cv9LZFW+1VZ8vIK8C0sAVFxKYj8noz0jBzo66rB0EANRkZaqKNDGg9ImoKCAvj4+CAsLAxRUVHgcDjQ0dFBw4YNYWZmVulys7Ky8P79eyQnJ6NPnz6MbTk5OXBzc0NgYCA0NTXRpk0bGBoailVuSEgIvn79iu/fv0NJSQl16tRB/fr1f6iuVcFPJyhmpCRjSf92AIBdrp/EGqCHBfji2sGteOd6C9kZgn3IdRowEj3Hz0RdG3uh5SXFxiA8wAff/Lzw9f0beL16zC/XqqkDDOsVB0h5eesinNctRkoCMzjH1ltvYWZtK7LegihkcXaroCSZRiQ3Ows3j+7GuR1riW0cFVX0nTgXfSfPgRK34oNwn3cvcW3/Fnx84cq6XV1bD12HT0C/KfPAUa5dfjFV1dRh3bItvr57xUgP9vbk/+/5nDxvQ7PKB9MRRdteAwlBEQBiw0KAWioo5mZn4fEFZ7hecMa3r19Y86hr62H86i0/HOSmImSkJMP14gm43TzPuOdl4aiowrH/cAydu5J1ia84pCYn4MZ/2/Hm3nXEhIcIzGfj0B79Js1DE8eujAmO8uTl5uB7cADC/LwR4vMJXq8e869r+37DMGfbUQBASnwcjq5dgNd3rjD2b9WjP/7cexoAkBQbhYjgAHwP+oqvHq/x+eVTftu36MA5/NaV+QEuS2E+aTWrKKFltJJo04oKCxEbHoKwAF988/2Mz2+eweftC34ZLp4xAIC4yDC4bF5BXKcS2vUbgmFzVkLfzIKRnpOViSv7/8WVA1sE7jd09grUMbcU65yrknyWeyVMUJw7dy52794tVtlWVlbw8/Nj3RYdHQ0rq+JAPZGRkQI7a3v27MGcOXNEHsvT0xN2dnYCt9+6dQv79+/H3bt3Bebh8XiYN28epk2bJnbnsSLkF5CTh5ISFLOy8rB130Os3nCd2MZTVcKfM7th4ayuUFERbFVSWFiI4JB4ePtF4dOXcDx96YenL/35ZaSGFd/33Nx8rN92B2u33CbKKEoU7LImJSULOw+6Yv+xZ4iNS2PN07OLLZbM644ObSoWxOn56wBs2HYP9x+zf0f0dHmYNs4Ri2Z3h2oNjrr8wTMUew49xYmzrwXmGdC7KY7sGg0tTXZL4s9fImDnuE7sYwa8WwdLi1Jf3t8iEtG4zRqkpecI3c/ffR3qW7IHZpDEvc7JyYd/QDS8fCPxySsc95/64rN3cST6UUMc4HKweEAeHZ+KOYvO4eL1D4z9B/Zphksnpgo9BzbEfQ8A4PhpN0yYfYK1nHEj2mD14t6oayp48k0Qkrh+32NTEBAYA1+/aLi5B+H+Y29+WWePTMKwP1qy7ldUVITI6GT4l9n35j1P/vNw58Ic9OzSiNivKu+XJN6L6kTca5GTk49la69gx4FHRBnittuCCA6Jx7ptt+F8xo11O09VCQP7Nsfqhb1Q11x4H7aggJwMExTAprCwEE06rOefryhmTe6EPZuHsW6789AbfUfsg5WFPvzekX2+Ev4YcxBXb30Uepzy72558vMLceDYM7icf4N3H0MF5rMw18GiOd0xarCD0PsirfaLjWOn3TCRpZ36+GQlmtibEOnfIhLhfPoVtu17KPQ7YNPAAEMGtMCw/i3QwKryAebY+P79O3bv3o3jx48jNpY9KKqdnR1cXFyE9v2A/7fpwcHw9vaGp6cnnjx5gqdPnwIo7velpha7M8vNzcU///yDdevI7yfbhHAJ+fn5OHXqFHbs2AEvLy/WPM2aNcPMmTMxbtw4yFZRHIiK8NMJiunJCaUDaSE3CwAK8vNw/dBOnN2+hpGuXccIDZq1QmJcNEMAenL1NJ5cPY02TgMxbeN+VsuVae2sCCuzsuTl5iAnKxP/rZyNF9fPsebhqlbeyi/Q6wNun9hHpK8Y1Ik1f/9pf6Jll95ilZ2enITNUwfj6wf2D3B2Rjou7F4Pn3cvsfTQJbEtiL4HB+D01tVwf3CDn8ZRUYWmniHDn2BKQiwu7d2EJ5dcMHv7UTT6rXaJXs07dCMERQBIS4oHT1MH71xvEtv0zeoSaZLCrAG7aB0bEVplx6wqioqK8ObeVZxYv1To+wcUP0c7545FuJCNdUEAACAASURBVL8PhsxZIVRQ+1EKCvJxZd+/uLB7vci82RnpeHD6MJ5fO4sBUxdCScDyjy7DJrG+W2/vX8fexVMYkyIcFVXYOjhCRlYW71xv8dN93r6Az9sXMLFsiCX/nScELAB4dv0c9v45UWB983KyAQCf3Z7i3+lDWSdjlHnqSE1OwMwONkIna9gmQUpIiI7Etf+2E+l7F00Fj8XS0t6xC4bMYXcxUB5JtGnfgwMwt1sTgccoOe8QH0+sHt5N6HV4ef0C3rvewYpj12DdvDUAIDHmOzZMHCBQIC+73/pLT2Fav/qs88oTERGBzZs3E+ljx46FlhbpiqN79+748kXweZWHTaws4fDhw/z/T58+jUWLFrHmY4suyYagzl5cXBzmzZuHM2fOMNLt7OxgZ2cHDw8P+Pj4AADS0tKwbt06rFu3DuvXr8eyZcskZtUW/j0R/+56QKSPneYMTZYBcM/fbfDXEsGifVkSkzLQd8Q+vHobxLo9LT0HazbfxPPXgbh5ZgariOkfEIMGDqsFHqNkUBESloCBYw/io2cYkcdEgAVJfn4hjp1+hYWrLjIGJ1YW+oiKSWak3XX9gruuXzBlbHvs2jhUZNRV/4AYLF13lTGY5KkqwUBfA/5BMfy02Lg0rN1yG8dPu8Hl0IQKC5ZVTURUElatvyFw8F+Wq7c+wutLOG6emYWG1j+2IkJPlwctLebzFx2bIlJMFISk7vWpC+4YPe2owONkZeUBAB49+4oBo/ez1ldDveKTWOK+B1lZeZi77DwOn3whMK/zGTfcefgZr+4sZgi2wpDE9UtLy4ZRo8VC72F+Pnt7+T02BdYtVonYl2yTq+p+Seu9+BHEvRbh3xMxeNxhvH0fzJpPnHabjaTkTGzeeQ+bd99npDduZMwQ+dLSc+B8xg3OZ9yw99/hmDmpI2t57z6FYNdBUvBs1Y3sOwDA4tndxBYTAaCAZaKthO37HwIA/INi8OZDMFo1Z/dPz/ZMlkfYM/35SwTGzj5BfNfat7aEiZEWXJ/58sX4oNB4TFtwGotWX8L5Y1NZxXVptV9sbNp5F8vWXhM7/8lzbzB2xnFGmp4uD/aNjPEtPJHxXfXxi8KaTTcRE5uK/VtHSKS+mZmZ2LlzJ1asED0u8PLygr29Pa5cuYIBAwaw5vHz84O1tbXAMtLSiu9raGgoBg4cCA8PDyKPsbGxwP1dXV3x559/MoTEkvwREaXvgYeHByZOnIhjx47h9OnTUrdY/OkExYDP5I1jI8THE/sWT2EM0qZv3I+mHboxlpgmxnzHkb/mMwbjbncuI9zfB8uOXoGukSmj3Iy0FKHHTUmIw6GVs+H/yV1gHhVexZc1hPh44tzOtfB4fI91u6DjibvEMj7iG9aO708EDGHjy+tnOLp6HmZsOSQy79PLp7BvSemMScsuvTF4znKYNbCFrJwcMtJS4e/xBvsWT+VbMyVER2LNiB7YfP0V6jUSPJCvaRhZsjdA8VGRUNXQZrVc0zepOkFRiauMeo3siePGRAi2bKuJ5GRl4p9xfRmiUL1G9jCub4P83FyE+H5mfW4v79sMnoYGeo0Xba1UGbIz07Br3gS8f3yHn+Y0fhYc+w6FuY0dcrOzEfjZA6c2LmXcg+yMdGKSoyzt+41gCFspCfE4+vd8htVb7wlz0HXYBBiYW/AjmOdkZeLqwa24vK+00xYe6IuFfdtgycELsG3dgXGc3HR2K4aylH9/y8PT0ERRfqFQEQ0AFFksqJPjYnF5/2bccznIuk9UiD+iWNJtHNoJPVYJkmrT8vNyRe7v8+4V/hreTax6ZWekY/2E/tj/1BtJ8XFYO8qJsGIXtN/aUU7Y99Rb4svBRREdHY3169dj7172CPL+/uzXuEOHDnjw4AFCQkJw4MABbN9OCsft27fHpk2b0KhRI6ix+NIEipeabNlSar158OBBLFy4kFW8K7EY/PLlC4YOHYrgYObga8+ePejbty9MTU2JfS9evIiJEyfyO4x6enpwcXFBq1atGHV7+/YtxowZwzjvFStWwNPTE87Ozj8UpCYqLg0btt7G3sNPWLeX7ZyXpWNb8azdQ8IS0GPgLoHllOXxc1/MWHQGzvvGEdtyc0X74v3gGQqnIXsFWkxpsAijCUkZ6DloN8Piw+XgRPTs2gjamiooLCyEf0AM9hx5iv1Hn/LzHDrxAukZOXA5OF7gbL7zmdcYP8uZ/7ufkz3WLOqDxraGkJOTQ0pKFtzeBWPczOP8Ood/T0LH3tvg8WQFmtqTz4w0OH/1PYZNPMxI6+dkD00NFYRFJOGdRzAx4AwKjYdDt42I8dtGBPZpbGuMvNgD+OoXhf6j9yMoNJ445on949G3hx00WJaJOjSri7zYAwgLT8S8Fedx817pQImnqoSje8bid0drwhJMkvc6LT1L+EUDef/LUxlLNXHeA2Gienli49LQud92BHr8A0VF4f13SV2/goJCkYIwh8Nel/x80fuyBZKqivsl6feiuhDnWjx+8RX9R7ILSUReIe12eT55hsOxzxZ+uRbmOji8ewxaNa8HLlcBubn58PgchsWrL+PF60D+frMWn4W8vCymjnNklLVy43XcfvCZ9ViChFAlJXlkfd+Lr37R+POvy3j83JfIM2tyJ0wb64i65joChdJPnuF8y2AAOHHmtUBB8caZmUhNzcaj5774YwyzD6qny8PhnaPRvjX5Tc3LK8CGHXexZlOpgUjXjg2x8a/+aNzQmP/OFhYW4syl95ix8BT/2qal58BpyG5sWTsQC2cx+4vSar/KUlhYiEWrL2P7fuZquhGDfsPMyR3RpJEJce2v3PzIEBP7Odlj16ZhMDMunWAODU/A7oOPGFa1+nqSWfrs7e2Nzp07MywSO3fuDFNTUyQkJODjx48Mka6EP/74A+7u7mjZkrS6zs0V3ef/8OEDnJycBFpCsk2wFxQUYNasWTh4sPR5W7VqFcaNG4d69Yqf08jISNy4cQMzZszg53n16hW6deuGN2/eQFOz+pbxl+enERRzs7Pw6YUrTm0SrUCnJicQliKrT91F41aORF4tfUP8ue80/hnXF19eP+Onhwf6YvPUwdhw6SkUy0RQ3njlBUJ9PeH77hUenD5MlLdurGhrQE4lLBTvuRwUKCYKQ5zowQnRkVg6sCNSEmLRtGM3dBgwEsYW1igsLECg53uc3LScEAyeXD2NQbOXCi3/4enDOPTXPP7vZp17YP7uk1BQLLXMUuGpoWmHblhz+i6WDezAOM6GCQOw7+nnSi2vlgY8lujbAJAUEwVdY3PWbbrGVTvjYG5DCorRIexWKTWVUF8vvpiorq2HFcevEW4JEqIisHfxFMY7DAB3Tx6C07jZVeILa/eCSQwxsfyyXq6KKhq3csRfp+9jy/ShRN3YGDZ/NWM5dFFREXbOG8PYd/SSf9B38nxiXyWuMobNXw15eQWc3/UPPz07Ix1/j3bCHldPxpLZdv2Ho45FA4T6fMSTCy4ID2R24t7cu4Y394TPUiqraUBNSxv/3nBDiPcnvH14g7WdklckrTG9Xj0SKCYKow6LtWV5JNmmGVk2wMYrzxHq6wX3hzfw8SlpNVYiJlo3b41uIyYX+/GUk0NkoC8u7tpAXNvie9ILMeGhyM5Ih0FdK3QfOQkNmrUCR4WHiABv3D6+j7CsTEmIxfMrp9F15GSxrpWkePjwoUAxURiWlpaQk5ODpaUltm3bhuzsbOzfv5+RZ8aMGWjTpo3Qci5evMgX+QAgODgYbm5uaNu2LWt+DoeDFi1a4MCBA+jevTujnEGD2F0hPH/+HEOGDOH/trKygqurK0xMyOU9Dg4OePLkCZo2bcroUF64cAFaWlo4cOCA0PMRhutjb4FiojAs64m2aAr/noRWXTciNi4NPbvYYuzw1rCpXwcFBUV4+zEEi1ZfIgasJ86+xqo/e8GiHjO6t3UDA7g/XopPXhG4eusT7rqSlqgtOm0UWh9dbaZrk+j4VPzeZzt8/EqnElyvzsfvHUon62RlZWHdwAB7/x0GWVkZxrU6c8kdrVrUw+wp5IqNA8eeYcbCUqvTXt0a4/zRKQyfYOrqXPTs0ghPr/8Jh24bGdeix5DdCPZYX6mlhJLm+OnSdmHZvB5YvsCJsSy7qKgIR0+9wuS5Loz90tJzcOOeJ4YOaEGUKS8vC9tGRrh5ZhZs2qwhtvcRICaW3b9eXR38s6wvQ1C8dGI6unUiraolfa9HDXaAtVUdfPQKx1GXl4xyAeDyTQ9cvincIEFdveITNeK8B/bt/kZaeg5sGhhgxsSOcGhRF6pcRXj6RGLz7vuE0Bj+PQkXrnlg1JDfBB5XktdPXZ0Lz2cr8cErHNfvfsL1O+TktyD/d0b6avB4sgIfvMJw6fpHVhcCbH73quJ+VcV7UR1U5Fr8aLtdljcfgtFtwE7+viaGmnhy60+YGJaKIYqK8mjVvB5unZ2NboN2MUTBaQtOo0VTUzS3NwcA7DnyRKCYKAxLc11wOApoYm+Cexdno4njOuIaLF3QQ6SP0V2HHzN+Hzz+HFvXDhLYZqupcTCgd1MsX9ATG7aXujZ567oM5ibs47lNu+4zxMQBvZvizKGJhGW8rKwsRg35DQb6augyYAdj26LVl2FsqMlwISCt9quEvLwCTJxzEi7n3/DTTAw1cWTPWNb2Gyi2Bh44trQP36eHHS4enwoFBeaqMHMTbWxfPwSd2luj74jiFZb6upIRFG/dusXvg3Xv3h1Hjx6FkRHT5/irV68wbNgwQlg8fvw4q6DYsGFDuLu749OnT7h69Sqr25sWLYS3FTo6TJcA+fn5GD9+PE6dOsVPW79+PZYvX87IZ2RkhOnTp0NLSwvDhpUu6/f398f48eNx7Zr4lqOSRvqLrsXkzon9GG2vj9H2+pjkUBeTHOpiWjsrTHKoi9H2+hhpq4Mt04eJXO4IAKc3r2IMFufsOM4qJpYgJyePeTtOQF2b2SH/9vULXDavZKQZW1ihXe/BmPz3TkxcQ1pblGDj0B5/7j2FrbfeYsrfO/llc1RUKxWYode4WfjnwiPsfeSFfpPnEdvPfU1m/TO2EG+ZTkpCLKZvPIDlR66iba9BMLO2RV0be3QdPhGbr74krg0APLp4UmB5AZ7vGGIiR0UVC3a5MMTEshhbWmPaBuZS7pSEWLy4cVGs+tcEVFmibwOAorIK0hPjWLdVxlq1IqiokeVHBLH7KKsNjF66ntXHqbaBMVafuEUEx4gJDxG43PVH8Hz5iGHV3KxzD4E+ApVVeZj2zx4inaOiioX7zjD++k6ay8jz/MZ5hpjYZegEVjGxLH/MWIym7bsQ6TvmjkFebmmns0Tw7DNhLtZffio08MeIhX9jw+WnWH3yNtr0GcxP56lpQEZWFnVt7NF58Fgs/e8SWjv9QezPFjTKtnUH/H32Pnbc+4A/954itv97w421Tes8aIzQ8y9BUm2anJw8LO2ao8vQ8Vh26DLr+QFAi85OWHP6Ltr3Gwoza1uY1m+I1j3/wJbbb4jnEij+vmRnpKNdvyHYetMNvcbNhKVdcxhbWKFVjwFY6XwDzTr3IPa76byfSKtqOnfujGfPnsHb2xsXL5JtsoeHB3Jzc4m/CRMmMPKV7zwBwIsXgpcAAsWDQLZl1keOHBFZ7+zsbP7/LVu2xMCBA1nz5eTkYPJkpkh7//59VjGxBENDQ9ZrcfDgQVy6dElk3QTRybEBnt1eCB+3NbjoTFoHf3yyErkx+4m/CSOFi7IlxMal4eiesbhzYTaGDmiBxrbGaGJvgqnjHPH+0QrWwAvHzpCuPOTlZdGySV1MHtMet87NxOB+zYk8JUwc1RYPr86D++Ol+Gtx6aSrtiZzADRp1knGQGrL2oEMgaQsMjIy2LVxCKws9Bnp/2y7jbw85nK2tx4hDDGRp6qEC8emCAww0NDaAId3MduZ2Lg0nLkseOWJNLAw18GapX0IH48yMjKYNLod3rguJfY5dOKl0DIbWhugV7fGRPpZMc/dy7f0/vVzshc4GJX0vebxOOjUrgEWzOiCNw+WClxODwAbVvXDG9elcL06H8P+KB0YalUiSIc470Faeg4mj2mPj89WYuakjmjRxAzWDQwwdEALPLvxJzq2I/vpu/8jl4yWRZLXT0ZGBnaNTTB+ZBtcdZmO0UNbEWUIelfk5OTQ1N4Uk0a3w50LM4kANMX7kmJkVd6vqngvqhJxr4Uk2u0SkpMz0W8E0+Lx4smpDDGxLGpqHFx0Jicyt+8rfU7nT/sdr+4vRsC7dVg0m1yxwfbdyo3Zz/Clp6Agh7XL+xL7ur0RbggRGZPMusz98k3hfhKB4iA0JSyb31OgmBgQGMvwOWxloY8Lx6YIdbPxewdrbFjVj0gfPukIgoJLx4XSar+A4sBFA0YfYIiJQ/o3xxe3NQLbbwC4cI3pw3HGxA6EmFiWPj3s0Nah2CCAw9Im/Ch79+4lxEQAaNu2Lb58+QI9PWaf/8CBA8jIyCDyy8vLo2XLlpg8eTJu3bqFwYMHE3lKmDhxIh4+fAh3d3esXl3q+kJbm/kM7dq1iyEm9uzZk7U/XMLQoUMxffp0Rtr169f57nakQa0RFIFiq43sjHSkJMQiJSEWCdGRSEmIFbmcriy+793w+GKpI1GOiipadSMbp/Ko6+hixibSquCey0HEfGNvyAQJCNYt22L5kSto1WMAzKxt0XXkZCw6cBYAoMJTF+c0CEwbNEKDZq2gb2YBripT2eeoqEJOXoH1T1w6DhyFzoPZB+qG9epj6LyVRHp4AGmWDhT7lftvxSxGWpch40Uu02vWkRw8V8aCSVooCIj2qaalg/SUZNZtOZmil53+CGyCYmWfQWmjrq2Htr0FB1qRkZXFsAV/EeklwTMkyaV9TIGjTS/BHxwA0DezIESl7Ix0NHHsCofu/fh/ZYMrpScn4chqpsDYdYRgn4clyMrJYeZW0hdLsLcn3G5fZt2Hq6KK5r+TohcALD54HgOmLUR9+5Zo3KYj5m49yvfLylFjPksyMjJo3ZP0S8I2kaClbwiblu1gbGkNNW1yFl1OQZG1TZMR0zmxJNu0EmRkZVnPz8SyIebvPsna5srJyWPmv+zuIdS19TDtn30MK/gSlLjKmLyanLSKCvEXaxm2JDEyMoKjoyNsbGyIThkAKCoqQkFBgfgrv/TUyMiIYTEIAC4uLkJ9Jz558oS1E+Xs7IykpCSh9X737h3//02bNgm0VN6+fTtj+XK/fv1gbm4utGwAcHR0xOLFi4n0+fPni+3LsTzGBppwbF0fDa0NWAeJiopyUFAg/8R12j1uRBuB4qNVfX2sXUb2l7y/fhdapqysLAb3ZxcUF83uhiO7x6BLh4Zo2aQu1iztg23/FLeXZaOsXr7pQVi3jBzaWuRxRwxmWnHFxqUxrMTy8wsxeS5zwmLS6HYi/Ys5dSF9EO85/FToPtXNwtndhS6LdWhWFwP7NGOkPX7ui/x8wT7IAGD6hA5E2r4jT0XWJzs7D4dOlE6AbVrF7qOqqu51CTweB71ZhC0AuHZqBpbNd4JDs7r4vYM1Tv03Af2ciicpNX7AwqekjmzvgYW5Dvb+O4z1XvF4HOzbPJxIf/cxVKCf16q8fjIyMhjUl/nMAIIDapQ/xpD+pMUPV0G4EYWk71dVvRfVgaBrIel2e/Wm6wxXFDYNDODQTLgLJhNDLbRvzQwMd+aSO+Lii8uxbWSENi0tYGmhBx6P2afhqSqxfrfYBCinLuSExsVy4lV5jjizC8L7j4leGfTKPZhfx4WzurLmKSoqwszFTL/KMyZ2gLy86O/ukrk90LKpOZH+z/Y7ZGZUb/uVmJSBbgN3MtqTHeuH4NzRyVBTEx7s1ceX+XxZW4n2Q9rUrthtiLjRwsVlyJAhsLQUHLRQXV2dIfiVwOb/sCyysrICBcVFixbhyJEj6NKlC1q2bIm///4b27ZtAwDG0uRv375h4cKFjH2nTJki9LgAWI979KhgP5tVTa0RFDkqqrBu3hp27TqjRWcntHEaCMf+w+HYfzjaOA2EVRPBpv8lFBUW4vBKpr+0HqOmiB0B2d6xCzgsgVieXDnNml+Ry+6vYOo/ewnxrEGzVjjy9hs2XZXeLJgw2vUZInS7Y/+hxLWJDmUXWn3euREBBtr3GyqyDlwVVSKAzLevX1BQINpHTU0gU4DwraGtC54G+2xTeqpwn5w/ClswjPJ+QWs6JlaNMH3jfkzbsBfyCsIHgWbWtjCoy5ztT01OlGh9ioqKiOA7mjr6AnKX0qT970Ra9Dd2nzIAcGH3esZkSr1G9mL7FFXX1kEbJ9Iai81NQwnKqqR40a7fEOKdlJWTw/zdJ3HwpT9+Ywn4pMQhOzWCLJOrEkm2aWVhO782vQayioIlqGpoolWP/kR6296DhE606BibsVpEJkaJ78C8plHeSjAtLQ3u7oKtn3bu3Clw27lz7IHPgOIlJs7OzgCAVq1aoXPnzqz5wsLCiJni8taKwhg9ejSRFhERgUePhFsYSYvhA4X3pUYNdgCvnGVPQJBoH5/KXLJt1tPlYQOLqLRgRheEfdmITX+VPtvlnfj36WEHAxZBtTx9u5MDL++vpStZXrwJIBz+jxSylLQEHo/DH6iV8Nk7okaIDn8v7411K/phhIh7CQDDB5ECT2ISaZVRlu6dGxEWMj5+UXB7J7x9PHP5Hd/PWp8edrBuwD7ArKp7XRY1HtnvHzHoN+KeysnJ4fzRKQj7shH9epKrHyoK23swYtBvQgUum4aG6N6ZFLDj4tn7lFV9/diimotrUaSiTOZjs1AsjyTuV1W/F9UF27WQZLudmpqNPYeeMtImjxEvCGZ5IRYA/INFfx8qApergBGDmOd78foHfmCS8mRm5mLbPtIVDVDst/GLt+CVjYFBsfxl3POm/S7QD+GVWx/x8ClzwnnkYAeB5ZZFVlYWE0aR7lmcz7ghKTmTdZ/qaL9CwxPQ3mkLPzibni4Pz+8sxLzpv4vlJup7NHP8evDYM+TkCB+v/9GnKf5a3Bu2Ar4NFWXIkCHYvn27WAFZ2FaoxMeT/oLLo6xM9tH19PSwYcMGIn3BggUIDw/Hpk2b+GknTjCjZfN4PDg5sRtwlKV9+/bg8Zjt+ufPFXcpIClqjaDYedAYrDvvilXON7Hk0EXM330Ss7ceweytRzB/90msv/QEO+5/RL1Ggl+Y8ABfwleVRWOy8ROEnJw8ugwZT6S7njvOkpudkiVrbKhr60BDV7zIbdWNTUt2X1QlKHFVYWnHnHmNiwpnzfv27lUizbCe4JmDsmgbkJGREqOFW0fUFDLSUlnTVdU1oSVgOWl0mGBBSRLERn4j0rT0Dav0mJJGWZWHzoPHosXvvcTKr6nHFPdSEyXb2UlkcbuQmyPaobKGHvkBFRTxvaiwEE8uM/38WDUTboFQnnZ9SUHN/5M7YivwzDn2JS0ngGKBULuOkdjBQZRYljxXNZJs00QeS4hLjRLMG5KDOft2pMhMlN2CtEpIThTdCaqp9OzZk0i7efMmS87iaHsl26ZPn050roT5dTxx4gTfZ86CBQsE5rt9+zaR1qyZ+P0GW1tb2NjYEOlnz54Vu4zqxLG18G+xiooSWjZj+hENj6zcpMzEkW0FWnCYGGrxLRQjopIYDv8BoLGNYBcMZdE3IC3uQ76V1vfSddICoYGFeIMZEyNy+V9ElHCr2OrAoVldrPzTSaQFCQDo6pBCU2Ki8FU/8vKymD6RbNMOi1gWurOM0LVgJrulT1Xea1GMGkIu5QWKrWVMDLXEjopbUX7vKHjZYAntWpO+gePjyRUs0rp+HBFWhsJQFBDQRRQVvV9V/V5IE0m22/efeBNpNtbijQuMWJbihn6TfH+kL4s49vQVe/C3c1ff85duL19A9i+ELf3+e0up66LJ4wSLquevvGf8trLQh462+P79+/dhNwYo629WFJJsv565+cOu7d98twltHSzg8Xwl2rcSL7gbAOL8N++6j9Y9NuOTp+B+dKd2DbBmaR80thUcBbki1K1bF/Pnz4edHbtFZ1nK+zUExBMU2ZgwYQLkBaxKNDY2ZlgolhcUra2toago+l7Jy8vDwIDZV/H1Fb6KqiqpNYKiOBhbWGHA9EUCt/u8Izs7Grp1WHIKpnUv0hokJSEWOVnifWhsxRhY1jQ4KqpiWXHqGAr2J1WWgE9vibSs9ExkZaSjqFD47D6HZSYgPUX6HXhxiAomP3a2rTtAVk4OCkocVp9t33xI59eSJDqMjOisZyLd0POSpLCgAN+DA/Dm3jWc37kOG6cMJJY4pyZItrOTxWKJKsgtQlmKishnX5Dfwm9+3oSrBy39is3oCRKrolieCUGIYxkuDpXxG/sjSLpNE4WagIBMZVFVIwdzPC3R+wmajKitGBsbE4LdhQsXWPOWFQyXLl3KiHwHAD4+Pnj7lvzeAMUOt4HimeT+/Unr0BIePnxIpOnqCnZkz8a4ceOItK9fv1aojOqAp6ok1tJFU2PJRBJs20q8icTP3uSkoaKCPBKSMkRaPCgrkucTX0YYeM0SWTQ1MxtpadkoFNEfUWEZoCUnFluUnLvyDmqmcyr01+0Pwda2kiIpORMv3wZi35GnmDTnJCbPcSHyJKSwW8WUZcwIciJDmEXNmw/BfEvQpvam6NiWfWK9Ku+1KFq1EL6ks6rQ0xJtPWjKIl6zrXiW1vUTFXFaGAqKgv2qCUOS90tS74U0kHS7/eETaWhQUFCI5ORMkRbYbMF5BLUJP0K3TuQk3a37pPhWVFSEzTuLAwFaWehj7bI+aGrPXIV1xOUlMjNJNzHJyZk4daG4/zBi0G8C/UcWFBTg3iPmqjszE/a8gqijo4aeLG40AoNjxC5DUu/Dnv8eoWPvbXwRtqm9KZ7c+FNk0JvyNGpIitAfPcPQtNM/MLVdigUrLuDKzY8IDokX6L6hKsnOzsbHjx9x8uRJLFiwgHWVSmUFxXbt2omVLyUlBcHBBkkjgQAAIABJREFUzD6IhoYGYmNjkZmZKfK6qJYzOmGLWF1d/DRRnkuwaCzY8XdEANmBV9MkFWlhmFqxzyTGff8uVoCTmmqBKAxxfeqJO/guH1UYAKa0Yc6ccVRU+UsH5RUUkJ+Xh5QEdksyBSXBSwlrEoFepI+PFp1LZ8uMLBsQ5+jv+b78LhIlKjiASLNt3bFKj1nV+H9yxxe3Z/jq4Qbfd24ifazmZom2HqwIbJaGfh/d0Ys0bmZQvn3qMnS8QD+nUaHkfVNn8TMoDEUOF5Z2zYnnMv67+FZ4KupVGzSoqpB0myYKtqAz5eGoklHtFMVo2zT0KjYpVhsYOHAgw3dNcHAw/Pz80KBBA35aYmIiX1AcN24cTE1NMX78eCJAy9GjR+HgwFx6FBgYiFeviq0SFi9eDAUFwYMxT0/m94rH4wmceRaEvT1pTeHtTVqBSBsNNfEsis2MKzZYEoS+nniRHINDyaBlazbfxJrNpZarJcv5uFxFKP3fWio5NZOIbgowB73lI+gCgJE10+8lT1UJ3P8vVVVSkEdOXj7DvxijbG5x2TsPPmY9tjBKHNJLkqTkTNy854XX74Lw+Lkf/INED1CzBSwdLIuRvgaG9G9OON4/c8kdMyd1JPL/d7x0Im/RLDIgQwlVea9FoVnJoAU/ijhikCGL9SAb0rx+1c2P3K+qei+kgaTb7cBg8hlyGrKb8bsiz5A4z3dF0dRQRmfHhnj8vNQi69KND9izeSjDX/Cj51/593bZ/J6Qk5PDzIkdMWlOaYC9tPQcXL39kViifK1MNPO50wWvFomOTyPOW9xvW1ma2pkQPkuDQsUXtCTVfu04wHSZ8NEzDG7vgtChjXhBXEsYO6I1lq65wrot/HsSdhx4xD8WT1UJA/s2h1NXW/Tq2rhKrMHz8vJw7949vHz5Es+fP8ebN29E7pOTU7FveAn6+qLdXAHF/hPL8/DhQ2J/Ho8HLpfLt1zMzc3lR68un09a/HSCoiKL/6oSUpPIFzM3J5slp2A4yjxwVFQJkSItKR6A6JeNp1mxQX9tQkFBcn7QSgLwCEJdWw/6JubQMzOHRgWFFGnh/eY5kWbvWNqxNjS3JKznfN6+QGpyAtQ0RFsqVZS8nGxWkVbUUtCaSF5uDtzuXsWdY7tZBWtLu+awbt4GdRvZ49rBbYTrA0miqqYOg7pWiAoptUh9fecKgibPF+hiISMlGfdOMQNzsEVrLyE9MYFIq2hbBgC6xmaEoJiSwB5xvDxsFrU/G5Jq02Qh2t8Ml8VHJcQIpCEN/5NVTa9evQifN3fu3GEIiseOHeP/X7JkuUGDBujYsSOePn3K33b48GFs2bIF6uqlA/Lz58/z/x8/XrjSHxfHfB/S0ioeKKtOHVL0TUtLQ0FBAeTkKmedI03khURqrAha6uz+qMqTKcZAvmRAJ0zEs7LQh0VdXXTtSFq3iCpbWLl6ujzUNdOFhbkOdHV5+Pwlgu93qyJMHi+5FSz+ATHYe/Qx4QsNKB689exiixZN60JOXgZ/riCjkYvDtAkdCEFx/9GnhKCYkJTBj7Cqp8vDwD5NBZYprXvNFuCo2pAV/X0QN0iBtN+V6qKy96s63ouairjtdmaW6KBuop4hnqoSzM10YVlXF7Y2VeNG6Y/eTRiCYmxcGjy8wtGiSekqq+37XAEUPy/DBxb7xRzctzlDUASA/5yfE4Kiy/+tEx1a1MNvLEFTSkiKJ31rZrBYPIrCyICcoI+OFa+/UdXtV8fe2+D+eClaNhHfCrKOjhq8nq9Cr2F7Ef5d+ErCtPQcOJ9xg/MZN1hZ6OOy81TYNpLM6puEhAQcPXoU27ZtYxXhevbsid9++w12dnasfhQrg5aWeOJ9ZqZ41rtpaWlC+57GxsawtLSskDseSfPTCYoqamqY8nfxshFZWWbjmZZEDsIFWb0JQ9fAhBAklFmsS9goEsOR6c9MQT57Z2ftOXJZGVAcUU5eQRGKShwocThQ4HChqq4pNMBBTSTA8x1iwplLSc2sbWFsUTpANqjHLki737+BLkNFmLdVgoggPyKtjdNAsYMU1RRys7OwdfowfHzhyki3btkWTmOmoVHrDgxB9tML1yoVFAGg3+S5OLh8JiPtwLLpWHTgHPRNmB/k7Mw0/LdqNqMtWnzwPOqYC14OmMYSFTw5TvylESVo65MfbBWWpbdsyAux6qJUHK6KFAe0NQw7Ozvo6ekxOn+XL1/G/PnzARTPNG/ZsgUA0KdPHzRuXBr1cerUqQxBESheMl0SSKWwsJAvRk6cOFFoxy8/P5+1E5eRkQEVFfHEMACEnxugeCa5NoqJkkRGTrz+UFY2OTibNt4RI4ewO72Xl5cFR14BXK4CFDkK4KkoQVtLhXAkn5fHHmn7xV121zkyMjJQVJQFV0ERHI4COMoK0NZQ5VsllnD19idxTos4H0M98dpeUdx19SYsigBgzZLe6N2jMZrYmvCfPf+AmEoLJx3a1IeVhT7DuqskOEublqXWlqfOl1qCLJrdTejy2Kq616JQ+gEfgDUJaV2/6qYy96u63ovaDtsztH/rCDQWIPAoKMhBWVEBSkoKUOIqQIPHhbp61Y/RenRuRKTdvv+ZLyj6fo3iW/wtmdeDL8qrqXEwbbwjDh4vNfJ48ToQX/2i+IGiQkLj+WLlrEmdhNYjKY0UhcoHJBEHwzqkoKitKaYfcgm2X20dLPiBWMrye98deHVncYX8Gza2NcbbJyuwat1VXLj2Xiyrff+gGDRuvxa3zs1Cr25kRO+KEBISAkdHR2Ip8IQJEzB8+HC0bdsWXG7ps8rj8So1aVweWTGMAQB2C8hmzZph165dAstVUlICh8MBl8sFl8uFrq5uhVfNVAXSr4GEkVdQRNeR7BEYlVmWuaXEV1xQ5GnrAEyfx1DTqh1WctJGTl6B1cLTsK4V1LUrtvy8NsEWuGfkonWM3+37DIXLxmVEvicXT1aJoHjP5T8izWncDJacNZe8nGxsnTWCISZyVFSxYLcLmnYQvKyqqvl9yDhEBPrh1rHSzuu3r18wq5Mths1fDUv7FlDkcBER4Ivrh3bwxWaOiipmbz1CRE4ujwqLWXtSbFSF66nKEl28okunKZJBjgq0fGRkZDBixAhGBOdXr14hLi4Ourq6uHLlCl9sXLp0KWPffv36EZ3CgwcP8gXF58+f833WTJo0SWg9BHXSYmJiUK9ePdZtbJR1wF0Cm8hIYUebJbImh6OAdg7i+WAUhIKCHHiqSsQgx6qe/g9ZfEwc1RYTWaJ2Vgeuz3wJ0WTUEAfsWD+kQkECxEFWVhazJnfCnKXMaOqHT7zkC4qFhYXYc+gxf9vEUcJ9S1XVvf5VoNePnep8L2o72prk9aijp1bjniGLerqwaWDADxwCABeuvcdfS4r7z3uOPAFQbC05uVy7M3F0O4agCADOZ19j05riOAknL7zh7/tHb/aAKSXwuKQRRsg38Vb6lEVLi3x3K7N0+kc5sW88th9wxf6jTxnpaek5aOv0L57fXIQm9uK7AzLQ5eHI7jHYv3UEnr4KwOUbH3D2srtIcXHu0nPo8bsNKutiPSwsjBATmzVrhpMnT6JRI1KMlgZsfcPs7GyxfTDWJH6qoCyi0DM2J9IiWay0RJHGEsRBTVvyS1J/VgzNST9BcRGh1V+RaiIiyA+PL5aL4tSyLSF4aerpo9sIcoDr/8kdHk/uSbROCdGRRJ1adumNBs3Yo4RVBdGhgdi3ZCou7dlY6TLunjyAj08fMNKkLSaWMGbZBvSf9ieRfm7HWvwzri9WD+uKQ6vm8MXENn0GY+d9D/zWtY/IsrVZfPuF+VXcJ1t6MrkMga2dpFCqm169yKjt9+/fBwBs27YNANC2bVu0acMMDsHlcjF9+nRGmoeHBz58KF6aWWKdaGNjg1atRLd3bNEBAwMDWXIKJjmZtCguu3ybIhxzU7J/FRBU8clgNiwtSF9HoRHkapbaQGZmLv4YfYCR1tbBAsf2jK0y0WTkYDIwl/MZNyQmFS8DfPLCn+8HbP7030X6+arKe/0rIK3rV1AgPFgHP19h9QdfkMZ7UZuxrEdOKgdXQaRmSTC4HzNugo9fFEJC4xEXn4b/sXfeYVEcbxz/KlX0Yj9FUREJKqJGDcbE8lNiiV1iRKMYjV2jxt5iw5rYo8YaK0aMvcWKFVEiimJBpCMI0sGjXtvfH+TO25u9u73jjkOdz/PcAzs7szu7s9Peeed9t++9BQCY+VM3CARsod/nnzUgnLNs23sThYUSSKVypTBtzPAOOu351atP7nJITRMhJ0c/++xZWaSmYyPH0l/gL29ZHlvXDMGsn7oR50S5RejUdy0ecDju0YW1tSW6d2mKnRu9kR23CU9uL8KW34ag7zfcHpij49KRmKy/pqeCCRMmsISJAoEAp0+fLjPCRACoX78+ERYWFqbTIVxZ5KMSKNaq70iE3Tp1WG/vQmnJbKcFX/b6ltNLaTkzeC0yCibOd22Orb1x4U9Nek9zIZNKsGUGqV04Yj63EK33yMmc4ftXzde4XdwQLvnuIMIGz1hitOvz4eGNi7h54hBC71zTHVkD/kfZdlCcW7QpNWGiHNrrSbly5TBs1jL8cfM5WnQgvYdVr10Xbbv3w7DZy7Aj4CWmb9yv0auzOjXqkJ1Q1JOHSE/Ur5PPSHnNOratWAmOTbk7d1O2C7reJRd6tdtmbov5PR9HHAMHFUwZG4wY4sGvY8eORNjZs2cRGBiI4OBgAFBugVaHy6vy3r17kZWVBV/fYu+dU6ZM4ZWPRo3IBbDjx4/zSqsgOZnUHu7ZsydHzJKj16s29xCFp3DBqT65eyH4UZxOj6N8aNyItAUb+pS/Y6pSgWc5/XP1KaH1sXhOX1gZyeYlF9WqVsSoYaQ2pt+J4jq6c/87LaDJY8h+UB1TljULc3/7qhgoZONqV0vt/amRk8dPeJKS+tawG5SgvMxRL0yKib9dJw4hVgiH86qyQM/upGfki9ee4U/fd/boR//Are01adT/WMei3CKcu/wE1wNeKp1ujR6mW1OMSysYAM5fIb1OayPpDbnw2LVTE+7IpvwG5AzKlSuHtcu/w6JZvYjTotwiePRbj39DYjkSvyMxOQuPQxOUi0uqlC9fHs3dHDB5bBecPfwTngYshmtjctfG62Ttthc1kZSUhIsXL7LCpkyZgnr1jONoURd8x7xVqlThdKTy8qX+ym7m5qMSKNZvTEqlM968RjSH911N5GSkE9t123xNalIAgEwmJcPEhnkMKk2kEna+80SGrRBocqpiX5/cKnZ8y2pIDHAqUZaRy2TYt3wO4SRk0q874NyC2xt5HadP8WWvb4nw5NgIHNm0nCOF/uTlZOP0zg2ssKGzfNDARbvxbamU/J4NERQoCL1dvE3ZwVlDh6kDmVTCcnwCAJ/xECZKJfobS5ZyCHOlYn4C3tBbV/HkTvGWL+cWbbDnfjyOReVhx50IzN7mhwHjZ6K6PX+bJABQu4EjZ/jdy2f0uk5iBNuW5Fe9BqK8BrtuxmoXSvIuWeghNDN1m8a6l4HPJ5Nw9BcGLiLIZNy24TTHlyIyNBhFBbqfzxAMWW21sbGBl5cXK+zYsWNYvry4HRQKhejXrx9n2qZNmxICyW3btmH37t3K48GDB/PKB5eR6yNHjqCwkH9/xaXR+M033/BOrw/6vGux2jeX/ZafgXB1+NhF4rJXqMmGoTr163FrgOz3u8srvTY+dSIFisvX/IPCwrLj0ZVvOYVHknZ0O+jwHC0Wk+2Ovoz7kRT+b955HYnJWTh2pnh8Pah/Gzg11G3WxpRlrYqxvn19KUk9UIdLSFga74/La29GBik04OLydcO825ekvEqzXhSptRtFRqhf6pi63XbkEEofPn4fL8L1N6tjaj5vWV/pcVrB4eP3sWlH8Zh76Hdt4WBPbisFip2zqLNjXwD2/CeM/OJzJzTj6VCmcwdSUUaxqMIXdU/j9epU1Xh/Y30DutqjZQv6Y/kv/Yk4otwitOv6K+4Gk7YWFWz8wx+tuqzA5ethOvPh1qwuLp74mQi3sTZM6M815urSRbstTEO1AiUScqwgFvOfZ3JpTK5YscKgvJiTMilQ5BJSyDiEGfrS9PP2sG9IVvqgS6d4X+PexROs4+q16+Krnp6ccbkmgxIzCBQL83JRwGMirIBrQmxMvuxJCswy3rzG9aP7TXpffeEjPNCEuLAAm6aPxOW/2J57+/w4BV2+G641rdfPi2BbkdyGcXrHevj/Tdpi1Ae5TIadi9iaOV/2+hYDxpNbc9WRFOqnvq+NooJ8pd3D2g342yJT5W1mJhFmrcOhzPP7Abh34aTe9zKkLjNyOQ799gt2LSn21lzPuSkW+17AJ9VKbivU1k6AHsPGEeG3T/3F+xpxL54Szmn6jiE7dAXGaheM1S7qYzPS1G2aKoY+H5eg29D+Qs6jv8wTvcX9K2exff4kjGxdFwsGdsbB1b/oTGcISUlJBqUbMGAAEabY9jxjxgxYabE7OWkSaQ927ty5AIAhQ4Zw2q7hYsSIEUSYSCSCv78/R2xuFFqRCry9vdGwIX9vifrwOoXUctCExMRaS+x7kROXoiJ+9bJiRRtiaxsA/LLiNPIN8KapCtekMiEpC3/63inRdY0J33JKTSO1v7Q5QJFK5Zi1RP/+UJ0vWjdE82bsRbGI6BQMH//OE/u0SV/zupYpy1qV0vz22fc1vB4Q12LIdr403l8Fa7LdDQzSbQbiZmAEzl3ST2tLQUnKqzTrhbqQt6jI+AJFU3+7nb505rQh+8sq/Ras9UGUWwSRSH+lEgsLC3w/kG12IfDfaKWG4U9jO2tMW7lyBUz4sRMr7PrtF0rP9aOGfcWVjJNJo8n7/HPlKdIz+M0jxWIp9qj1OUvm9dXoHMlY3wCf9mjhzF5Yv3IQZ/r2Pdbgxh1ubbqC/4TrfOtA/TpV4aJmgqR+XcPMyXF5c1Z1vsLFr7/+apBDFi6BIpezFU388MMPRNjhw4fx6NEjvfNiTsqkQFHCsfJvDEFcuXLl0JfD6cSZ3ZuQ9pqfOveVQ7tZx8NmL4eVtQ1n3Lcc9slEmaa3zVOOw7vQi/v8B8dvM9jGZAvzclFUYNjqB5fGS4MmbmjbndQsObRuCaJCH/C+dnpiPArzS+6NCSgWtHGhr9YkwzAIuXEJC77rTAiu+o6eCu95ulcdHBq5YJnfFU6h4s5fJuPqX7sN0gyUy2TYu2wWK19OzVpi0q/beHn0y04jG2hDNRTDH95T/l+jLrl9lw92HGriUVq0jUPvXMOvY78jwvloLHLZGnybTQo0VTm9awPO7H7nVKJp2/aowFGmhtLt+9FEWHz4M9y/cpZX+hsnD7GOuw7+keV1XB1jtQuGvMty5cg27fm/tzlicmPqNk0VQ55PUzpRlmH9Rd5b7UKljOREjGxlj7WTvsf1YweUiycNmpTMox7A7d1O3esyX7p316xxPGrUKK1pFc5ZuPD29uadh3r16mHQIHIwvWTJEs6BpDrJyck4dYq9aLlkiXHMS5QvT7bbN+9EcMTkRn2iLcotMljokJenfYzGte0pPZufVhMALJhGbhFPTRNh2oKjvLUJxWIpItS0lZq7OcCzTyvyfstP4f6jON75i32VgVwempqGwLecanAY9X/2/DURBgAiUSGGT9iDy9efEeckBizg/zye3M6s+Ba/+NyJ5fVZF6Yqa/b1jPft60NJ64EqWVnc41NTv78qHFs8t/55Q+v787/1Al36rud1by5KUl6lVS8YhkGy2oLOm1TDbcBpwtTttq2tFRbNInfenTr/CHv/4q/pmpmVp3GBi6vvun0vkve1VdFkg69Vy/o6251RwzULDb/l6Bc00b9nS04h7MoNF3il/+cKe1u+S6Na+GGwZhvPxvoG+LZHMyZ2xfb1wziv4dFvA46fDSHCFQLFNJ5CVZlMxqo/X3zuhJo1DHOOxrVgrElAJ5fLsXbtWvzyC7mgzkfTMJNDuSUjg//YfcSIERAKyZ0S48eP12sx/vnz5yXaNVhSyqRAMT2JtF/z5lWMUa7d0XMI6jk3JcI3zxqjc4J51W8PS6PHY9AIdOyvedtUdCip7hx694YeuTUMLocN2+ZNRMiNS8hJT0P00xBsmTUGxzavIuIxDIPn/wYQ4RF6CPpUiXnOvRo5cNIcIqwwLxfzB/4Pp3as49wuriA9KQHb50/CxM6uOLFtrUH5UiczhbvSFhXw08rLePMat84cwcJBHlg9diDiw9mDkakb9+GH+as5bW1y0dC1JZb4cndEu5ZMw5rxXshJ5+9FLCUhFku8e7I0Jt279oGP32XY2vFrsCMekgOJ3Le6BSXqZKel4uapd8KsqkLDvJ3aVLBD5ersRvj+lbMIunSaFSaViPH3puVYMbIfp9Zp2mvd9rJePCCf/WVwoNY01/7ezzq+cvhPXPbdgagnD5GVmoK32RnISk1BRnIiUl/FIDE6Aq9ePkdsWChiw0LxJi5Kq7CzQRM3dB5ICka2zB6rdPSiieinIbiwb6vyuJ5zU4z4RbNzHGO2C4a8y+q1yW0fp3duwFW/PUhPjEdKfDT81i3Bxqk/EAK/0mrTFBjyfAAQHnKPCAvTYyFIlain2s14JES+IMJsK1ZCx/5DDLqfKnXrknZAf/vtN+zcuRNxcXGIiorCggULMHjwYOTlaZ9IV69eHZ07dybCR48ejZo1tRsrr1ChAsaNI7V4BQIBunUjjY1rY/HixURYSEgIFi1apDWdTCbDnDnsvs7X1xfOzsbxllm3VhUi7LffL2Pn/tuIfZWBqOhULFh+GoNH7SImjgzD4GYgKXzUZRdJE4+eaW9H73BoMN2+y38C+VnLepwTx90HA9C2268If6lZY1kmk+HIyWC4tluCxl8sRlY2e6z3y0xy+7kotwhffL0aqzde0Gp/Lj4xE2OmHoTTZwuwiufkUR/0KaeGDcg6MWH2YaLsnzxNwOceq3DkJHcbmPxGfzt3XhxacQrmTNHPrrEpyxow/revDyWtB6oEaxB4m/r9NaxfHY0c2TstRLlF6NB7LaLUHMAkJmdh0qzD6Oa5CZqQ63DoUtLyKq16ERmVSmwjDrgXpXOxRR9Kq90eNaw9sZUYAEZPOYDBo3ZxfhcKcnOLsHLDRVRvNAOeQ7dzxmngQGqejZpyAP9ceYo36W/x4HE8fpi4Dz6/ndf5DF06cC+Ez5iou593/4zUrgaA/r1a6uWwx9raEmt9SIWFTduv4fxl7WPGjKw8LFzJ1v48dXCCRhufxvwG9GmPJvzYCfu2juQ8N2jkTiz99RzLVEDWf4LJY6cf8FrI2HPoLqv+LJnTR2caTTg6OhJhCxYsQGQk+9nS0tIwYMAAzJkzh1Oop+rURRN37pDj9IAAcs6hCTs7O8yfP58IDw4ORpMmTXDu3Dmt6YOCgtClSxe4ubnh0iXjOnDVh3KMOcWZAK4lFiKr6F1n8uLBXaz/aRhyMkhtqMnr96BD74GwsNS8zYkPqa9iMLPvl4RwoUmbLzF980FUq0VOXm+f9sOWWe888Lbq3B2ztx3RqJ34MiQIayd+z/kc45Zv5tQuMhbRT0Mwz5O0aaNO5epCbA8IVz6DuLAAvr8t5HTY4dyiDWZvP8L5bhSc3LYWfhuWEunm7PibU2h06eB27Fk2i/NaDZq4oUV7DzRo0hwOzk1gY1cJqa9i8O+VM7h+7J0jDh+/y3B1L5l79azUZBz8bQHunDlKnPuq7yDUcXRG5eo1YVuhImzs7CAuLERudjreZmYiOz0VLx7cI2z5KWjt8Q2Gzlqu0z6hJl6GBGHFj/01br/uNOB7dP7uBzRzb0/YvmPkcrx4eA+B54/hyl9szdr+Y6dh6KxlGu3lqRP4z3Fs+pnc+le5uhBtPHrik6rVUEFQGTa2NkA5C1haWEAsKYKkUAxxUQEK8vOQHBWOFyFBxLNsvfYEtRrw115QZfv8SYS3aqC43Jp/0Qm5OVnwP7IPKQmxsG/oghmbD+LU9rW4e4FtumD2Nj9OrVlGLseNE4ewff5E4pxtxUpYuO+MRs/Yw1vWKtG2eQV9fpyCobOWwopjO7ekqBBLh/VExOP7rPDK1YWYs/NvuHxGeuCMD3+GhYO/VuatVr2GWOr7D2o4NOC8f0nbBQUleZcymRRDGlfWeQ8AWHP2Lhq6tjRK3vVp0wx9PoZhEPjPcfw+bSRnujnb/0bzrzprzGNsWCjm9GOvsttWrIQ5O4+hebtOnGnO7f0dB1ctYIX1HzsN3nNXwsaiPPo6ajcdoA2pVKp1K7IqISEhaNVKuxbA77//jmnTpumdDij2lqdun2by5MnYsmULr/ypcvr0aXh6kuZNJk2ahDVr1qBiRbYWjFwux4QJE1h2G5ctW6ZTCKkVcTSQ986JlVQqh5WQ/N64eHRjIT5rWbzYWFAgwZylJ7B1N7nA6d7KEScPTdBodwoAVqy/gEVqEyD3Vo44dXgiIeSUy+XY7xeE0VPIdlpQyQaXTvzMW3vtdUo2ug/YhDANAhFvry/Qolk9uDWtg0YNauBtXiFu34vEnoN3lGk6d3DBjbOkiY8tu25g6rwjnNdt3swBPTo3RfNmDnBtYg+BnQ2i4tJw8twj7P3r3WLBrX9modOXn/J6Fj7oW07RMWlw/nwhEVdYU4BpEzxQo7oAgf9G44Bf8eLFghk9MahvG7Tqwt454d7KETfPzdTp3VSdqfP8sGXXTVZYvTpVEfN4FSwt9dNfMFVZl/TbN5SS1oOAoEh06rWOSHfl1DS0a0OajTFlXQGAGb8cxcbt3A716tWpiiYutfEmTYSnz99NyEd7t0eXjo3hrbIVHgDWLhuI6RO/hgXHeNQY5VUa9SIxOQtDRu1G4L+kTbnR3u2xdc33nLYn9aE0222g+Jvr7bWF09aisKYA3/ZpheaudeHmWhf2NSsjOS0Hl64+w9Y/byjTLFvQn9Oxx4PH8XD3IJVauO7z6smvsLHRroxKd3iuAAAgAElEQVQxwHsbzlx4Z69eUMkGqRHreb3zXQcCMH46e8fOsf3j8V0/0n6yLjTViz1bRmDk9+2IHRxZ2fn42nMjHqk4vbl4bAq++Zp0NgMYr/0qSXt07MxDeP24i/OcS6NaWDS7D7y92qJ1l5XK53JtbI/Nvw6BR6fGxI44sViKvX/dxcSZ70w27f59OMYM/29ub1kDEJCm0rQhlUrRuHFjxMSQymgzZ85E06ZNERkZiW3btkEkEqF3797Yv38/nJycWNueBQIBHj9+DCcnso2Vy+XYv38/Ro8m5TkCgQCXLl3CV1/x2zZfVFSEkSNH4sgR7jFIz5490bZtW7i5uaFx42IBemhoKA4dOqQ0AyQQCBAfH8/bnI+xKRMCxU2L5yDi0b9ISYjjFMCpYluxEuo4NkLlmrUwZ/vfsLTSb8CjIPzhPaybNJTzfl0Hj4Jru44QVK6K2LBQPA7wR5iKhsuACTMxZPpiTm2zVWM88SL4rk5BQuXqQtSq54hxq/4wWNikjVVjPPHo5hWN520rVsKKv6+hQRM3PLh+AQdX/6JRKKaKfUMXtO3aC95zVxLnuCbfCmrVa4iRi9bgcw92x3Ln/DHOiTQfvpsyH4N/JgcJ+lCS+2ujRQcPeE39RaOARB8K8nJxxW8Pjm9ZpfW7qlWvIWo61IeVjQ3SExOQlpzAKTQfuXANGjXn31Eu+r47wnloWBmK75M3vLUk1UlJiMXkLtwdryqdBnyPMT6bUKFiJfgM74Vn924RcRo0cUP9xm6Yur5Y623tT98TDnW4qF67Lmo1cMKSg/+wBLR/rVmI07s26vdAGug80Bs//baT81xWagrWTBjEud27VceuaNdrIKrb10XKq1iE3rnG2hLdqmNXTN24H5WqkB2QsdoFY7xLADjz5+849OsCDSmLmbLuT3Qa8H2ptmmOLs0Mej5RViZ+HTdQ6zZ99XQL/jwJmwp2rHNcAkUFthUrocfQMcSz/TZuEB5cZ2tT7bobhapC+xILFAFg3bp1mD17ttY4Bw8exPDh2u3JAkBkZCRcXN7ZPnZ3d8f9+/e1pGDToUMHBAa+a78CAwN5D/LU2b59O6dtRoFAgBkzZqBly5awsLBAYGAgzp8/j7Cwd8bIjx49yrl1Wi/UBIoAsG7rFcxefEJDgmIObv8Rwwe3w7lLTzBr0XHC+DsXLo1qoX+vlljjM5A4xzUxVdDIsQY2rhoMN9e6GDhiB2uipIl6daqikVNN+J+axilUUCUrOx/9h/2BgHu6bbap497KEXs3/wC3ZqQWLQAcORmM78f8qfd1gWJtiqXz+hqUVp2SlNO4aYew+6B27QhBJRuc9J2Irv9ryimoUsRxb+2EuT/3QPcu5K4eLp4+S0SLTmzncVvXfI+fxnTmlV4dY5a1sb59fYl9lWGUeqCpnIBiocukUZ2xZC5bo8eUdSUhKRPN2i3l5ZAJAJb/0h8LZ/bCzv23MWEGt63n5s0c0KZlfezbOsLo5WWqeuGz5jz2HLyDhCTt3mgFlWzg2KAmFkz/BkO+ddf5TKqUZrutrtn69Fkiug7cpLRJqA9eA9pg5wZvVKlix3m+l9cWXPQnt5YrEFSyQeCFOWjupttp4b6/7mKUinBs/vSeWLWItMHMRXZ2Pqo6TWeF5SVu0XtBBShe5Bs7zRf7D5M7VVwa1cKk0f+Di3NtZGbl4kbAS5y7/ET5bhs51sBp30mcdc5Y34Cx2qPb9yLRZzC3sBkAmMyd+KT+VOK8S6Na6PdNCzg2qAFLy/KIjUvH4eP3WfVn40ovTJuoYnPXAIEiAPz111+8zNusX78e06ZNg1wu17gY3r59e3h6emLmzJmIi4vDwIEDERJCbvNWx8HBAc7OzvD399c5tpHJZJg1axY2bdKsza0JoVCIbdu2YeDAkvdZhsJv/6WJeR37ktCw0URhXi5inofCtmIlXnbfNNGkzZf4/cojHFqzkHB04f/3Xvj/vZdI4961D7x+XgjHpprtTPERJgJATkYqcjJSkZdjmEt0XUxctQ27F09DsD+3uvjCfWfQoEmxICYr+TWviTdQ7G04+pn+W1RTEmI5HcN06DMINevUwz/7/+DtLGPA+BnoM+pnVK5ecucWOenaBdh8qVxdiOYdOuOzTj3Q8isPVKlJqk4bSoWKldB/zM/oMXQUrv29D0c2reT8xlISYjVudf3coxe6DPoB7l376F1v0hLiDMk2L2wrVjJYmAgUC3UWHTiPtZOGaKx3P/22k7U1mMtbNVCsuaewE5n/XzvDh4w3r5Hx5jUYsNdmhsxcCpsKFfH37yX31nXzxCH0GDoWzi0/J85VFdbCimPXcengNuxfyVabfxTgr3R+o0qDJm4YMn0x2nj00vg9GKtdMMa7BIDeIyYiNzsDp3dw22Ea+ctqdBrwvVHzrg1Fm2bo80kK83kJE1XT6UthXi5eqZlfyMvJJoSJw2b5GGx6gIupU6ciIyMDv/76K+f5DRs28BImAsCnn34KFxcXREQUl+eECRP0ysvEiROVAkUHBwd8+eWXeqVXv1aXLl0wZswYlpBSJBLBx8eHM8306dMxe/Zs2Nsb7/2qMnWcBzIz87B6E/dWl/UrB2H4f7aYEpOyeE1IgGKnGg9DdZuDUCc6Lh25eUXIExXymrQAxU5QEpKywDC6+6aqVexw6djP2LDdH/v/CkR0XLrONO6tHOEzvx+++dpVa/835Ft31K9XDZu2XVN6J9bF3J97YMakbpz2swylJOW0aZUXsnPyNea/W+em2L/jR9QRFmt8y2TcOgWi3CJcv/0C3oNILXdNNHdzQPsvGim1tASVbLTaAdOFMcu6NL59LkxVD1RJTRMh6Q1pq86UdaVenWoIubEQ42cexvXbpAkNBcKaAqxf7gVvr+LvSJv5gKfPE5H9n003Y5eXqerF8xdJOoWJinRPnyciKpa/qSIFpdluq9PczQH3ry3Aui1XcMDvLi8BsteANlg0s7dGYbSC3VuG46eZh1mahapcOvEzL2EiAHTvylbMGTmEfz9fpYodxv7QUSlwHu3d3iBhIgBYWpbHvq0j4DXgc4yf5sv6NiKiUzBtAbkTTlDJBqsWeWK0dwdUqMAt0DLWN2Cs9qjTl5/i3yvz0eO735XPKKhkg0H9P0fv7sUykq6dXXHqPNtuYUR0Ctb9cZXzfhN+7IRp479GY5favPKni2HDhiEpKYkwO6PAwcEBJ06cQNu2xXVZmwmewMBApZaiSCTiJUwEirdMJyYm8rJtaGFhgY0bN6JNmzbYsWMHa4ypCaFQCB8fH4wcORK2tiVTBCgpZUJDMTE9G6KMVFhYWcPK2hZW1tawtLaEpZUNUK4cpGJx8U8igVRSBKm4CDZ2AqMJbZJiIhHsfw7hD+4hM+U1kuKiUdO+HqrWtke1WnXQrG1HNG/fBdVra28cFdeysCgPSxtbWFnbwNLaBtY2NihXrhykkiJIiiSQiAshERdBXCRGzToOhMaJMYkPf4ak2AikJcajgl0l1HJ0hmPT5ixPs7nZWXibmQ5ra2tYWNvC2sYGltbWsLS2hlwqhVjx/sWFkIqLYGFhybk98m1mOgpEObCuUAm2FSvCytoa4qIiFOXnQlyQr3Nb69vsDNy/dAZP795EZtob5KSnwdrGGvUbu6G+iyscPm2Kxq3aQlC15IJE1XvmZmb+9+z/fX82VsXfHqBSZmLIxIUQi8WQiIsgERfBuoIdqlSviUqVq/LeOmwMZDIpEiJeICo0GLEvnuBtRhriX4YRApRvhk9A4zbt0Op/PVBR8InB93sTV7y6bWlpBQtra1hYWqG8pRWsrCxgYWmN8uUtIJNJIZOKIZPIIJUW/y+ViCEVSyCXy4By5VG+XDlYWJQHypeHpZU1rKxtYCf4xGAtY1UyU5Jw7+IpPLj2DzLeJMPaxhpN3TtgwLjpqG7PHpDk5WQjT5QNW7tKsKlgh/Lly6OgIA9FeXmQScSo7egMSVEhUhLjYWVtDWsbW1hYW8PGxgaWVjZgGAaS/+qDRCyGtKgQYomEcGhSVJCPf/b/Ab/1S5VhrTp3R+36ZD2Qy2R4m5WOjKREjYsrfUdPxQ/zNds5BICcjHSE3LiIx7evIj0pARlvXkMqkcDe6VNUq1kbLq0+R/OvvkY9F+2TBcB47YIx3qUq6UkJePXyOZLjowFGhloNnFHfuQmE9d9tSSjNNs3Q55NJJUiOj2Gls/6vDWIYBlJJEcRiMWRiMSSFBbCyrYiqwlpEHsWFBUhPSoSNnR1sK1SEdYUKkMskKMwvRGG+COXLW6CmiuMjdfMd1WvXxWb/UFjbFnvAM4aGooJXr17h6dOniIqKglwuh7OzM1xdXdGokX4mDsLCwpRe+9q2bQs7O/59ZmFhIYKCggAUD75cXUu+I0AulyMoKAhnz57F48ePkZCQgISEBHz66aewt7eHk5MTunbtiv/973+oXJnfVn1ecGgoKohPzMSzsNeIikmFjGHwaUMhXF3s0cjpnf2wzKw8pKfnwsrGEja2lqhgbQUba0tYW1tCKpWhqEiKIrEUhRIpxAUSWFhZoGF90tZVWroIOTkFsBPYQFDBBjY2ligslEJUUIiCXDGcGwlRWChBXHw6rK2tYGNnCVtrK9j+dy+GYd7dSyxBUYEUEokUTRrrJ3RlGAb3HsTg2OmHeBmZgjdpb/E2Jx9OjjWLt+I1rQu3Zvb4vKWj3gtpGVl5OHE2BNduvUBySg5SUkWwsbVCy2Z10axpHTRrXAdfujvpZWeLLyUtJ7lcDv9bL3Hi7EPcexCL/LxCuDjXxrBBbfH9QHdi2110TBpsK1qhoo01KlSwhlgsxdv8QuSLxKhRoxKqatAw4uJP3zsY+3OxV/P5077BqsWkmQBDKGlZG+vb1xdj1YP8fDESX2fBrpI1KlWwQYUK1pBKZRAVFCHvbRHsa1fWKgQxZV15lZSF4IexSE0TITsnD1WrVEJd+yqoY/8JWjarz9ruLpXKERefjgqVrFHJ1gYVKlhBIpEhL1+MvLwiyGRyODcSmqS8TFEvXiVloShfAmvb4nzaWlrC1tYKlpYWEIsVeZShqFAMcaEUVava6e1oojTbbW0UFUlx6dpznL7wGK+TsvA6ORtSqRxNG9fGZ2710LSxPdq0qK/zOuo8fZaI8OgUxL3KRKWK1vi0kRAtmzno/Z7uBkdDLJbB2tpCLydQAJCcJsLLiOKt/p86Czm3gOtLfr4Y/rde4Pzlp4iMSUFCYiZEeUVo2KAm6tSujOZN66Brl6b4onVDrV7HAeN9A8bul1+nZMPv2H10+NIZn7d0JExb5OUV4XrAS9y88xIJr7OQ9CYbb1Jy8EllO3zasCYaNRSiUcOa6NujheZFOQM1FBWEhobi+PHjuHz5MjIyMmBvb4/evXtj6tSphKmapKQkSKVSVKpUCXZ2dpDL5cjNzYVIJIKtrS3q1q2LwsJCxMbGwsbGBra2tsq/1tbW/73DIuWvsLBYbtC0KT8tf1WioqLg5+eHhw8fIiUlBampqRAKhfjss8/g5uaGJk2aoH379mYXJCooEwJFVRuKFAqFP1KJGP5/78Nfaxdzaui17d4PHt/9gM86dS2x7VEKf26dOQLfVfOVJhXadu+HSb/t5CXYzRO9xYV9W3F0M3ubqnOLNlh9kr9nYwpFHblMhlm9v2A5F1t6+BKatX1nc9eYAkWKkdEiUKRQygJLfz0HnzXFO2Pin/2K+nXMY8+JQqFQKB8AJRQoUkqHMrHlmUKh6E9STCQ2TPUmPEqrcv/KWdy/chaVqwvxtdcItO83GPU/1X+lhMKfYP/z2DrznZFe5xZtMGvrXyhXnp9R+oqCTzBo6gLEPHvE2pqaGP3S6HmlfFzcvXiSJUz8duJsljCRQqFQDEUslmLDtuLtbMMHt6PCRAqFQqFQPgL0c7tGoVDKBAHnjuLn7p9pFSaqkpORipPb12Jmz88xtVsrHNu8CrFhoZDJuO0JUgzn+Ba257rh81fxFiaq8kWP/qxjG1vTmUagfPjIpBIcWf/Ozp9zizYYNFW7kxsKhULhy5mLoUoba9MnfK0jNoVCoVAolA8BqqFIobxnyKQSbJ7+I4BipySDpi6AfUNnpL1+hYjHwXgacI2lhaROcmwEjm5eqdxSW712XdR1bgwLS0tkvklC49btMHbZ76XyLB8a2WmphIMOl8/4G7VXxUrNLoa906cG54tCuXXKj+W0adrGfUaxX0qhUCgAsHbzFQBA5w4uaNWyvo7YFAqFQqFQPgSoQJFCec+Qy2Ro0MQNXYeMwtdeI2FlXexAxuWztmjf+zsAQHpiPB4F+OPBjQsIuc7t/VOBugfZipXpNiVDSUmIYR3bVqxksNAmLowtmHRr18ngfFE+bsSFBTi8bony+Kffdup0kkWhUCh8uRkYgeBHcQCAWZO7mzczFAqFQqFQSg0qUKRQ3jOsbGyx7vy/WuPUcGiAbt+PRrfvR6MwX4Snd2/h/tVzCLp0mtN5i4IB42fgu8nzjZ3ljwZ1xzeFebl4m52BT6ro7y0y7N87rOPOA74vUd4oHy9JsVHIyUhF9dp1MXDibHQe6G3uLFEolA8EhmEwZ/EJAIBLo1ro2bWZmXNEoVAoFAqltKACRQrlA8fWTgD3rn3g3rUPJqzcihcPg/D45iXc97+A5NgIAEA956aYvG43nNxamTm37zc165DbvGKfPUbLDvrZk7p38SQiHt9XHn8zfALVKKMYjGPT5th26wWq1bKn3t4pFIpR2br7plI7cd60b1DeAJvBFAqFQqFQ3k/KMQzDmDMD1xILkVUkN2cWKJSPlreZ6ch48xoOjRrDysZWdwKKTn75rgtLGFjPuSlWnbwBWzsBr/Tx4c8wq88XymP7hi747XQAKlSsZPS8Uijq2FiUR19H2haUScTRQN41c+eC8pFyMzACV2+E4adxXVBHWBkAcOJcCL4bsRMA0MixBl78uwxWVhbmzCaFQqFQPhQsawCCb82dC4oO6DIihfIR80m1Gmjo2pIKE43IkFk+rOOEqBfYNm8Sigo0bzUHAJlMiuvHDmLh4HfajLXqNYTPXxeoMJFCoVAoZmXdlitYteEimny+CFPmHkG77r8phYkAsHrJt1SYSKFQKBTKRwbVUKRQKBQj8zToNpZ592SF2VashGGzl8G9ax9UE9qjXPnyKCrIx5v4GMS9fIYz29exvHP3+XEKPH+abZD9RQrFUKiGYhmGaihSzER2dj6qOk3XeH7UsPbYs+WHUswRhUKhUD54qIbiewEVKFIoFIoJiH4agj9mj2MJCVWpXF2InIxUIrzdNwMwbJYPajs6mzqLFAoBFSiWYahAkWIm/j71AENG7+Y817OrG04cmIAKFah9VgqFQqEYESpQfC+gTlkoFArFBDRq3hobLj1AbFgoAs4cwZPA60hJiFN62VYVJjq3aIMW7T3wedfe+LSlu7myTKFQKBQKQdUqFeHa2B5hL5OVYe6tHDF1/NcYNsgd5cqVM2PuKBQKhUKhmAuzayhmFsohlps1CxQKhVJqFBUUID09DXK5DJWrVoNA8AmdjFHKDBblgJoVqB20Mok8H5BlmjsXlI+YzKxs5OXlo26d2tSbM4VCoVBMSzlrwFJo7lxQdGB2gSKFQqFQKBQKhUKhUCgUCoVCeX+gy4sUCoVCoVAoFAqFQqFQKBQKhTdUoEihUCgUCoVCoVAoFAqFQqFQeEMFihQKhUKhUCgUCoVCoVAoFAqFN1SgSKFQKBQKhUKhUCgUCoVCoVB4QwWKFAqFQqFQKBQKhUKhUCgUCoU3VKBIoVAoFAqFQqFQKBQKhUKhUHhDBYoUCoVCoVAoFAqFQqFQKBQKhTdUoPiRIRKJEBAQAKlUau6sUCgUipKkpCTcv3/f3NkwGhKJBOHh4bh27RoCAgKQmppq7ixRKBQtSCQSPHjwAGlpaebOygdBfn4+7t69i7y8PHNnRSMMwyA+Ph63bt3C9evXERMTA4ZhzJ0tCoVCoZQR0tPTERgYaO5slGkszZ0BiumQSqWIi4tDeHg47t69C39/fwQHBwMAHj58iNatW5s5hxQK5WOkoKAAkZGRCAsLw+3bt3Ht2jVEREQAAGQyGcqXf7/Xuvbv34+5c+eyhIgCgQBv3741Y64oFIoqSUlJePnyJYKDg3Hz5k1cvHgRALBp0yb8/PPPZs7d+4VcLserV68QHh6O+/fvw9/fHwEBAQCA8+fPo3fv3mbOIcndu3cxZcoUhISEsMKfPn0KNzc3M+WKQqFQKOZCLBYjOjoaz58/x927d3H58mWEhYUBADIzM1G1alUz57BsQgWKHyAxMTEYNGgQMUhSpaCgoBRzRKFQKMCZM2cwY8YMxMTEmDsrJoFhGCxevBgrVqwwd1YoFIoGunfvjqCgIIhEIs7z+fn5pZyj95esrCz06NFDuVjNRVl8n+fPn0ffvn3NnQ0KhUIp08THx8PX1xflypVDmzZt8M0335g7SyYhMDAQ48aNUwoPuSgoKKACRQ1QgeIHiEgk0ipMBAAbG5tSyg2FQqEUk5iYqFOY+L5qJzIMg6lTp2Lr1q3mzgqFQtHC1atXtZ63tbUtpZy8/4jFYq3CRACoUKFCKeWGH35+fhg6dKi5s0GhUChlmri4OLRo0YK1+LZ582ZMmTLFjLkyDSkpKVqFiUDZ68vKElSg+AHi7OwMPz8/BAcH4/Tp05wTeDpgplAopU3//v1hbW2N4OBgHDlyhNAQEggEZspZyVmwYIFSmNijRw/07dsXFStWxL///osdO3aYOXcUCkXBhQsXEBwcjCtXrnDaRaKTBv5Uq1YNx48fx4MHD3D27FnOCVlZGm/+888/SmGiq6srvL29Ua9ePURFRWHDhg0atVYpFArlY2P37t1Em/jLL7/gp59+em8X/zXRsWNH7Nu3D8HBwfD19eXsC6gylmbKMdT68AdNTk4OvvrqK2KQFxkZCWdnZ5Pcs6ioCH5+fqhdu/YHqxr9PkDLwTDS09Nx8OBB9OrVC02aNDF3dj5YXrx4AVdXV1aYUChESkqKmXJkONu2bcNPP/0EAPD29saBAwdYg62nT58iJSUFXbt2NVcWTcKVK1cQFxeHMWPGfHCDS8qHj1wux9ixY7F3715W+L59+zBy5EiT3PND7pcLCwvRu3dvXL9+nRV++/ZtdOzY0Uy5ekdwcDDatm0LAHBxccG9e/dQrVo15fnU1FTcunUL/fr1+6AmjmFhYTh//jzGjx+PypUrmzs7FArFTOg7vxk3bhx2795NhOfn53/QC2+JiYlwdXUlhIoSiQSWllQXjws6A/jAqVy5Mn744Qci3BSDpZSUFPz+++9wdnbGjz/+iMWLFxv9HhTd0HIwjLCwMMybNw81a9bEzJkzceDAAXNn6YOmadOm6NGjByusUqVKZsqN4URFRSmFiQAwe/ZsQrjWvHnzD0aYmJ+fjyNHjqBDhw7o0aMHxo8fj9zcXHNni0LRm/Lly2P06NFEuCk06j6GftnW1hY//vgjZ7i5KSoqgre3t/L4559/ZgkTgeIFrUGDBn0QwkS5XI6bN29i2LBhaNasGebOnYu7d++aO1sUCsUMGDq/6dSpExHWvn37D1qYCAAODg7w8vIiwqkwUTP0zXwE1KhRgwgz9gDvypUrhHDgiy++MOo9KLqh5WAYPj4+WLp0KSuMekE3PTVr1mQdl4WJp77MmDGDddy8eXMz5cT0ZGRkoGHDhqxVWxcXF3zyySdmzBWFYjjVq1cnwuj4yHC4DNaXBQHd9u3bERERoTxu166dGXNjejp16kRs52/ZsqWZckOhUMxFSeY3w4YNQ3R0NNavXw+RSAR3d3ccPHjQBLkse6jLTt5nk0ylAdVQ/EgpjQEe3S5aNqDloBupVEqEubi4mCEnHzcVK1Y0dxb0IisrC+fOnVMeC4VClCtXzow5Mi22trbEFpBmzZqZKTcUimmg4yPjUhYEiocPH2Ydf+hbf2UyGRFWp04dM+SEQqGYk5LMb8qVK4clS5YgIyMDmZmZuH//PpycnIydxfeCD10rs6RQgeJHipWVlVGvp65pBLx/woEPAVoOhlGrVi0ijL630sfa2trcWdCLW7dusY7ft/zrC1edoNqJlA8NY9fjj71fNrdAMS0tjfBEbewxcFnD3t6edSwUCs2UEwqFYk6MMb+xsrLi1D7/mPjQx/clhQoUP1KMrUXDNWCm0vzSh5aDYXCZBaDvjaKLpKQkc2eh1FFfnbazszNTTigU00DHRx8WycnJRJhcLjdDTkoPdSHC+2ifmEKhlBw6v6GUBlSgSDEKVapUIcI+phX4sgItB8NQN84OUEEJRTeZmZnmzkKpo25zjk5UKRTt0H7ZvGRnZ5s7C6WO+piGttMUyscJnd9QSoMy65RFKpXiyZMnePLkCUaOHKlXWolEgkePHiEyMhLDhg3jnS43NxevXr1CUlISkpKSIJfLUadOHdjb26NBgwYGb+2Sy+V49uwZoqOjkZ6ejipVqqBWrVpo3ry5UVSIxWIxIiMjERYWhtzcXDRo0ABOTk5wcHAoNY9EDMMQYSVtsPLz8/H8+XOkpqYiIyMDMpkMDRo0gKOjI+rXr1/q3paMUY55eXmIiIhAVFQUOnToQGxLKSnGKofMzEzcvXsXtWrVgru7O+tcVlYWbt26hczMTNjb26NDhw46jdUqyvLVq1fIzMzEJ598gpo1a6JVq1ZGVaNPTExEfHw8kpKSkJWVBTs7O9SoUQMtWrTQaj+IS1vB1Ct4BQUFePDgAbKzs9G3b1/Wubdv3+Lhw4d4/fo1xGIxHBwc4ObmZhQbSDKZDGFhYUhOTkZGRgZyc3NRp04dNGzYEI6OjkYdaIhEIrx48UJpDN/JyQlOTk6oXbu20e6hoLCwECEhIXj16hVyc3NRo0YN2Nvb47PPPjPZljtTeDeOjY1FeHg4kpKSYGNjg9q1a+PTTz9FgwYNDL5mTEwMYmJikJiYCAnZpRwAACAASURBVKB4xbp+/fpo3rx5ibWxDBGMlHb/LpPJ8Pz5c4SEhGD48OGwsLBQnmMYBk+ePMGDBw9ga2uLli1bws3Njdd1MzMz8fjxYyQmJkImk6F27drKumrIe01PT0dCQgKSkpLw5s0b2Nraom7duqhbty7q169v8q2jpmqntfUnSUlJCA0NxZs3b2BlZYX69eujVatWRjOALpfLER8fr2zz7O3t4eTkBEdHx1LT0jD2+MgU9ZlhGCQmJiIpKQmvX79GRkYGqlatijp16qBu3bqoV68e4b3+fUHd7qsxMEU7nZaWhpcvXyI+Ph6FhYWoVq0aatWqhTZt2uhd99W/OUPqkznmYXFxcQgKCkKnTp2I8U58fDwCAgIglUrh7OyMdu3a8ZoHGHtsYO52mi/vQ79n7HZH27gaKHYsFxwcjKysLOTm5sLBwQEuLi5wdHRkvR9DMPVc39zzm9zcXPz777+QyWTo3r273ulLC1OXA0UDTBlAKpUyUVFRzIULF5g1a9Ywffv2ZQAofwkJCRrTSiQSJjIykjl37hyzevVqpmfPnqy02dnZOu9///59ZvTo0ax0XD8PDw9m69atTGpqKq/nys7OZpYsWcIIhUKN1+zZsydz8+ZN3u9KlYyMDGblypWMQCDgvLZAIGDmzp3LTJkyhThXUFBg0D01kZmZSdzj3r17Bl3r3LlzRDlyPduiRYuY169fG/U5uChpOW7YsIHp27cv4+DgwErTunVrJjc3l1ce/P39iXtmZGQQ8Qwph8LCQiY0NJQ5dOgQM3PmTKZFixbKtN7e3sp4b968YQYNGkRcf+DAgRqv/eDBA2bEiBFay9LT05PzWfgikUiYQ4cOMa1bt9Z6n86dOzO+vr5MXl4ecY3z588T8Y2JTCZjIiMjmdOnTzM+Pj5M586dWd+yKnv37tX4DCNHjmRiY2MNysOzZ88Yb29vje2F4jdixAgmJCSkRM8bERHBjBs3TuM9XFxcmI0bN7LeAwCmffv2et8rOjqaGTlypNa2YuTIkUxMTEyJnomLuXPnsu7l4OBg0HUkEgmzb98+Vt1T/7Vu3ZrZs2cPI5PJeF0zPz+f2bx5s9ZrCoVC5siRI3rlVb2erVmzRmt8c/TvSUlJzNWrV5n169cznp6erG8+PDxcGc/Pz4+zXQ8NDdX6TLdu3WJ69Oih9b0uWrSIEYlEWq+jeMazZ89qvZ7iN2TIEMbPz48pKirSeV19MGY7zbc/KSwsZKZPn66xzi5dupR3/8hFUVER4+vry7i4uGh8puHDhzNbt24lwq9du2bwfbkwxvjIVPU5JyeH2bFjB+Pq6qq1/IVCITN58mTm+vXrWq/H1Zfy6bP27NnDed+S9kUlyZM6pmin5XI5c/LkSZ31f8GCBYxEIuGd1zlz5rDS9+zZU2t8c7TT2dnZzL1795idO3cyo0ePZo2R//zzT2W8kJAQzvHd1q1btT6TMccGZaGd1sX71O8Zo93RZ1z99OlTYrzJ1ceFhYXxfNvvMOVc31zzm/z8fCY0NJQ5evQos2DBAqZdu3bKtK6urkT8Y8eO6awXip+TkxOR/vbt2walU8XY5cBnfH/58mXez82V/uzZswalK4uYXaB4/fp1nS9TU8d/5swZnWm1DYBlMhkzduxYIo2rqyvj4eGh8aPUNWCTSCTMzp07iYm7i4uLxsn8uHHjeAv5RCIRs2rVKt4fMdfPmALFhIQEZvLkycQ9XFxcmHbt2hG/JUuWcF4nNTWVGTp0KHGdFi1aMN7e3ho7npUrVzJyudxoz6PAWOXYrVs3jeUwcOBAnQPPjIwM4lt0cHBg8vPzWfEMKQdfX1+t34lCWOjv76/xmUePHk3kOTExUetATv3n5OTEPH/+XO8yOn/+vNYJI9fvwoULrGvcv3+fs4y43lm7du2Y06dP65XH8PBwnXlimOIOnKs9Uv8JhUImMjKS9/3FYjGzYsUK4joODg6Ml5cX07FjR877eHl5MW/fvtXrWePj43ktzmj66SNQzMzMJCZNivZC0/V1TUD4IpfLmbNnzzJOTk68vxtNbdTVq1eJPDs4OBALEKrvKC4uTmvejh49qjE912/hwoWMVCrV+sy5ubnMhg0bOL9Hruft2bOnWfp3Xc8dGhrK5OXlMd7e3hrjaJpghoeHM56enqy4AoFAYxvk4OCgdfCalZXFOVFo164d0759e41tbmJiotay4oux22m+/UlCQgJrgqLp5+HhwTlB0oZUKmX8/Pw46ybfnzEFiiUdH5mqPjMMw4SGhhLfmEAgYDw8PDROYHVN6gwR3q1evVrjs5RUoPj48WNOIUiLFi04378moYqx22mGKR57tG/fnne59uzZk8nKytJ6TalUypw4cYL4/gUCgca+yc/PT+e9jd1Oa1twBN711Vx9juLn6+vLmSdjjw3M3U7z4X3q94zR7vAdV0ulUq3fENdvzpw5vOaUpp7rm2t+s3jxYq33cHFxIfK6fPly3nnkEpAdOHBAZzqhUFiq5cBHoMi1IKnp16NHDyL9unXrDH7usobZBYpcgw/1X1JSEmdaPp2gtsGo+ur4smXLmMzMTFace/fuMf3792fF07ZCm56ezri7u7Pi+/r6Munp6QzDFAsxw8LCmEmTJhF5HTp0qE7h0r59+1jCJVdXV2bSpEnMjh07mJMnTzKbNm3iNUAxhkAxOTmZc6Cs6zd37lziWkePHmVVfKFQyFy+fJnJyclhxQsKCuJsYL28vAgBW0kwZjk+fPiQWbduncaOcsGCBVrz4uXlxYp/8OBB1nspSTls27ZNa5yBAwcy+/bt0xpn9uzZrPweOXKEiNO/f39m5MiRjIeHh1aNWr5lmJKSQtRLgUDAdOvWjZkyZQozbtw4jRNWxQQlJCSE6d27t97v7fz587zyqODJkyc6rxkbG6tzBVL15+DgwGv1OyQkhBhE//nnn4Rmb2JiIvE+Fe2LrkkRwxRrG6l3vh4eHsycOXMYX19f5ujRo8yyZct0Dnr5ChRDQkJY35GTkxNz/fp15fdTVFTE3Lt3j1NYumPHDl730MTVq1f1KitFe6aOVCplJkyYwIq3aNEiJjo6WhknMTGRs466uLgQfRXDMExeXh7R/rdu3ZoZPnw44+XlpXVwumHDBs7nLSwsZNauXatTs1X917p1a7P077ryefXqVZ3CLK53q94O9u/fnwkJCVEKbrKzs5kLFy5wLkQ+fPiQuF5ubi5RVidPnmT1zRKJhDl27BhRhwsLCznfmT6Yop3m059cu3ZNr29pxIgRvJ8pMDCQ9a6EQiEzfPhwZv369czJkyeZ3bt3E/0p188YAkVjjI9MUZ8VhIeHE22o6vfMMMVaRBs2bGDF69ixo9br6iNQlMlkzIwZM4j4Q4cOZQIDA/UWJqsSERHBuaNC10+1/WUY07TTDEPOPxQLfMOHDyfGnqq/vn37anzmEydO6NT44vpxtQXqP2O307rKZuPGjczEiRO1xjl37hxxXWOPDczdTvPlfen3jNXu8BlXJyUlaVXo0PabN2+e1vdtyrm+uec3U6dO1RqndevWGt/JmjVrNKZbvXo1Ex0drVXTOj09nRk4cCCRdt++fZyar6YsB747kPLy8jSOdQUCARMQEKC1LyssLGQePHjAuYuxpP1gaWJ2gWJ+fj4TEBDAbNq0SePqkaYOOS8vj7l58yazfv16jQMrTR/uiRMnWPF+/fVXrfmcOXOmMu7Tp08547x584bozP39/TnjyuVyzsHm5s2bOeNLpVJWHoBiAaimVejAwECtar/GECgePHjQoIZ69+7drOvcunWLdd7FxYV59eqVxvu+fv2a89kmTJhQ4mdiGNOVo1gsZoYPH875TjRdX/0dc010SlIOb9++Za5fv86sX7/eoIEoUKwhqoqqNsC8efOITkAulzO7d+/mvBaf7VoBAQGs8hcIBMyZM2c44xYUFBArQAqTBaNGjTLoeV+8eKEzj6pIJBLm/v37zK5duzRu5VcMnFxdXZmtW7cywcHBTFhYGHPkyBGNwitNq/MK0tPTiUGmtsUQiUTCeHh4EPdp0aKFVkFvZmYmsdVEU3lIpVKtAmo+AsV79+6xnsvBwUHjdqycnBzOgdeDBw903kcT+miUKH7dunVjXUMikRCaAur1SBVNwh91AgMDleeFQiGnds+rV684y9nJyYlzVT46OtqgejJ06FCz9O8vXrxg/Pz8dE5Gtf3Ur6suLOjdu7fGyeLz58+JeicUContu+qD9jt37nBeT/EuFN+d+lYuQzFFO61Pf9KzZ0/myJEjTGhoKBMSEsLs2LFD46Q4KipK5/McPXqUlcbT01OjNldCQoLW7W/GECgaY3xkivrMMMVlq1o+Dg4OGgVGDFPcBijKxsvLS+tz8xUoco2HHBwcmMuXL2u9Pl90adnwqfumaqcZhmHFOX78ODGWz8vLY6ZNm8aZR03jY21jfk0/xQJBabfTSUlJzLlz55ilS5fqvVil+AUEBLCuaYqxgbnbab68D/2eMdsdfcbVQPGW4BMnTjCxsbFMQkICc/HiRWbVqlVaF2X8/Pw482XKuX5ZmN+kpaUx58+fZ3x8fDjrpq5xOpcpE12a7apcvXqVlVZTn2DKcmAY/U0a7dq1i7h+ixYteD+3qrajQCBgUlJSeKctC5hdoKhKXl4e5zYVPtLZ7Oxszs5UE+r2QXTZWhSJRMq4mrYbqq8GrF27Vus1ZTIZ0ZgJhUJGLBaz4hUVFRGr6ny2XaakpGgcNBtDoJiYmMjcunWLef78Oaf9hJCQEEYsFhM/1RWBwsJC4h3wsW2jLoRU/I4dO1bi5zJVOSricq0aOTg4ENtL1Sfy+/bt47y/McqBYYong9o0yFatWsUEBQUx/v7+zJAhQ5Th27ZtY11HMVF1cnLSqkUXFBRE3MPDw0Pru7537x7RSWkTPitQ3danmGQ9efKECQwMZCIjI5nZs2cTeeF6Z1xlqg8ymUzjyvzYsWM539fbt28567G7u7vWe6lvPT58+LDO/L1584azHZ08eTJn/MTERFaHLhAICA0PLh48eMB5H10DlaysLCJdUFCQ1jQJCQnEfYYOHaozj5oICgpigoKCmKioKGKLuoODA+c3oz5QVx8E6rJvxTAM50RBffupqgDiwIEDGq8lk8mIPhAgJ2gMU9wvX7t2jQkNDWXi4uKINJs3b+Z8Zq4Jcmn17wq0bUfp3Lkzc+zYMSY0NJTZtm2b8vrqE0H1dkogEOjMM5dgYdeuXcrzRUVFrIG6rrrMMAxz7do1Zd9iDEzZTjOM9v5kz549nGnCw8M5y1mXFv/GjRtZ8WfOnKlzy5pYLNYosDGGQNEY/bIp6jPDMExwcDAr3vz583U+z9KlSxmg2I6vNvgIFPPy8ohxkJeXF7EjpSREREQwAQEBTHh4OOciVmRkpNnaaYZ5J1DU9T65tsRpEmrevn2bCQ4OZuLi4gitHU9PT159kzna6cePH2tspx0cHJjdu3czjx8/Zo4ePcp6ridPniivYYqxQVlopw2hrPZ7pmp3tI2rAe2KCiKRiNPUFlC8wM/Vj5hqjlgW5zdcdVN9gVyd169fc75Pvj4PVNs8rh2NCkw5V2cY/QWKeXl5nAJYXbZJFajO2TZt2sQrTVmiTAkUGYbh3P7AxxYMw5ATaG0rRKoDXb4GLxUfYnx8PHHu+PHjRL6Tk5N1XtPHx4dIp74aoa4loGvLiSpisZjTZoaxnbJwCfiePXumM526LUhNq7lccNlIcXBw4P29cGHKclSQlpamU2gjkUhYmlDaGlVVDC0HBZpWN9UF2FKpVKmSry6oUkxUt2/frvN+XKrtmrSKZTIZsRp18OBBXs+lsM/BZfuDYUj7H6ZcXVbXpFEMHLRN6p89e8ZZLpomzQEBAcTz6GO3heteXAsp6gMxHx8ffi+BKV7wUC9PXQJFdQdTXMahueDa3sTXuZY2DHHKwiWUO3XqlM50XPYIZ8yYwYqjEEAIhUKdW+JDQ0OJ6y1fvlxrGolEQqTRZwt5afXvChITEzm/5Y4dOxKTI8W7Uy1DiURCaOxMnz5d533fvn1L3FN1pTomJoZ1buzYsTqvqRikG8tAt6naaVW4+hNdApQdO3YQabSNC8LCwoj4uuzMqcK1VdXYTlkM7ZdNVZ/VbV0eOnRIZ14U/da4ceO0xtMlUMzIyCC0vDdu3GgSO9h888SFKdtphnknUNS040lBXl4eMV7s3LmzznyoL0Lq0ixVpbTbaYZhOIWYXPai09LSlPM31bmYKcYGZaGdNoSy2u+Zst3hGlcDmhdV1OH65oHireKqmGqOWJbnN+p1U5vZBQVcu/GWLVvG636KXVkCgUCjHffSmKsbMr7nkktMmzZNZ7rk5GRWu1faDp2MAX9f7KXEJ598QoTxdeUuEAhYx9rcoicmJrL+P3XqlM7rz507F4sXL0aVKlWIc7///jvruG/fvqhdu7bOa/bp04cIe/78ufJ/qVSK1atXs84vXLhQ53UVWFlZoXPnzrzjlyavXr3CggULWGFjx47lnX748OFEWGJiIq5du2ZwnkxVjqrUqFEDf//9NxG+detW3LhxAwDg4+ODwMBAAED//v2xcuVKnXkwBlz1b+jQoejfvz8rzMLCAn///TcSEhKIcz4+PlixYgWGDh2q837ff/89EZaZmckZ9/r16wgLC1MeC4VCDB48WOc9AKBRo0YAgDp16vCKb0rs7OyIsKFDh8La2lpjmmbNmqFHjx5EeFpaGhEml8sxfvx4VtikSZNga2vLK389evQg2lIAOHDgAOs4KioKhw8fZoX99NNPvO4BFJdf69atecd/+/YttmzZwgrj214MHDiQCIuIiOB9b2Oi/h4FAgF69eqlM13Hjh2Jcnn69Cnr2M3NDX/++Sd2796t9XsCgBYtWsDFxYUVlpGRoTMfJaG0+ncFFStW5AzftWsXUQ+/+uorpKSkIDg4WBkWEBCAJ0+esOINGzaMV17V28UnT55AKpUCAFJTU1nnzpw5Q9xHnVq1amHx4sWYOXOmzvvzwVTttCpc5c11LVW8vb2Jso6MjNQYf82aNazjhQsXco7RNOHh4cE7bmljqvr85s0b1vFff/2F5ORkrdf//PPPsXjxYvTu3ZtHzrmJj49Hx44dlWMboVCI27dvY9q0aShXrpzB1zUFpmynAeDEiRPYvHkz3NzctF7Pzs6OGOeotx/GprTbaQCcdXblypVwdnZmhdWoUQPPnj1DQkIC6tatC8B0Y4Oy0E4bQlnt90zZ7nCNq5cuXYoOHTrozDdQ3G9wjXsVbZUCU80Ry/L8Rr1u8plLTJ48mQjbunUrJBKJ1nRHjhxBSEgIgOIxCleZAKUzVzeEUaNGEWF79uxBXl6e1nRz5sxR/j9v3jyd/X1ZpMwJFNXR9DHxQVuBCIVC1vG3336LYcOGISkpSWOaUaNGwcfHh+hsX79+jYCAAFZY8+bNeeXR3t6eCIuNjVX+f/z4ccTExLDOd+vWjde1yzr//PMPEaaPgMHNzQ2urq5EuJ+fn0H5MWU5qtO5c2fMmzePCP/hhx9w6tQprFixAkDxJMHX15f3YM4UeHt7c4bb2NjAwcGB6Mi/+OIL/PLLL5yDUnVq1qxJhGmaBKl/L7169eLd6DZu3BgbNmzA9OnTecUvbbp27aozTseOHYkwLoHi8+fPWQMToHhQxhdLS0uMGTOGCN+1axfreP369axjT09PVK9enfd99OXy5ctEGFf950Ix8VAlLi6upFkyCPWJapMmTXh9x5aWlkQ78+LFC9bxJ598gtGjR6Nfv3688qI+ADX1RFUdU/Xv2nB3d0eTJk04zwmFQtag9Pjx40Scxo0b87pPvXr1iLDXr18DIAfoqampaNmyJX777Tfk5uZyXs/CwgI+Pj6YNm0ar/vrwlTttC46deqk9XzFihXh7u7OCktISOCMGx8fj/3797PCvvvuO4PyVRYxVX2uVq0a6/jixYto3LgxTp8+rZz8q9OwYUP4+Pjwzos6t27dQvPmzZV9U/v27fHo0SPOfq0sYMp2Giiec0yZMoVXXtTnK5rqg6kwRzsNFL8jLipXrgwHBwfluNhUY4Oy0E4bi7LQ75V2u8MlPNJE1apVCQUXAIiOjlb+b8o54vs0v+ES3qrTtm1boh9PTU3lnPersnz5cgDF36S6YoSC0pyr60vjxo0JGY1IJMKJEyc0pklJSYGvr6/y+McffzRafkqTMi9QLAnaPvpWrVoRYYcPH0bdunXRtm1brFixAleuXOE1weJasbK2tkZGRgaKioq0puVavUtPT1f+7+/vzzrn6upa5lZyDeXq1atEGNfERRsjR44kwsLDww3KjynLkYulS5eiRYsWrLDExETlIEogEODs2bMlGswZg3bt2hntWllZWbhz5w7++OMPjBkzhnMVWZPmi/ogh2vgookaNWpg+vTpBk+GTA2f757reRmGIcJu375NhHF1otrw8vIiwlJTU1mrbOfPn2edd3R01Ose+vLw4UMiTCaTITs7W+NgVAFX/czKyjJa3viSk5NDLBBVqVIFqampyM/P5yxPVSpVqsQ6VtW014VMJsPLly9x4sQJLF68GH369MHNmzdZcbgE1GUVPoNaLrp06cI7blBQEBEmEokgEokgl8u1puXSElG0bQ0aNOBMM2/ePAgEAvTp0wd//PEH7t69q3HiakpK0k5rQyAQ8NJuqF+/Pq/rqU8qAG4BwYdISeozl7BFJBLB09MT1apVw8iRI3Hw4EE8efJEp0YJHzZv3ozOnTtDJBIBKF44vnHjRpnYMcCFOdtpoHjCfOnSJfz2228YPHgwoYUrEokgk8n0uqa5MLSdbt26NSGA0oSpxgZlvZ3Wh7LQ75V2u6PvAjfX/EC1HTDlHPF9mt9YWlryiscl4NyxY4fG+P/++69ywWnmzJka247Snqvry8SJE4mw7du3a4x/8OBB5f8zZ87Ua4dFWYLfV/EBMm3aNM5VLQAIDg5mqX87OTnB09MTvXr1QpcuXQiBnvrAAygWFi1dulR5rBAKVahQQbnqkJOToxxgqaL6wasLxxSqzR8CoaGhrGOBQMC7oVLQsmVLIsxQ9WVTliMXNjY28PX15XwGALhy5YrGAU1pUrVqVYPTZmVl4dy5c7h37x6uX7/Oa5tpYWEhEZaTk0MMyvUVkpVl+GwL4jv5UtdOBIoHHPqgaRtWQkICmjRpgoKCAqI89BkAGUJUVBQRpr4FTZ/6yXcLuDGJj48nwq5evYpatWqxwgQCAesZxGIx5+KWrsWGoKAgXLt2DYGBgbhz5w7ne1AlPz9f1yO89/DZFqNAsfVGFfV6qCgroHhQq6msgHf13NbWFvPnzyfMmSj4559/WCv57u7u8PT0RN++fXVukTQEY7XTuqhcuTKveHwFiqraIwpMqSVtboxVn7/44gu4u7uzxrkKRCIRDhw4wNLQ6927N/r27Yt+/foZ1O9u3LiRdRwSEoK7d+/if//7n97XKg1Ku52Ojo7GxYsXERgYiOvXr/NSZBCLxby3E7+P6LMwYKqxQVlrp0tCWej3Srvd0ReuRXGxWKz831RzxA91fuPp6QmBQMB69suXLyMqKoowZQAAe/fuVf7PtUtKQWnP1fWlT58+EAqFrPoQFBSEJ0+eEEpEMpkMmzdvVh5zbRV/X/hoBYrffPMNjh49yqmJo05MTAzWr1+P9evXo3///ti7dy9r5YzPJEzxEWsbALq4uKDR/9k777gojvePf1CqciqK2LCBYkRFxRBJEHtEY+VrNMauJMZeYm+IncQSu0bFhsEo9hpLrGBDUEBpSpGmIFI8Ogf7+4Pfnezt7N3eccehmffrda/X3dzM7OzulGeeeeYZa2uWuay8Jl5VC77KjPzquTLhmARpkJSu3qq6TVib75EPOzs7rF69GsuXL2eFi0QiwSbc2kR+q41QIiMjsXPnTo5fG6D03vr164cvv/wS+vr6+PXXX5XmRxJUqlT5fAyshVgdGxkZCcqLZJWi6uTf1NSUIwgAH1fy4uPjOWlUVVqqiibap0gkQvPmzWFtba0TgV+owk5qDcCHpaUlWrRoQXQRUVBQAF9fX/zxxx/EiYGDgwO6dOmCjh07wtPTk6iA/pzRdD1V9q4sLCxgZWUFKysrVn+6evVqSCQSbNiwQek1pIucS5YsgYeHB5YuXary4hsJTffTmkLoVi95RYKFhcVns4NDijbas56eHq5evYrvv/8eN2/eVBpfqjiZP38+Dh06xLsVVRW6d++Ox48fc7bFVQYqop8GgFu3bmHr1q04d+4c5z8rKyv06tULHTt2hJ+fH8df8eeOKnMdbcoGlaGf1gSVYdyrDP2OIqpVq8ZRBFlaWsq+a2uO+LnOb4yNjTFv3jysWLGCFe7l5cVR0mdlZcncKs2ZM0ehdbIu5uqqYGBggGnTphHvW9734/Xr12XK5BEjRmh9p5c2qRw9nY4YNmwYHj16hDVr1uDChQuC0pw7dw6tW7fGw4cP0bx5cwDkyfrkyZN5ndjq6+vDyMgIJiYmMDY2hqmpKerUqcMRhCUSCacxSH1RqIIyE2BdQLo3AMjJyeF1KEyCtIojEonU8jmorfeojIULF3IUimKxGDNnzoSXl5dKeWkadfzfXLlyhei8fMWKFRg4cCA6dOggez+RkZFqKxS1fYDEpwrpuaSkpKicT+PGjTmTU6m/NVJ+ypxrk1Clb8rLy+OE7dq1i1fxbmBgABMTE1kbrVmzpmALKW1Bul97e3uOkCGlSpUqMDIygrGxMUxMTGBiYoK6devyTlLy8vLg6urKsb53dnbGjBkz0LNnT5YF17Vr1/5zCkWh/TPflivSNltpvoaGhqx3Vbt2bd7V76pVq+L3339H+/btsXXrVqLVBgkPDw/cvn0b169fL9dkVRv9dEUjb9WRmpoKiUSi0nOpjPKRFG22ZzMzM1y5cgWenp7Yt2+foG25YrEYQ4cOQ/PedQAAIABJREFUxfLly7Fq1SrB9+Hk5MQ53AAAevXqBT8/P47Vhq7Rdj8NlLbjlStXssIsLS2xdOlSfPvtt6zdSIaGhv85haIqcrQ2ZQNd99OaorKMexXZ76iDfF2SzvMB7c0RP+f5zU8//cRRrO3cuRMrVqxg7RL666+/ZN+VWenpaq6uCuPHj+fc98GDB7Fu3TqWjqPsFvDK5ndVVXTfy+mYr776CufPn0dGRgYuX74MX19f4mphWVJTU+Hp6Yk///wTANfRLFCqmRd6uhQf+vr6HCshdbbzZmZmlqsc2oBvgE1JSYGVlZXgfEjbcdU1FdfWe1QGn9LwwIED6NGjB++hKJWRGzducCapo0ePxh9//FGuFVKSdR5puxuFvK1QHYWihYUFZ3IqtRogWa6Sth0pQxWhibSVsX79+lpvn5qE1F/l5+dr5B7y8/MxdOhQlvJBJBLh+PHj6NevX7nz/69hYGBAtNK1sbFR23KbxKhRozBq1CjExcXh3Llz8PX1JSpfynL79m34+voqPTGZD2310xUNyQ1EUlKSSq5CPnz4oMkiaYyKaM+GhoZwd3fH8uXLERQUhLNnz8LHx4e4pawsq1evxoQJE1iTbUUcPnwYmzdvxq5du1jhYrEYXbp0wZ07d4h+zXWFNvtpoPT5ySsTN27ciBkzZnySp3vqmoqQDXTRT+uCihj3KqrfUZXU1FTOfZc9MFFbc8TPeX7TsGFDjBw5krUgIhaLce7cOdkp1sXFxbJDHocPH65UB6CruboqNGnSBIMHD2bpk6SHs4wdOxZAqWsN6f9OTk7o3LmzTsqqKT59m9oyKHO+qwgzMzOMGjUKZ8+eRV5eHu7evYuVK1fCycmJGP/y5cuy7yQT1ZcvX6pdlrKQDu1Q9TABdZynVwSkVWlVlRIkZanQ08jk0eZ75OPmzZtEB65SxowZg8jISK2WQVPk5uZytiQ4OTnhwIED5Z6kkvzzXbt2rVx5fq6QhC11DioirZpKFYokH2ckx+jKUMUZMsnnijIBtLJBem5hYWFKHZ0LYfv27bhy5Qor7HNSJpZnfFeXli1bcsK0dTp4s2bNMGvWLPj5+SE9PR0XLlzAnDlzeIVr+QM4hKLNfrqiIb0fVS1udXE4kxAqsj3r6emhU6dOWL16NaKjo/H69Wt4e3tj/PjxvP7/SAc38FG1alXs2LEDc+fO5fwnFovRrVs3PHnyRO3yaxpt9tMPHz6Eu7s7K2zx4sWYO3fuZ6FM1EU/XZGyQUX107qkosY9bfc7qkKqM2UPs9HWHPFzn99MmzaNE7Zz507Z90uXLsmevZCdELqYq6vD1KlTOWE7duyQfT948KDs+/z58yukTNqk0isUhZwqJUWV7cARERF4+vQpy+GqFGNjYzg7O8Pd3R1+fn44ffo0p3NLTEyUnbJGmsAHBARoZGAldexSPwNCUbaKpi2UnYRHOmBG/qQrZZC2WaorcGvzPZJ49eoVhgwZIvsdGhqK/v37c+INHz6cuKVDKMreg7px5bl06RJndc/d3R0GBgZq5ymFtDKamJhI9Cn1KaLucyelIwm2R44cUfkaCQkJrN/Dhg2TWRZLfc2URepoXyhZWVnE09r4IN2Xrt+/qs+0Vq1aREFZE4sG+/fvZ/12cHCoEGViefoMbY3vUspTNqDUKkMe+cPE1KG4uBhPnz7F8+fPif+bmZlhwIAB2Lx5MyIjIznWTAAQGxur1rW12U/LU97nrwzSxIJvWyofQrcwahplz0ab7TkrKwtPnz4lHj4ClCrURo8ejYMHDyI2NhZDhw7lxOFLS4JhGOjp6WHjxo1YtmwZ53+xWIyePXvi0aNHwm+inCh6/trsp8tu7ZOyYMGCcuerTbTdT5cXbckGuuyny0NlHfcqut9RlbKGQgCwadMm1rZcbc0RP/f5zTfffMPxI3vv3j3Z4t/GjRsBCLfSq6i5ennbUa9evVg+OIHScgYHB6OwsFB28rOVlRVx7v+pUekUiiTT36ysLKXpcnJycOPGDcHX+eGHH2Bvb4+3b98qjevq6kpU4kmdppK216SmpuLQoUOCy8MHSem2du1a5OTkCEr/9OlTra7oKEKZAEJyVP3333+rdIAEyaKxb9++gtOXRZvvUZ6MjAz0799fNrHz9vZG27ZtsXfvXo4gGxISgnnz5ql9LVVW1eX9pwhpe1JIwrYyE3SSQp+Enp4eHB0dOeEzZ87UiNVARULyUSP0OchDGkBJfoMSExNVmjiTtn4MGjSI9dvW1paTbt26dYKvcfToUcFxAbLywMfHR6c+ANVpL23atOGErVmzptzlkD+ZV4jyQRP+41RpfxU1vkshtQ9V7plk+bJq1Sq1TjguS2ZmJuzt7QW9I319fbi7u2Py5MmscHVPKddmPy1PecaTsvA5VicpEq5evSq4r8vJyZG5rqloFLUbbbfnO3fuwN7eXlB/XadOHZw8eZLzrPnqn7LxbfXq1cT+TiwWw9HRUaVFKaGoM+Zqo58GwFFOOTk5oVatWgrTqNv+yqLK5Lii+2mA6xdNlX5aW7JBRfbTEokEjx49Ejy3U5aXPJVh3NNmv1Ne3r59i9WrV8t+29nZYebMmaw42pojVvb5TXnaphSSf8D9+/cjMDBQ5p9T6MJKRc3Vyyu/VK1aFbNmzeKEe3l54cKFC7JdYPPmzSu3n1WxWKyVsVMVKp1CkeTIVYhCbNOmTSqdEpydnQ1A+EBd1o8CUDqZljr0rF69OoYNG8ZJs3TpUsGnxfEhP4kHSiuOu7u7UgHhw4cP+OWXX8p1/fKQnJys8P9x48ZxwsRisUoCibe3N+v36NGj1favoc33WBaJRIIff/xRNmGYPHmyzE9iw4YNsW/fPk6aXbt2qWy9KUXZeygLn0NmIZD89CnawiORSFQy8yaZzfv7++PIkSOC8xCKshPsygPpGaur2CEJjs7OzsQVZlXqj6+vL+u3paUlp20MHz6ck+7SpUtKfdACpRbiixcvFlweAOjatStxJZdk8VJRqNNepP5TyuLj44OnT5+qXQ7S1nFlgvedO3c471kdhDhVl1JR47uU8rY10niQmJjIsR5TFamAroqioFevXqzfpEmfELTdT5elPOOJEBwcHIh9wty5c2UyHh8Mw2DRokVE1w4VgaJxWdvtWbrjQZW2IO9zk+80SiFtbunSpdi8eTMxvZOTE27duiW4XEJQpx/QRj8NcN97tWrVFMZ/+/YtPDw8ynVNQLUtqxXdTwNcWUaVuqkt2UDb/XRWVhbOnDmDn376CbVr14ajo2O5jAekVNZxT5v9DglVlHG///476/fevXs5Sh5tzhEr8/ymPG1Tyvfff88xltm/fz/Wrl0LQDUrvYqaq2tCfiGNI9u3b5cp1UUiEcaMGaNW3gkJCfDy8sKQIUNQo0YNODk54e+//y5XecsFU8nw9vZmALA+AwcOVJhm/fr1nDQAGBsbG940FhYWDADmwYMHgsoVHBzMynv58uWs/4OCgohl+Pnnn5m8vDxB1ygoKGAiIiI44SNHjiTm7ebmxhQWFhLzSklJYezt7YnpADC5ubmCyiSUe/fuca6xcOFCpemGDRvGSWdvb897X2VJTk7mpH358mW57kOb71HK7NmzWfdKehfDhw/nlEEkEjHR0dEKr63ue1B03ZycHEFpV6xYwUkbFBREjPvhwwdmxIgRxGd95coVYpq8vDxGJBIRn4ui5y2EtWvXcvK9ePFiufLkY8+ePZxr3bx5U2m6u3fvctJdvXqVGHfXrl3EZxsXFyeojLa2tqx0R48e5cTJz89nLC0tidfZt28fb96PHj0ivkcAjJOTk8Jybd++nZjOy8tL0H0xDMO8f/+eSUpKEhxfEeq0l5ycHNn4U/bj4OCgUrmeP3/OlJSUyPKUz8/V1ZU37dWrV4nvwMHBQeE1i4qKiGkkEomgMlfU+C4lNDSUk27lypWCyirF1dWV2Oc8evRIcB6xsbGMWCyW/X758qUsr6KiIkF57Ny5k1WG69evq3QfUrTdT5dF3fFkzZo1nHTZ2dnEuHv37iWWz97ennn79i0xTVFREePm5kZMB4C5ceOG0jKqgqrjsrbb88GDBxkATL9+/QTfg7yslp6eToynyvi2e/du3nfg6+sruGzKUGfM1UY/zTAM4+TkxOlL+OTdly9fMnZ2dsTn8+HDB4XX/fbbbzlp+NqDPBXdT5eUlHDqr7Ozs6CyStGGbKDNfjo+Pp5Y3t27dwsuLx+VddzTZr9z8eJFTnnt7OyYZ8+eKcy/pKSE8fT0ZKWbPXs2b3xtzREr6/xGE21Tiru7O29/v2fPHpXyqoi5ennmw2UZPXo0730vW7ZM5fwYhmFOnDhBzC80NFSt/DRBpVMo8nWyo0eP5gygAQEBjIuLC++LsrKy4r2ONM6cOXOUlqm4uJil1BOJREx8fDwn3sCBA4nlsLOzY8LCwnjzl0gkzLFjxxgrKytihxkREcF7jz179mT+/fdf2YSusLCQOXXqlCwvAETBQp1GoYiYmBjeTiI2NpZ5+fIls3jxYmb48OGsiQFp4AOUK8EkEgmnkXp7e2vkXrT1HhmGYRYuXMjK88WLF8S80tLSiMKsvb09a4CWR933wDClAwfpmkKUXQzDMIcPH+akdXR05Fzn2bNnjI2NDW+dPnDgAO81SIKu9LNhwwaFQl9aWhpz8uRJYhxSvhYWFszFixeZt2/fMgEBAcyYMWMYDw8PQc9CEaTBRYiwR1Iorl27lhhXLBZzlIJSQUBZ25effLm5ufHGPXDgAO/7mDp1KvP8+XNZ3IyMDJbQb2VlxSmjo6OjwrLl5OTwKiOHDx/OK2xKn4lUsFKmOBNCedrLH3/8QbwHkUjEnD9/XmHaBw8eMN27d2cAMJcvX5aFk8py8uRJVtqCggJm+fLlvO/MwsJCadlJSuTp06czISEhTHJyMrN3716mZ8+eTFRUFCdtRY3vUvbv309sA6rw5MkT3jKsW7dOYZ/z+vVrmeJq0aJFsvDAwEBZHqdPn1ZahvT0dFaf6ejoyBQXF6t0H1Iqop9mmPK1D5JC8d69e8S4BQUFvAsbVlZWzLFjx2R9XklJCfPgwQNWvSJNnPkWatRFnXFZm+15y5YtsjixsbFKy1+2vsrXZXlUHd+kSgbSx93dnSkoKFBaPmWoO+Zqo58eP348J785c+Zw2jPfhFH6IfWvZSEpzLt37874+/szqampzMWLFxkXFxfm3LlznLQV3U/zzXH4FhFIaEM20GY/feXKFWK9UqYoFkJlHfe02e+QFIply0uaN6WnpzNjxoxhxd28ebPSsVVbc8TKOL/RRNuUwtevAGCysrJUzk+bc/XyzofLQlpQlH7UNW5YvHgxJ6+ePXuqlZemqHQKRYbhWseU/djY2DAuLi4cAXLfvn3M9OnTOfH9/f05+WdkZLDiuLq68la+9+/fM5MnT2bFf/LkCTFuUlKSwrKPHj2a+f3335nLly8zERERTEBAALN582ZWmu7duxPzXrduHW++ZTsI+d9BQUGcFTOgdNVO3QkJCZLlCt9H3hrizJkzxHhTp04ldlrFxcXMzz//zIq7atUqjd2LNt5jUlISM2PGDFY+np6eCsvBN0C6uLjwKhXVfQ+5ubnE9gOUCliJiYlKn9urV6946+W6deuYvXv3MuPGjZOFL1myhLjK5ODgoFDppWgCZW9vz/z222/MxYsXmZcvXzIhISHMiRMnWAsCpBXjgIAAQc/MwsKCyc/PV/osSBQXFzNeXl7EfEUiEbGvKgtJoSgSiXitrF+9ekUUsJ2cnHjf55EjR1hx+/Xrp/B+CwsLmf79+6vcNzk7OzNpaWlEC+Xg4GClz4Fv4mBhYcFMnjyZ2blzJ3Pnzh0mKiqKuXPnDrNo0SJWmtWrVyu8hjLK217y8/N5Lb+kz33FihWMr68vExISwoSEhDDe3t6siZtIJGIJQnwWVyNGjGD+/PNPxtPTUyZA2djYMM+ePSOuwCqbOPEJcfKfnTt3EtNre3yX4u/vTxQIAdVXw7dt28ZbZjs7O2bu3LnM4cOHmYCAACY8PJy5ePEiM3HiRFa8O3fuyPKT79uXLFnCpKSkEK8dERHBsmqytbVl3r9/r1L5y1IR/XR52wdJoajIMuz69esq90FAqeW1/O4TAMzEiRMF7ZIQijrjsjbbc9mFTZFIxBw4cIB318qNGzdYz27MmDFEi+TyjG+KlGc2NjZqLxaXd8zVRj/NpzRwcHBgtm/fzuzYsUOmiATAnDhxgmhhSVJClmXz5s2C6tuwYcOI6Suqn05MTORYbUo/bm5ugq2NGEbzsoE2++lNmzZxyjh//nzB98pHZR73tNHvSFGkUCz7Ttzc3Jjp06dzLH+7d+8ueIebNuf6lWl+o8m2KYU0Rk2ZMkXlfBhGe+9BE/PhspSUlBAXZ8ePH6/WfTMMQ5x3XbhwQe38NEGlVChevnxZUOWXfqRbb0gVVdpxOTo6Mlu2bGEYhl/j3r17d2bZsmXM3r17mW3btnEUiQAYPz8/hWVPT09nnJ2dVSp/2YoaEhLCm/fFixd5B0tSxyMVvletWqUwniLzblXYsGGD0nIdOXKEmJZvi6ZIJGJWrFjBnD59mjl37hyzYMECTgdy4sQJjZS/LJp8jySliYODg6AtFKQ6KH0ufFugVHkP58+fV2iFUvZjY2OjVOCRV/TylV066JGUZNI4PXv2JFqKFBcXE7ftCfnY2dnxPvd+/fopLbcyZReJ2NhYhe4Hyn4sLS2Z7t27EwUnvmcFlAoCpNVFPz8/XuFy0qRJjI+PD3PlyhVm3bp1rEkMULoaLKSOFhcXC1rwkH7GjRsnE1rkr1n2WTs5OTEHDx4kXjM4OJj3vpR9hg8fzmRkZKj2Ev8fTbYXiUTCcn+gysfCwoJjrRQdHS0o7ZgxY2RWED179uRtJ6NHjyaW+8GDB0qv4ebmxtrmVxZtj+/9+vUTNE5aWFgwjo6OgreIHDt2TK13BZRaWpWFZEEirZtr1qxhvLy8GE9PT87YYWNjw7x580ZQeRWhrX5aU+2DpFCUfqysrIjWYREREQonF/Lllspyt2/fVljGfv36aWRHh6rykTbbM8liTyQSMZMnT2Y2btzIeHl5MStWrOBMJocNG8YZEzQ1vt25c0dhu1UFTZWJYTTfTxcVFQlqI/b29syrV68YhuFvD5aWloyLiwtR0Z6Zmal0jLSzs+MdC7XdT69cuZLXslg+nZ2dHXPs2DFB716TsoE2+2nSwlx5XLF8CuOeJvsdeYQoFPk+u3fvVtnARltz/cowv9FW22QYsizB53JFCJp8D5qeD5eFpONQth2fj/z8fE5bd3Bw0KiRmDpUSoUiw5SuOJfdtsvXeAIDA2Vphg4dqjC+dOtebGws4+joKLjSiUQiZu3atcy7d+8ElT0nJ4dZs2aN0vKXrQiXL1/mnYCVJTY2VqmFyODBg1mWfStXrlQY/9tvv1Xx7ZApKChgFi1axHudzZs3K0wfHh7OuxpC+syZM4dJTk7WSNlJaOo9kpQmQgfznJwcXh86IpGImEaV98CnyOX7KDOpzsnJISpQy9a1su/s1q1bCq+naFtdUFAQ4+DgIKjcFhYWzMKFCxX6oExKSmIGDx7Mm4cyawY+QkJCVHrGANlfjyKFIlCqICSRnp4uSIFQtv9QZ6C7efOm0kncmjVrWO1DmSCwfv163uu9fv2amT59uuBFluHDhytcsBGCptsLw5RarAjt9ywsLJjdu3fzrgxfv35d4fOQV9Aqev6Ktj97e3vzXsfV1VWp8K/N8V1ofZB+7t69q/QdSfH391fYv8l/Fi5cSLRouXz5suBxBSi1rDhy5Ija1tHyaKuf1lT7UKRQBMD4+Pjw3tfMmTMV1gEbGxuWJcrNmzeVllMTCkV15CNttef169er1E769+/P3Lhxgyijamp8YxiGefHiBWsiKxKJmIkTJzKnTp1S6VlrskxSNNlPx8TEKFR+z5kzh9XWlcnwfNufHz16xHsdKysrpT4VtdlPq9KPAqWyg1A0JRtoq59OT0/npFUk6wjhUxj3NNnvyENSKE6ePFnh+3N1dRW09ZoPbc71dTm/0WbbZBiGNadV1x9jWTT1HrQh30uR3xlbHr0LabFH3fmpJtFjGCVHBesQhmEQGhqKsLAwvHv3Djk5OahXrx4aNWqEJk2a4IsvvmDFF4vFePfuHapXr47q1avD0NAQ+fn5yMnJQU5ODqpVq4aGDRvK4r99+xb//PMPHj9+jOTkZCQkJCAzMxMNGjRAy5Yt0bx5c7Ru3RoDBw5U66h6hmHw4MED+Pr6IjIyEikpKcjMzIS1tTXatWuHtm3bom3btvjyyy9lJ0YLJSMjAwEBAUhKSkJqaiqMjIxgaWmJVq1awdbWFlWrVpXFLSwsRHx8vOy5GBsbo7CwUPZc6tSpg5o1a6p8f3zEx8cjNDQUr169QklJCVq0aAFbW1tYW1srTVtSUoKHDx/i/PnzePbsGRISEpCQkICWLVuiQYMGsLKyQu/evdGtWzeNllkR5X2PWVlZyM3NhUgkQlZWFoqKilQ6qSwjIwNpaWmoUaMGRCIRJBIJPnz4gJycHLRq1Yo3nZD3kJ6ejnfv3sHIyAhGRkYwNjaGkZERDA0NIZFIUFBQwPro6+srLXtJSQlu3LiBU6dO4eHDh8jOzkarVq0watQo/Pjjj6hShX24fHR0NExMTFCtWjWYmJigsLAQYrEYOTk5MDc3h5mZmcLrRURE4PTp0wgODkZ8fDxSU1NhYWGBli1bwtraGs7OzujatSvnxDY+QkJCEBkZibi4OJiamqJly5Zo37496tatKyi9PPn5+YiNjWU9X2NjYxgaGoJhGNbzzc/PR2FhIVq3bs3JJzc3FwkJCTA1NUX16tVhYmICiUSC7OxsZGdno0GDBgpPjIyMjMS5c+fg5+eHpKQkvHz5Eo0bN0ajRo3QqFEjdOvWDb1794alpaVa9ynl9evXCA4Oxps3b5Ceno5atWqhSZMmaNOmDafuZGRkIDMzU9Y3GRgYIC8vDzk5OcjNzUWzZs2UvreCggL8888/OHv2LJKSkpCUlASJRILWrVujffv2sLW1RadOndQ+Fbcs2mgvUl69eoVjx44hMDAQKSkpsnrcoUMHtG3bFl988QWcnJyUjkVJSUk4efIkzp8/j8TERBgbG6Nr165YsGABGjduzIorff7SOlWlShXk5OQgOzsbhYWFaNmyJe91MjIyEBQUhOjoaGRmZqJ58+Zo0aIF7OzsWOMPH9oa3yMjI1G1alXZu5G+Jz09PRQWFsramfQdNWnSROlJq/K8f/8ep06dwr///os3b94gJSUFxsbGsLOzQ9u2bWFra4uvv/4a5ubmCvMJDw/HlStXEBYWhuTkZLx+/Rr5+fmwtraGtbU1rKys0KlTJ/To0UNlGUEZ2uinNdU+3r17h6ysLFSvXh2mpqYwMjJCfn4+srOzkZubq7QtFxYW4tGjR4iPj8fbt29RUlIik+vatWvHed/R0dEwNjZGtWrVUK1aNRQXFyM3Nxc5OTkwMjJC/fr1y/28pagqH2mrPUskEjx+/BjXrl1DdHQ0kpOTkZiYCH19fVhbW6NFixawsrJCjx490KZNG9770dT4JiU5ORk+Pj7o0qULvvzyS8HjtjbLVBZN9dPZ2dk4d+4czpw5g/DwcEgkEtjb22PWrFlwdHRkxZXK8NL3amhoiLy8PNnY37x5cxgZGRGvU1RUhICAAERHRyMpKQn169eHjY0NOnToIKjf01Y/nZCQgPz8fFlfIX1H+vr6sn667DuqXbu2yjKYpmQDTffT3t7erNNfLS0tERUVRTxdWyifyrinqX5HnkuXLmHAgAGssNjYWDRp0gTBwcGIjo5GXFwc9PX1Ub9+fTg7O6NRo0Yq3T8f2pzr62J+o+22+erVKyQmJgIoPd25SZMmKj0TPsr7HrQp3wPAqFGj4OPjAwC4fPky+vXrp9Z9urm54cCBA7LfI0eOxF9//aVWXpqkUisUKRQKhUKhUCgUCoVC+ZQpLi6GnZ0dwsLCZGG3b99Gt27ddFiqTx8+haIqCh8KRZt06dIF/v7+sLGxQXh4OGfRVgiJiYmshUQLCwuEhobCwsJCk0VVC9XvhkKhUCgUCoVCoVAoFIogfH19WcrEJUuWUGUihfKZExISAn9/fwDAwoUL1VImAsDatWtZv729vSuFMhGgCkUKhUKhUCgUCoVCoVC0QlFREZYuXSr77eDggBUrVuiwRBQKpSL4888/AQAikQg//vijWnm8evUKe/bskf2eM2cO+vTpo5HyaQKqUKRQKBQKhUKhUCgUCkULeHt7IyYmRvbbx8cHhoaGOiwRhULRNu/fv8euXbsAAAsWLFDbV+qqVatk3+3s7LBu3TqNlE9TUIUihUKhUCgUCoVCoVAoGiYvLw+LFy+W/T548KBGDoqj8EOPiKBUBnbu3Cn7PmnSJLXyCA0Nhbe3t+z3sWPH1DosWJtQhSKFQqFQKBQKhUKhUCgaJioqCqmpqbC0tMSuXbswfvx4XRfps6KoqIgTVlhYqIOSUCgfSUlJkbk1mDx5str+Du/duwcAcHR0xI0bN2Bra6uxMmoKYeeMUygUCoVCoVAoFAqFQhFM+/btERcXh4YNG8LAwEDXxfnsICkUCwoKdFASCqWU4uJiTJs2TfZ79uzZauc1ZcoU9OnTp1JbNVMLRQqFQqFQKBQKhUKhULRA06ZNqTJRS6SmpgoKo1C0gZeXFzZu3ChTYkskEixcuBCnTp0CALi5uaFVq1Zq56+np1eplYkAtVCkUCgUCoVCoVAoFAqF8olx9+5dYljv3r11UBrKf4mCggLMmTMHYrEY+/btQ//+/eHr64vExERZnGXLlumwhBUDVShSKBQKhUKhUCgUCoVC+STIzc3Frl27cOLECc5/W7Zswddff41+/frpoGSU/wp37tyBWCwGUOorNSoqivXef9sQAAAgAElEQVT/kSNH0KxZMx2UrGKhCkUKhUKhUCgUCoVCoVAolZpXr16hR48eLCswecRiMb777jsAgJ2dHYKCglC1atWKKiLlP8LZs2d5/3N3d8eYMWMqsDS6g/pQpFAoFAqFQqFQKBQKhVKpycvLU6hMlCckJAQMw2ixRJT/Ks2bN2ed3iwSieDi4oJHjx5h5cqVOixZxaLH0BZGoVAoFAqFQqFQKBQKpRJTUFCAhIQEVKtWDSYmJjA2NoaxsTH09PQAACUlJcjPz0deXh7y8vKQn59f6Q+1oHzaJCYmwtDQkKVc/C9BFYoUCoVCoVAoFAqFQqFQKBQKRTB0yzOFQqFQKBQKhUKhUCgUCoVCEQxVKFIoFAqFQqFQKBQKhUKhUCgUwVCFIoVCoVAoFAqFQqFQKBQKhUIRDFUoUigUCoVCoVAoFAqFQqFQKBTBUIUihUKhUCgUCoVCoVAoFAqFQhEMVShSKBQKhUKhUCgUCoVCoVAoFMFQhWIlRywW4969e5BIJLouCi9paWnw9/fXdTEolHITExODkJAQXReDQlEJWm8plMoPlZUonxK5ubm4f/8+cnJydF0UCkUGwzCIjIxEZGSkrotCoVD+H31dF4DyEYlEgri4OEREROD+/fu4ceMGAgICAACBgYGwt7fXcQmBwsJCREdH48WLF7h//z6uXr2KsLAwAEB6ejrMzMx0XEIKRRhisRhRUVEIDQ3FnTt3cPnyZaSmpsLe3h6BgYG6Lh6FQoTWWwql8kNlJcqnRElJCeLj4xEREYHHjx/jxo0buHfvHgDg4sWL6N+/v45LSPmvkpGRgaioKDx79gx3797FhQsXIBaLMXjwYJw9e1bXxaNQKKAKxUpBTEwMhg0bhqCgIN44eXl5FVgiLv7+/pg0aZJMICaRl5dHhWR1YPIBSYquS/GfYdfuw/D8fQ8Skt4Q/88WZwJFryu4VBSKYmi9pVAqP/73AzFpykKEhb/ijZMnfgUzU4sKLBWFQiYj4wNc+o9FwJNnvHFyxPE6HVsYhoHv6SuIiIiGkZEhfprwA+rUqaWz8lAqBo9Vf2D33qNITX1P/D83J53KPBSKPHoGgH7DCr8sVShWAsRisUJlIgAYGRlVUGnIpKSkKFQmAoCJiUkFleYzozgdyL6q61L8Z4gMu8OrlAEAI8NC+j4olQ5abymUyk/K66cKlYkAYFLsD2RXq6ASUSj8FGR9UKhMBIBqeAFkV62gEnGZt8wXm3fdkP3euWMPgv3cYVaLtqHPmZBnd3mViQBgrJ9FZR4KRQ6mqgh6NX6s8OtW9fDw8Kjwq1JYiEQitGvXDk2bNkVKSgoyMjI4cWbOnAkLC92taJubm8PW1haNGjVCREQECgsLOXHc3d1hYGCgg9J94pSIgcIoXZfiP4NVE3O0alkfdWpXR8iLJM7/zZua46cxXXRQMgqFH1pvKZTKj3kdU9i2aohGDWoh4uUbFBYWc+K4zx8AAwPdKWgoFClGBvpo384S1s3qIj0jB+/eZ3PiTBztBKtmdXVQOkAszsegUbtYYR/E+WjWxBxfdmyqkzJRKoZWVvVg07IeRNWNER7FXUzt0NYSwwZ30kHJKJRKTBUj6Bm1q/DL6jEMw1T4VSm8ZGVl4ZtvvuFYA758+RItWrTQyjULCgpw7Ngx1K9fH3379lUaPzExEba2thCLxazwoqIi6OtTo1eVkSQD4ou6LsVnQdr7bBw5/hD9e7dFK5v6SuNfuxUOl6FbWGE9u7bGv2dna6uInyUFBRIcOxWA+vVE6Nurra6L89lD6y2FUvlJSE5HG0cPiLMLWOFFqbuhr0/PRORD1XGcohny84vQf8RO3Lwbzgq/e3kenB1b6qRMcQnv0bz9Ek64x8KBWLFwgA5KRNEFh3weYML0Q6ywcT9+jUM7x2vtmuERb3D+Wggmj+uKmjXpDjzKp4GuLBSpRFPJqFmzJsaOHcsJ18aW55SUFGzduhUtWrTAhAkT4O7uLiidpaUlhg8fzgmnykSKrgiPeINFK0+jbsu5mLvMF4f/fiAoXZ8erdG4Idvvp4kxrcdCeZv2AVv3/IuWnZZhwvRDcF93QddF+k9A6y2FUvlp3LA2hg/5khNOlYlk1B3HKZrB2NgAE0Z+QwjX3djS1LI2Z6wDAOdvtGNgQamc/DjUgRNmYqz5HXElJSW47R+FUZO8YPuNBxZ5nMb9gBiNX4dC+dygM5BKiLm5OSfM2NhYo9e4du0aXFxcWGGdO3cWnF6+jCKRSCPlolBUZeVvF+HxG1uR1bF9E8HpzeuKkJD80c1ANRNDjZXtc4ZkJdf5y+Y6Ks1/D1pvKZTKj3kdU9Zvkalu/WFXVso7jlM0g1ktriWWsb7uXBnp6enh4rFpmLP8lMxycsOqoejp/IXOykSpeIyM9CEyNWJZe2tDodi1/0b4P4pmhdm1a6Tx61AonxtUofiJUBGHsnzxhfoDND2QhaIriou5PqpaWanvb9RYC0LKf4UvWtLtabqC1lsKpfJjQhX/RDQ9jlM0h5GRbscWu3aN8e/Z2cjIzIXI1Jha+FIAAMZaqJeSYq4XuEb16IniFIoyqELxE0HTh53Urct1sFy9enW18zM0pEIyRTdY1K3BCatWTX0FvCF1li8Ii9qmnLDq5XjulPJB6y2FUvkxMqBiNwlNj+MUzWFgVDnqLD3VmVIWIy3Uy4b1a7J+W9Slu+8oFCHQZZ5PBD09PY3mR1IoUitDyqeI/JYyADCuRq21tE2dutwFCBMT+twpFAqFohp0HKdQKKqh2XkxANSTUyCKqtNFDQpFCFSh+B+lVi2uCXd5LBQpFF1R24xgKWdChQBtY1aD219Ur0YtlSkUCoWiGnQcp1Aouqa2GVuurVZds+cXUCifK5XDjl0Bubm5ePHiBeLj45Geno4aNWqgbt266NixI8zMuCd/CSUuLg4PHz5E165d0bBhQ9Z/YWFhiIqKQlpaGmrWrIlmzZqhY8eOGjvFuLCwEC9fvkRYWBiys7PRtGlTWFlZwdLSssJOSmYYrp+IatU0u53g3bt3CA0NRXx8PPT19dGkSRN07NhRIwe45OfnIygoCPHx8cjOzoa5uTkaNGiADh06qOVvUpf1QQgxsWmIiX+HxKRMAIB5nepo2qg22rZppLb1al5eEZ4ExyEzMw8D+9qx/vvwIR+BIa+RlJyFwiIJLBuaoY1tA435EomNS8PrpHS8SxMjMysXtc2qw6qJOZo1NVd5W0tJCdf3kqadNUfHvENUTCqS32aihsgYzZrWRse2TTXiyyc9IwfPnicgMSkTxcUlqF+vJho3qIU2tg1VfrfFxcUIC3+DwJAEjPnhK1St+nEbLMMwCH2eiIDgeBgb6aNDm8ZoY9tQQW6KIfchFaNQfPkqFcXFxfiiVYMKuR4A5OYW4kVUElJTs/E+PQfFxSVo2qQ2mlmao0nj2p+kX6d3aWJERqfgdfx75BdIULtWNdSrVwOd7JpqZTuRtigpKcGLsGS8inuHtPRs1KpZDfUsaqBd60ZqbZOLjX+PR09i4OzUktPnxSW8h9+DaEgkxWhhXReOnaw08u4Vtd2iomIEhcYjPiEdmVm5qG9REzZWFmhloxmfpbFxaYh4lYLkt5kwMjRA/XoitLCyQLPGdVTOK/WdGA8CYtC8cW3YtWusUtrk1Cw8fBSD1i3ro/UXwtq2onGsoECC+wHReBWTCrNa1fF1ZyulY1hxcTHCI97idVI63qRkwdjIEOZ1quELmwZqPY+KRFdjen5+kax+ZucUwLy2KRo0qIkObRoL7kcqYhwnIW13NWtXRxPCacLaIu19NiKjU5CWlo33GTkwMqyK5s3M0bRJHTS0qKm2XJeekYP7j6NRr54IDh3Yh6RlZObijn8U0jNz0aBeTXTpbA2R6NNRmDAMg1fR7/AoKA79vm2DOmbCjCCyswuQkJiOpJRMJL/JQkkJg4YNaqGhRQ00aVwHNWpo7xlUdH9YVFSM1/Hv8eZdFpKSM5GdU4B6dWugYYMaaNSoNuqbc10LCEWTsiqJt2kfEBH5FtGx71CzhglaNK2LZk3roFYFbnWXF2traOAQLU3Od9QuA49MIxbnIyQ8CfEJ6cjNK0R9ixpo0tBM6dyyqKgYj4JiEfc6HXn5BRCZGqNZ0zr4sn0zjchDmhhTpGhrXlRQIEF4xBvEJ6cj5d0HVDMxRH2LmujcqTlMNXj4miblM21SaWcMgYGB2L59Ow4fPswbx9XVFfv370ft2rUV5pWVlYXw8HCEhITg8ePHuHr1KhITEwEA+/fvh5ubGwAgOTkZ48ePx/Xr1zl5WFlZYfny5Rg/frza95Seno49e/bA09MTYrGY879IJMLUqVORm5ur9jWEIpFIOGGaUijm5eVh06ZNWL58Oec/kUiEuXPnYt68eWpZRMbExGD16tU4dOgQ8X+RSIShQ4fC3d0dzZuTT5ytLPVBGXl5Rdjv7Yd93n4IfZFIjGNRV4RtniPwg+uXCvMqKSlBTGwaXkS+wbPnCbjtF4nbflEASk+d/BC/TRb34F/3MXEGud2NH/kN3BcMQPMmqndk7zNy8NuWf3D6QhCi49J443XvYoN50/ugby9bVsfPRzHBibKmDqhISsnE0lVncfjYA85/1s3MsWzeAIwf+bVaed998BLrNv2DqzefE/+3qCvC5PFdMX+GC+/glJyahbDwZIS8SILfw1e4cTtMdgreNw5WsGlZDwDw9+kAzFp8HKnv2P1OyN3laNfWUq3yS4pLOGGKFIqzFh/Htj9vCsrbxroeIgNWEf97804Mm69K+5bE8N94J8Tb997CzEV/K72Wsmdw8WoIdnndwZUb5PcElLahOVN6Y9LErpXegTfDMDh76Rn+POTHW/cAYMmv/bBy0SBe4TD0eSLsuq4WfN2XAavRwvrjIQuvE9PR7hsP1qmNJKIer0bLFuTDGbKy8rBlzw3sOnCHU7el9OvdFgtnu6DbNza8eYS/eoOQ50l4HBiLazfDZKdn7982Fm6jnQAAz4ITMHH2ETwNjmel3/H7j5j2U3eF90BCaNt9GBiD0T97EfvM7l1ssGbZEDh9Za3y9SWSEhw98Qibd9/gHV86tm+C6T/1wPgfHVGlCrceZGbmIio2FZFRbxHwNBZX/w1HVHQKAGDyhK7YvWkU7/UzMnMRGf0WEZEpeBwUi3/vRMjSLpzlAs8V/+OkETqOFRZKsHbTZazacImTB5P+J7E8SSmZ2L7nJg763OetS+3aWOKv3RPU7jM1SWUY02Ni07B60yUc8rlP/F9kaoShgzrBfV5/NG9mrjAvVcbxkpISdOi2lrfeyjP95x7Y/tsI4n+Xr7/AoJE7FY45APC/sXtw5uJThdeRf+7ySCQl2H3gDryPP0TA0zjeeNbNzDF/pgtGD+uM6gq2XBYUSBD18i1CwpPwLCQBV2+Hy57J6OGd4b2nVAZ+m/YBM+f/Dd9zgaz0Qwfa4+ThXxTek1AO/HUfboQ69vTWMnRor5oiTUpSSiaiXqYgPPIN/B9F48adcFnbPOM9BUP6d1CYPuBZLP48cA9eR/0VxuvZtTX+N6ADhg/phLrm6hs8VHR/WJbXiek49Jc/Nu28rnBMtW3VAMNdv8SIIV8KXpDShKyqiNv+UfD84ypv/j27tsbPY52UygqaoEROrq0hUs8VmLbmO0IQItMwDIPDxx5i5qJjxOdq3cwc82a44JfxzhzF4sPAGLhNP4KwyDecdI0bmmHpvO8waRw3nRA0MaZoc15UVFSMUxeCsO+Iv+zUeRID+9ph7ZLB6s+vNCCfVTSVTqGYlJSEZcuW8SqMynLmzBkEBwfjwoULsLW1Jcb55ZdfsHfvXt488vPzAQB+fn4YOnQoUlNTifFiYmIwYcIEREZGYv369cpvpAzZ2dnYvn07lixZojCeWCzGb7/9plLe6pCYmEi8zrhx44jKWRcXF3h4eAjKOz09HYMGDYK/P3kAF4vF8PDwwN27d3HhwgXBSsyMjAx4enri999/Z4Xb2dkhJCSElf+hQ4dw6NAh7NixA9OmTWPFrwz1QRkMw+Dk+SDMXeorGwT4SH0nxgi3fXgRnoQVCwcQB6Solylo1dmdNw9pR5uXV4RZi49j35F7vHEP+dzH5euh8L+8gKUcUMbpC08xftpB1sAlMjVC9y6tUKWKHs5dDpaF3/aLwm2/KNi2aoBzR6cqvE7As1hs3fMvJ9yxD7kdLZ7dF4O/ay+ozCGhCfj2+628k8vouDRMmH4IUa/eYp27q6A8gdL3sWj1GdbkRGRqhAb1askESKD03a7acAkH/7oP770TOQqRJm0XKawfBQVFyM0txC+/HsXRE4+IcUxN1VuZT0hOx+9br3HCx00+BDOC1UC/XrZ4Hs4VPvggnfgpZd+hu7LvPicCMH/Gtzx5cBWeJEiWlkCp9d7sJSfgc/IxK7xdG0u0b9MIQcHxMoFKnF2AVRsuYdWGS1izbAiWzOmrcb+3miDgWSzmLPaF/6NopXHXbb6CpyEJ8NnrVm4LAYu6ItSuza4Xb1Oz1J4gSCQlOPCXP+Yt92XlYWNdD29SMllhV248x5UbzzFpnDO2rv+BpaT4Zc5R7D3M39/l5xcBADbvvoG5S32JcWrWUP3ZCGm7ALD7wB1MnefDG++2XxS69P0dF45NwwAXO9548ty4E45fl51kCaqN/986q2y5ngbHw23GYRw46oeje91YK+J9/rcF12/zC9RFRfxt+Kte6xUqVIol3LYrdByLjX+PoeP2cBS/wMd7LEtubiH+2PMvlq05y5u3lNAXpUr000cmw3VAR6XxtYWux/SMzFz8tuUf/LbtKiu8XRtLVp0SZxfgkM99HPK5r1Dxruo4vmBGH8HKREDxWLB5V+mCcVR0Ch4GxsCxkxUxnkTCX5+lKOrPQp8nYtyMw5x66fx1CzRuVJulLIuOS8PkX//CfPeTOH7gF/Tr3YaT39ETjzFmshfv9fLySvuQf+9EwHXMLmLZatXUjN90zy1XsHiV8vYjlPcZOWjefrHC51lcwv9OS0pKMPlXH069t23VAPXr1cLz8ESWXHfzbjhu3g2HeR1TpYvzfFR0f1iWI38/xLipB1lhFnVFaN/GEq8T0llyZVjkG3h4XkBK6gfs2jhSYb6aklX5eBgYg8Urz8gWQviQvh9tUlxcjHOXQ3DyPFvp7vfwJW8/9LfXT0QrMW3Nd4QgRKaRSEowY+Ex7Dl4lzdedFwapsz9C/cfR2PfljEyq0BlC/UJyRmY/OtfeB6ejG2ePwiWgzU1pmhzXuR7LlDQvBwALvwTggv/hGDOlF6wtCQbvQ381o64WK4J+UwXVCqF4vHjxzFiBHsVcfDgwTAzM0N8fDwCAgI4ln0xMTFwdHRESkoK8VCRjAzlL37r1q2YPXu2oDJ6enqiVatWgi3TDh06hIULF8oUU7a2tujevTvs7OxgYWGB+Ph4+Pr68irgNMnbt2+xdu1a7Nixg/h/VBS5U+/WrZug/OPi4uDi4sKbT1lu3ryJqVOnClIcP336FN26dZO9eysrK+zfvx+Ojo4wMTFBYWEhgoKCsGDBAty797EjnT59OvT19fHLLx9XYHVdH5SRm1uIPkO3sCb8Hds3QdsvGqKgoAjPQhNZA7mU1Rsvo5ZZdfw6pTfnv8JCrjWqPIomYfKkvhOj5+DNeBW0BoaGiruQ1HdiTF9wjLUy/uvU3vhlXFe0sK4rW1XJzS2E55YrWL3xsixeWOQb2PdYg7N/TUVP5y9Y+T4LTsCy9edw6Voo8bqPnsQQw4Wa4t+4E45vXbcIirt+yz+waVFfkKXiIZ8HmDD9kOz34O/aw2P+QLRr2xBVq1ZFVlYe7gfEYPy0gzKBNyE5A90HbELQraXo2L6JLG3mB8WWzCnvxfj51794nwUAlRVFb96JsW7jJezYd4v4P6luAkB3p5a4dmoGYuPeY/fBO9i86wYnjvPXLeDp8T+0sWnIuwUpL68IG7d/FDj+PHgb86b3Jgots6f0wuQJXfE8IhkjJu7lrBJv/20EBvZrj6aEwd73XCDcZhyWCYQWdUXw3uMGx07NWWV7FBSLsb8cZN33sjVnEfI8AYd2TqhUh9T8uvQE/tj9cdLeuKEZvv7KCkZGBoiIekuc0Fy58Rxjpx7EeZ9pnP/atbVEUepuRES+wZAxu4ir8Id3TcCgvnbEetbZvjmKUncjPiEds5cex4V/Pi4MiUyN4LV9HHp1/YLj0+h9Rg76fb+NVV7vPW6yLXAlJSWIepmC7ftvY5fXbVmcvYfvITunAN57Jsj6nYxMxW2oqKgYU+f5YPeBO7xxatVUXSmvrO2K8wowdspBeB9/KCi/gT/uRPgDD6UuAIqLizF9wd+siYT7/P4YN+IbWDUvXe1PfJOBC1dCWIpM/0fRcPnfVjy8vki2RSstI0fhtUxM+K2V0zOyFaYlWToLGccCg+Pw3fAdvItAteTqUlh4MnoM2cyK37NrazSxNMP79Gw8C0kgTh7+N3YPHt9cxNlSWlHockx/FpyArgM3yPpG62bm2LdtLBw7WcHExACFhRIEhcZjgfsp3HvwSpZu+oJj0Nevgl/Gd2Xlpc44bmSkj7zkHYiIfIu5K04RlQ3Tf+6ByeO6onkzc17L+WfBCSxlxmGfB7wKxfM+0/DhQz7+vRuO/43dw/rPoq4I+7aMgfPXLTnpioqKse6PK/DwvCAL+7Z7a6xfMQTtWlvKnndJSQl8Tj7B1HlHZc9WnF2A74Zvw4ZVQzFveh9WvuLsPGI5yyIvb8gj37eqSklJCea7n+KM5yO//wrTfu6ODm0aq+UGpai4WOlik7ER/9g6b/lJljJx5eJBmPFzD9b20oeBMfD84x+Wcqc8J/pWdH8o5fSFpyxl4uDv2mOr5wiWXBOX8B7b9vzLGv/rWSje+qxJWVWexDcZmLnwOEtR6TqgI9q3tYRtqwYoKChGYHAcvLz9KsQq8fSFp1i+7hzR4k6cXcDbD9WSs17U1nxHFZTJNPkFRRg1aT9OnA1UGE+K9/GHsG5eF8vnfYdFK89gw3auIQGJHftuwca6HmZM6qE0ribHFG3MixiGwaoNl1h9uEvPtpg3ozccO1nByEgfIWEJ2L73Nmc3W9k2J08r63oshaIm5TNdoMfwmWfogL59++Lq1dLJ4qJFi7B06VKYmn501MwwDLy8vPDzzz9z0v7999/44YcfOOFv3rxBYGAgAgMDsWnTJuJWYymTJk3C0KFD0bhxY6Snp+PatWtYtYq7BcLKygqRkZEKfegVFxdj4cKF2LRpkyxs1apVWLJkCdGK7P79+3B1deW1iMvLy4Oxcfn8fHh7e2Ps2LEqp9u3bx9++uknVtiiRYs4Vo4WFhZITU1Fv379MG7cOLRu3RrFxcV4/Pgx5s+fT3z2r169grU1/3athw8fok+fPrK0lpaWePDgASwtuWbEHz58gIuLCx4+ZE/Cnjx5gk6dOgHQXX1QiCQZEF8EANwPiIaTS6kVpkVdEa6emMXZLhKfnIEJUw9zhGjrZuZ4GbiGo1yRSErw9PlrPAtJxJmLz4hbN0WmRhBnF8C2VQNMdeuOzl82h6mJIYLDkvDbtqvESYn3HjeMHv4V720xDIPerltZ5fx95fe8FmUAsPL3i6xOW4r8tke3GUdw4C/VlfARD1dytnnY91jLO+maNM4ZQwd1QpOGtfA+KxfXb4Zh5e8XOfGsm5kj4vFqhQpLeWuj/n3a4dThyUR/IOERb9C5z3qWMGVRV4SYoLWyLVCRUW/x9HkC7t5/qVDhoYii1N0q+TvxPv4QY6ccVB5Rjn1bx+CnMV1kv6fNP8ZS9gDAsf0/YcT/HBTmQ1qJ9/tngdItn9duhcNl6EcFse+hX/D9IHti3LsPXqJb/42y3zbW9XD93Bxe/1pJKZmw77qGo8RQtsWpvMjXW7fRTti/jb9/16v9cWHl5OFfMOS79qyxKDe3EEvXnsUWggD0+rmnQv9i4RFvYPuNByc8PeYPQQJOSGgC2ndbI/t99dRs9OnRmhPvbdoH9Bq4mSX43zgzB726cQVwhmEwc9FxjvJ7m+cImZCbnJqFoKevEfgsHpt2XlNr8nLvynx06dxCpTRC267I1Ai/Tv0W3/a0RV0zU0S/TsORv+/j79NPOHGVvX+JpAQTph9ircqvWTYES3/tR4x//MwTjHDbxwob/F17nD06FUCpX58nwa/h9/AV0ZXBwpku8PQgb9N7FZ2KJ8Gvccc/imglsXrpYCyb+x2n/MrGMWX07Noa/579uFjoufUfLF55BkDpBGH/9tGwbMCu5/6Po/HjxH0cxeKUid2UWvgAwKKVp/Hb1o+LII0bmiH+uafKZS+Lrsb0h4Ex6OO6RdZOGjc0g/+1BWjckLso8+FDPvp8v5UzcXtyazE6tW8GQDPjeFFRMTp0Xc1RBihyhyFlwvTDnK112QnbFG4zBoCla85i3eYrst+xwet4rUNWb7wM93XnZL9dB3SEz1433u3c/96JQG/XPzjh8uOjWJyPJ8Gv8TQkAV7efkRliDJI7f/StVAMGME2Ooh5to6zJb6oqBhuM4+wFj0aNzTD/u3jiH23KpSUlCAkNAmBofE4c/EpUeF8/cxs9O7Gvc7pC08xdNxHhe/6Fa5YNKsv77XmLz+JjTtLrVSf+61Q2690RfeHQKlyoXGbRbLfA/va4dThyTAwIG+dvfBPCAaN3AkA2L1pFCZP6EqMp2lZtSwvwpLR0/XjIo6NdT2cOzqFuBiWk1OAZevOEWUSAPBYOBArFg4g/qcK9VrN412E4kPevYE25zuqoIpMs3CWCwb0tYNFbRHeZWTjwpVg1lhVFqfO1jJDl/Ejv8H3g+xh1cQcWTl5uH4rgtXHSbGoK0J8iKdCn4eaHlO0MS+St8qcN+1beHq4cnQ5DMNg8aozvM+wLD27tsaNM7Nk83VNymdMVRH0avyo/EY1TKVUKFpZWSE8PByGhuRVmUePHuM/yNsAACAASURBVMHR0ZEV1rNnT/z7L78mGACCg4PRoQPX54ZIJMKtW7dkSqeynDt3DkOGDOGEX716FX369OGEA6WHrowZMwYnTpyQhZ09exaDBw9WWL7U1FT88MMPuH37Nuc/TSgUk5KSEB0dDXNzc4SFhWHYsGGs/4OCgtC2bVtOuqpVq3L255MUigDg5eWFiRMncsIjIyPRtWtXjsJ0yZIlWLt2LbG8mZmZaNWqFSvNw4cP0blzZ957TExMROPGbAXcyJEj8ddff3HiVlR9UAqPQvHwrgkYO8KRmKSkpARDRu9mWfUAyie3JSUlGOG2n+NLBwB+HuuMHb+P4FgoiMX5GDRqJ2dbgkPHZnj872Lea8lvyZk0zhl//jGaNz5Qqojv/8Muji+Vju2b4ME/C2UD0/MXSfiQmw+L2iLsPXKPs2pWmLKLmD9J0CIpFEWmRrh14VfZIFWWc5eDMWQ0N38+JQhQasnm2PvjJFJkaoS3ERsVrjyTBoy9W0bj57HOnLg799/G9AXHiPl072KDaT/1QCsrC/g9jobHbxeQ+k6s1N8TicQ3GYiJS0NdM1O8iHqDYePZ/sie3lpGFMirVtVj9SHygjAATHXrjp0b+AdBhmHQ9puVnInT+JHf4OCOcQrLff5KMAaPKn1nDh2b4dGNRUSrxoICCey6rGJZHJImU/LIKyGlKFJclhd1FYrKntemndcxb/lJVpgiwUbKgBE7OBO/nRt+xFS37grTAey+oqzSStk1SJY7ZSkpKUHrzh6s92lRV4TE579x+gJ5pWZZGjc0g/vCAfiqQ1NExqRiw7ZrMgvJ0HvuaNumkdJ75IOv7Tp0bIbzx6dxnOgzDIPFK89wtgYBQEbMH7xWx/LvtV/vtrh8YobCspGsM8Pue3AOCPA66o+fZh5hha1YMAAeiwYqzB8ANu+6gbnL2NvJN67+HnOn8U/EFI1jQGlbGDHUATVrGuPSP89li0DDBnfCiYOTZPHKKhTlfXyWJSsrDzZfLedMOoUon7ShUCxLRY3pmZm5aNXZnfUMHt5YhM72/FaaCcnpaNKWnd/I77/CX3tL/VRrahw/dSEI349jj0UnDk7CsMFcGU5KUkomLFsv5IQrkrukzF3mK7PKWzynH9Yt58qEQOnhYVJ/v0Cp8uTFAw+li3jr/7iMJau5E/RXT9bA2qouJ1wszkebrz14t+KtWz4YPbu1Rra4APu978kWJHZtHIkpE9k7kIQoFHNzCzF84l5WXzx8SCfs2zJW4wecMAyDHybu49RvvoXEQSN3suTizNgtqKlga3d2dgFETWYCUNwHqEJF9Yfyrjiu+M5A317cOVxZuvT7Hf6PonFwx3jirhptyqp3H7zEgB+2y5RHTp2tcfXkLKV9KN9CtqYUivcevoSJsSHM65hi+Pi9rN0PrgM64rgX14hJT0+P1Y61Od9RF0Uyze2Lc4lb0/0evYJzvw28efK1O/lFeymKZGBtjCll0cS86G3aB9jYL5PVWZGpEZLDNvD6CpVISmDVYQmnL969aRQsyvhndejUlKU01aR89kUbG50oFHXvxZHA/PnzeZWJANC5c2cMHTqUFXbz5k3iQSNlad++PaysuNsZduzYQVQeAaVbrocPH84JDw/n9+dw5MgRljLR2dlZqTIRKLXwu3btGkaPVtwJqUujRo3QtWtX2NrawsKCO2gaGhrCwMCA8xHq7HP8+PFEZSIAtGrVimjd9+LFC9783N3dWcpEW1tbhcpEoNSC0dmZPYj5+Pjg3bt3nLgVVR/UwaKuCCP+x+/LpUqVKli7hFunbt1TvN28SpUqGDaEe2/WzcyJEw8AEImMsfM3bucU8DSO1/9cekYOps47ygqbPJ68GlqWqlWr4sju8Zzwp8HxOH7mo1VO2zaN8I2DNVpYW0Akt+1AZGoEA4OqxI9Qdvw+kqhMBEoVHsMJzzA8MpkYXyIpwc+z2M/ipzFdlG4F+q43VzDcvu82uUz9yX4hnb9ugUt/z8D3g+zRrq0lpkzshjNHpwAAaqnh+82ygRm6ft0Srb9oQNweZGhIfu7yfYhlAzO49GTfn/fxB5Ao8BV0yy+SaIVxyOe+0m0eT8oIiJ4errx+XTbvusZSPg3+rr2gwwq6ft0SC2e6cMJ/XXJCoT9IXTBvKr+iBgCmTOjGebc3bocpzVd+YgqUCnTKyM8vwt7DH4Uiz+Vkf6SnLgRxFJajflDsZqBKlSoYOYxtcZX6Tky06LJr1xjWBCffFnVFuHnuV/w0pgvs2jXGsMGdcPnEDJlPG1E5/ZDxtd1j+34insipp6eHVUsGEdtf7Guy8/e4hPccJfGkcdyFCXlIY8X+o36cMNLhCAZKts5Kcf2Om1bZ6b584xgAzJ/RB/u3jUXvbq3h0KE5PBYNxKY1pYunfNayw4d0UqhIqFnTBO7zuRPXoFDl24m1TUWN6e6e51gTP9tWDRRO/ACgccPacP6avcDpc/Ix3qWV5qOpcfy73u04Yb5KtvTtP8StxwCwS4BVi//jGFkZ500n96cMw2DaArb/06lu3QTtCFg4qy8cOjbjhK/ZfJkbGaXvc0Bfsg/Vs0enYvGc79DZvjl6dfsCR/+cKPMjXaum6jJAekYO+gzdwuqL/1g7HH97/ayV05L19PSI9duIp395FpIg+964oZlCZSIAmJoawca69JAGg3IqcKRUVH8YFs6WOb+wUX4SdEe70q3IJGWVNmXVwkIJho3/k2Uxt2bZEKXKRAAY84MjntziN14oL86OLfFlh6Zo1rgOqldn36uBfhViH1S2HWt7vqMufDLN0T/5/Vx26dwCy+dxrWGB0gPo+HYD9enRmihThEe95S2fNsaUsmhiXvTngbusOjt8yJcKDx7S16+C2dO4rsdsWljgfwM7yj5llYnals8qikqlUFy5ciXWrFmDkSOVbyP58UeuMJSenq40Xa1a3C0QypR9s2bN4oTFxcUR40okEs4hHcuWLVNaLikGBgbo3r274PiVCdI7Kcvo0aMhErEnQS9fviTG/fDhA7Zv384KI211JyGvbAb4/UNquz6oSttWjbB/21js2zJGqS+jdm0tZYKQFGW+WACgGsGXy8jvv1J4PdvWDTkKIAB4l0a+nsdv51mdcMf2TRT6VCmLRV0RUWEnRNDXFIP7KT64ZdaUXpywuIT3xLj3Hr7kOJAfpWBbmRSRyJhzgEzoi0Si0s3UhDzA7ftjDEcY/MbBGimRG/Ho1lKlZdAmQwexBWdxdgEeP43ljc+37QUoPa2ND4mkBId8Sv2adP7Sitc/zevEdI5VCMkalI8xw7lWLQnJGfj3rnKfshXBqcOTsc1zhNItXdWqGeIHV3b7E7IdyKVnG86hF2GRb3A/QPEBMD6nAmR+cQb2teP1Ayh/aMPAvnZoIMDn1SDCYSUvIpKIcWsQJthrlw3hKJvM65gi1H8F4p+vh2WDmkrLoAhS2+38pRXREkmKoaE+5kzlCq18fZC8Xx+RqRG++1axJQtQOtESyQnPoWHcZ1edMKYI9R9KmlAaGyv3u0YaxyzqirCOoJD+dWpvxD9fzzkp9YfBX2LT2mFY9it5AlWW/xGs3dJ4xr+KRttj+ocP+di+9zYrTGjfOHQg1zolKobs2kddTEwMMPJ79pjqey5QdjCJPLm5hdi0k+wL7NGTGDx/Qe4fgNLtqdItd7Mn9+L1Q3j64lPOIR2jhileEJdSpUoVTPz/0+XLomjxrIaIq8wb+f1XHBmiatWqOO41CfHP1yuVc+SJS3gP5+82yLY+WtQV4e7leZg9pZdWDyEj1W9jA3LdLmsZlJCcofRkbgBYOLsvViwYADM1FllJVFR/mPw2i/V7z4E7KChQbFjzv4EdsWLBALQljLPalFX/Pv2EJUd0/tIK3Z2EHd4CAJ3aN+OMRZWFyjzfIck0rv0VHyg2bBB5sY40BpZlOmE3Skwc15gHqJgxRRPzouDn7PZgqcD1j5Se37TihEUoUKxqWz6rKCqVQrFz585YunQpatRQ7CwWAOrW5Qrb79+ThWlFdO/eHTVrKp4QODhw/XolJ5OtkU6ePImYGPb+/m+/VWwR8rnQtaviFZnq1atznmVCQgIxrtSXZln4TvKWp1Ej7vYzoQo/TdcHValRwxhuo50wSKCg11BuMquqHxApvbor93nT5WvuylQaYVWopOSjAkeKMh938oz8nit4P3oSg+gY8uCkSbp3sVG6qu3QoRknLPlNJjHuyXNBnLBW1spXkgGgcSOuH5HEN8oPFgJKt6/J+4uUYlFXJEgZo036Ek6uvHglhBCz9LRB6TamKRO7cQZRvkNiAOD/2DvvsCaSN45/kRJaRJAiCEhRVKqonHoq9t717HinYu/trGfX+9lOPXvvep5dsZ8Fe0GKICpIk6p0DAQCIfz+QCKb3SSbEJrO53l4HjI7uzvZzM68885bjp5+Jl5kzGXYOSzhOkOcJvcm7IRCAHBytIAjg5D+z/mXDLUrnoF93FkFyAYAE2PquBKXIH+zTkOjBiZ70+eA/Udl75huLaUonCPFzTU+KYMSjBsAXBzZuRmbMSj8oj/K/z4lDJSSzdfAQAdWFkaMMZHLChthsnUL+piazDAeA8Dx09TxuFEDc7kbVkDxb2ouEYdOlmBcGh0ZSRPkwdFS7pl6j2wt1QLMysKIZqFoa2OMOZM7w8WZHpNZEhMGxVFqetVQKDKhyjn91n26J4ljI3ax5uoyLMBipFjSlgUmmcn3CfNmzumLr8QKgMUMoRwOnZIe13Hlxm8xlMePlr4A/lcizqmDvRmMa+tLqU2nfx+6pRoAWpgbWXgxbHIBxdZpVhZGCiVMefA0HK6tv4Ucad3CHgEP/0DblvRENBWBtBiUkpbbA3/dg5ETDiLhM7N8BgBjR/6MFQv7lIuFZQnlMR5K9qf1f99Cq+7rEfSaeV0FAB3aNMSKhX0Yx7zyklULCwux9i+qde2oIeyU61Wd6rbe6ejZWO5735hhbHd3s5a7ZmDqU5+TvzDWraw5RdF1UfAb6ruUkyM/znadunSZsyZX+mZFZchn5UGVyvIsi4yMDISGhuL169cIDAykZPMtgY2FoiR16jB3rNJoamqKE47I484darYzR0fHct25qypwuVxWMR6trdkt0P396e4qhYWFyMzMhL6+vswEKMpm+wZU3x9USWFhISKjUhHyPgHBb+Lh/zqWFgOJyeybDaZG8pVL1gwCA5N31JvQBFogYIs68jcJStO1A7PyOPJjqkzLHVVQR072O6A4hpOpCZeVAvcZQzaxL/w8FBUVQU9PS2ZIAT2GiT8znQ9ICQBfmo5t6btkVQkrCyO4u1lT4gCeufQKfy6jWxhtP/BNYbhgVnfU5GpT4pK9DUvCi4BoRneJw1+D/puacNGfwZ2oBElrEoDde1Ga0SNaY/5yqutCaZeP0xf8MGHWcYWu2bK5HW5fYJd1XlnikzLw5m0Cgt7EI/B1LM0lmJctQGFhoVzl2a8jfqZZeR459RSb1wxmdDd97h8ltohwd7OWarEQEkrfsNHS1EBaRg70dTkyYw3patEXcmwVQe5u1mXOhKoMbMYgC1O6dT3TeJyVlUvLwF3LQAfJKTzo63Ggo6MpU0bRk1DeS4vTJgkbgVjV57ZuqVhyHFnk5RXgfdgnBL9LQFBILF4FfaTVSU1Tbr6tCFQ5p/szfPfCQhEyM/nQ19eW6cbL5K4pL0SFMjDJDFdvBaOHxMZVUVER1m+9CaBYybdqUR/cuBtKmYcOHH+MNUv60xbemZl8cdD8Eb/8xJg4ACiW1W7epY6h9ayY60qjjnFN9OjsTBuLI6I+SzmDTsvmqslCvn0vNUOwu5s17l+Zq1AYGVWjLuXe7i71aDHpTp17iVPnXsLD3QZ9erihRTNbNHG2LFNWZ0Upj/HQqTFdARP4OhbuHdbAysIQv/RrijYtG6CJsxVsbWrLXYuWl6waG5dBCSUDsLP0qg5Ut/WOqbF8eYZpPK9jwu47OTY0p4QmEkmJYlRZc4qi6yLJTdqwSPnjb1ER/T2rb093PQcqTz4rD6qsQjEjIwM+Pj549uwZ7t27J9VltTR5eXkK30dPj91ioUGDBqwUSO/fv6d8lpXB+HtCnlVfCWwVihEREbSynj2pbkkl7tM6OjrimJtZWVmMmZvZJrRRdX8oK8/9o3DH9z2evojE4+cf5GYh5efmK3Ufabu9pZG0hpRGGIPpuamJYm6BOjqa8HC3oQRHBoDYeMWtkBVFT5edW0UDO1NWCkWmbJp1G82nfObqc6Dz1U2Go6kBQYFQ6rXZus6Ymikm1FQGg/o0pTyfyJhUhH/4DIcG31z50zNyxBaIo0f8jHqWRhg7ojUtk9rBY09oCsWIyGSxe9b8Gd1kLoAkdyK5+hyFMmADgBvDDu3bUu61W/fcUziTMJMlWlmJjErBjbtv8ORFBO49CmPVj/PzRdDRkb2ArGtWC0P6N8MZifhlp869xNRx7Wn19x7+tjH4u4zkKkxuMyvW+2DF+m8ZEkusVnV0tMD56g6X+YXP+LzlxegrwdJcdpbY8kJXiqtOaczrsBtTYxncoP/zfQezhvMoZSVjUMmzkzYGVVW3MwAwY6GIlUZBQSFu3g3Fk+cR8H36gZZJkon8/KoVH7U0qpzTIxgsZXoOoSb0UuT9Y9M2RTGspYuOno0pWVbPXfHH9vVDKYqQuw/fi5Ubi2b3gLq6OqZ6t6ck0eBlC3DxWiDNRfnS9dfi/5nCnpTwKZVH+97K9E13VyuaQlFy8SkLaTFDFWWLRLiRwNexeOoXKTUOW2Uya3IHmkKxBL/AGIpMaW9jjAG93NGjqzM6tGlY7Yw/fhvRCgtXXGA8FpeYgS27vymCufocDOrbDD27OKNXFxdGK7XyklWj4+h9tq5F5cytqqa6rXfYrm8kDSb0WcS6BIB6VrVZZZyvrDlF0XVRfXszynvxwj8aeXkFMu/3XiKevr2NMX5iiIkLfF/yWZVTKIaFhWHnzp20+HlAsQKpR48eaN68OTQ0NDBnzpwKaxeHw+5HCg6muiMwuWb/yMhKtlMaPl/+bkOJ4pBJgQgU9xdbW1vY29szZq8uC2z7gzIIBEKcvRyAzbv/Y5zgPdxt0KalPdxdrbFu601Wg7dcasgXpNhmHEtNo1v/5OUxxzKShY11bdoE+1lJl+7ygMNh7y4kD162QKaiydSEC9t6JrC3MYYJy111EyP27lWVRZ8uzvhjzSVK2dU7IZhTSqF46OQ397O5k4tdlh0amKF9GweKhe7+Y4+wceUgirv66Uvf3M7GjPhZZlskdyIVVfwBYHQJKbHue/suiZWSQpLxY+QH92bL/cdh+HvPXVwutTAuwd7GGB09G8Pd1QqPn0fg1DnlXLUnjW1HUyjuOuhLUyimZeTgyKmnAIr796A+0uP68KXEQitNye8l63dzsDeDva0JurRnFz7DpHblhgWQBVuLlxwBu00meWOQlYUh7O1M0NSVfRiAisbIQHFr0rSMHBw4/hibd/7HKKD36OyMFs1s4OJoiUG/7VFFMysGFc7pbDYq5b1/XH0ObOqZoL6tCZzlxHFVloG9m1AUiskpPAQEx6F5k3riss07i72ITE24GD6oOHzN4L7NaFl59x55SFMoHv9qndiiuZ3UBSIAZKTm0Mpy+Ipv9tZl2ND4lMxOBipv67v2vf/Cy3sL4dFENVaQqqJ7J2ecOTwBQ8bsk1s3MiYVm3b+h007/0O/nm44tP23SrFIV5Y6xjUR/HApeg3bIdcyiZctwJFTT3Hk1FM42Jvh/JGJcHZiFzZE8jqKyqrRH+lKE2XG6qrI97reMTbSp8yHbHXtWizDlVTWnKLouqj1T/aUdXhyCg+7Dj/AnMnSwyf9teM/yue1SwdIte79nuSzKqVQvHHjBs0KDQCWL1+OPn36oEmTJmKXq7CwsApVKLJBKBTSlFsJCYoHyBQIFF/Ifm/k5ubSynbt2gUXF3o2P6DYDVlHRwccDgc6OjowMDBgbTVZlcjNLcCAUXtoO6xtW9XH9Akd0dGzEWqXEnhu33+rGoWiCknLoAvTn5OzGGrKxpJhB9OwjBlVK5qCAmYLlkc3fmcsV1NTg5ZWDehoakFbWxPaupqoXUuftVUi9VpVKkQuIy5f3Y5KCy4XrgSIJ+uCgkJs3F4cPL9Pd1eKADxxtCfN5f/M5VfiwM4ikQhHviojvb1ay1woCIUixsk6J0fAKgthCXUYrMa4+hyoq6vjJYOLhzwmjfGEhalqxrGV632wYv1VSpmVhSEWz+2JLu0aU1xrtLQ0lFYotvu5ARzszSguTiXJWX72+GZteeLf5+L/f5/eVaaCLDePLnRNGuOJkVLiMGlo1IC2hiZ0dDShpa0Jrh4HtY30FLZAqWYGK4wwBel3d7PGtnVDGevXqKEGjpY6dLS0oK2tBW09TZgacRW21q0M1NQV+8GiY1LRrvcm2mJ87MjWGP6LB1r/VJ8y9nL1OUptNFR3mN6/XZtGwEWKQkJTUx26WprgcDTB0dFELa6O3LjEqqB7R3pc3mu3QsQKxXfvk8QWfwtmdRcrVGvW1MakMZ7Yc/ih+LxHzyLwPixJnCQqOiZVrKycNk52LNoMHn1DXDKBBhss6tBloNqG7KwOOVKSlihD6xb2Ykv/0nTquwVPrs9nFYO0Ihncrxle3F2ENRuvsY45efn6azT2W47ntxbCliEzblXFxdkSL+4vwdLVF3Hm0itW41N45Ge4tF2Fq6enoVfX4jVVecqqTH0/Of0L7Gyrz3OWxve63lGVdbM0KmtOUXRdNOk3T1qM9hX/uwI3R0t0akdN8CgSifDXzru4Vioe++zJnTB0QHOp1y8P+YwhakmFUGUUinfu3KEpE728vLBlyxYYG1ePQUdDQwNcLpeiVAwNpQcelUdmpvTgwT8KtWvTY8TVqVMHbdq0qYTWVAx5eQUY9BtVmcjV5+DfQxNpcYCqMrVq0gf5hCTFJ1hDQ/pOkinLOB5VBU1NdcZFqIOdWYXG76mqqKmpYcQvP1EyOD95EYmUVB5MjLm4cDVQrGxcOLs75dx+PZrQnu3uww/FCsWHzyLE7mHjfpM9bkhTlnxO5sHOlr1C0bAWXWlZEjTZ26s1vBkyd1YEqzZeoykTN63+BdPHdyhTbCcmatSogWnjO2DGwtOU8v1HH4sViiKRCNv33RMf8/aS/fvUZlAGa2trok0L1cXM+14xYshcKsgr+OGf3cf4dJoy0d3NGid2jYEjQ2yyH5naDHNxHdOaVa4P2duZ0GJ4nbn0CssX9AbwLRYvV5+D8RJjjveoNhSFIgAc+ecZ1q0ozgx+7Mxz8bkDe0uPxQsAXB16iJ3oj4onWDAyoo97ZXHrV5ajO8dg8+472HXQl1LOyxagdc8NeOjzO5q4WVV4u2Txk7sNrpyaioxMPq7/F4Kzl/0ZLfNLk5zCw7q/b2LvFq8KaqVqMDfh4sC2X7Fr0wj4PvmA81f88c/5l3KVizMXnkb3To5QV1cvV1nVnMHNNDIqBS2b2bG+hrRN38rme13vqNIDi4nqMqc4OVrg/NFJFO8EXrYAnQdswaQxnujS3hEWFgaIjErBoZPPKBbyKxf1xeLZ9KRfpfme5LMqseXM5/MxcOBASlnr1q1x6NChaqNMLMHV1ZXyOT4+nnVCkBKUSS7zvVG/Pv1lksye/b2xfb8vLV5OdVMmAoC1JT34uDKp7DMy6K4EtvUUC2xeFahvb0Yri6mAWJDVhZId8tLculc8KZe4DrRuYU+xbgOK485MGdueUhb4Ohb+r2MAAIdOFFsnOjY0ZyW4ujjRrSwiGGL3ySIzi26Z0rAB/fevSJ77R2H5/65QyhbN7oG5U7uoXJlYwsjBP9HKjpx6ivSvu/n3H4WLlb2zJ3eSuxtuY03fYPoQWbFJsaorVgzj8duwJIikRUtXEYWF7K4vLCrfdkhj8pyTFGUiV5+DSyenEGUiA/UZEgNElUOmZlUwuF8zyue3YUmIjklFSioPuw89AADMndoFXC5V6de8ST24u1HdxXYd8kVeXgGEQpFYmTZuVBu5WVKtrOnvXHIKD1lZdM8bWWRk0OcTe5uKD6NUQ6MGdmwYhnlTu9CO8bIF8OyzkTFpUVXAsJYuRg5ugUsnpiA3cQceXp+HFQv7SI1NfOM/5viLZaUixkMtLQ107dAYe7d4ITNmK4IfLsX29cPQp7srY/3ImFTEl1J+lZesamtNX8cruib4wlPs3akoyHpHOarTnDKwjzvOHJ5Ai0+45/BDDPptD1p1WQ+viYfEysQWze3w5NZ8LPu9l1zPjsqSz8qDKqFQvHbtGs1VeNmyZdDUVH3gZlVRxJQKD8XJOiTZt09+LI/SPHnyRH6lckDadyprXWWws6MrAAICAsr1nmVBFc/jwDFq5nIPd5uKUyaKlGs/0/e2YRgg/QJjEB2rmGASn0i11OXqc9DEuWrtgpdGWhdoaG9KK3sdEsdQswz3VunVlEeZ16BtS/qYeeVGEJ68jBTHlJk9hTleyejhrWhlh048Q0YmH8e/utROn9CRVTvq29IFnHOX6dnmZfGJwbWnR2fVxm9VlJNn6K7L86dLT4CiCowM9TB2JN0a85/zfgCK45OVMG2c/N/HjmFB4hcYA6Gw+gldkqjy3WUaj2vV0mUM1B3+gX22WGXIYFCuM5H6+YvqbspyHkv4nEnbvJs+oSOsyyPzaGUNziqc0+0YlFgBDPGdqwI9utLH2xt33+DA8W/ylfevzBbRU8a2o3zmZQvgcyuYkrjKe6R8Lxkmi2oAuHqbnfttCYmf6N5KnT0bMdRE+fYzURHU1NSwcfUvWDqPHpaKly1Ax75/4UVAdDk2gt4mJsLCPyHodRzy8+muhNrammjbsgGWz++Nxzfm48KxSbSxMS4xA4WFqk+2VB7jYXxSBoJex4k36kpTo0YNuDhbYtr4DrhyaipCHi2D41f3/dIkJH3bVCkvWbUew5pgYap2JAAAIABJREFU10Ff8HjsE6kGBFfN8eZ7Xe+IRNR3QNVL/oqYU1TZ5MH9miEuZD0WzepOO8bV56BL+8ZYNKs7Xt1fhOe3F9AMIKRRWfJZeVAlFIphYWG0Mnmurfn5ymWzlcwErWy8QqGQPlkBzFmd165di5wc+oDPRGBgIJ4/fy6/YjmgiEa8oIAadDYrS3ETb0B6QhUbGxta2alTp/D27Vul7iON8u4PbCkoKKTEHAOAnl3kKyKY4i+wuRebMjYwLejtbOlCCQBc8FFMIRz6npopa0j/5uIYqqpEIBFAWcAgiLJBKGUHuoEd/Xms3nBNqcDNUu8tpP9+gnzVXZ8tyuyqcTgaGNKfalVy9rI/Vm+4DqA4yHff7m6M5zZqaI62rajWzLsO+mJfKeW8rPglpXFnCGZ8+sJLhX6nD9F0qzmmuF6qgG2/ffOOulveuoU9asmxCGRajCnKhDFtaWXb9t5DfFIGzn5V1A7u14xVHCVrK2aLnyP/PC1zO0ujqrFAEVT57kqzgnFsRI9LtPqv60rdgwmmQOwZ6exknnsScVDZUpZ5LJIhw2SHtg1lnqOsxUB+AbUPZX5hp1hQhPKe020YFPqnzr3Eu/dVK34zADR3s6Yt0E6de4mte4pDLIz45SdYmjMrjgf3bUYr23P4EQ5+VUa2aG4HJ5bB/9u3oWdALtlQYYukTGhlYSj1/qrqZ/L60qrF/bB6ST9aHV62AC07r8NTP3qsxbKiSP8e7L0f7h3WIClZvmJuQG937Ns6ilYuLYECWypqPNyy8w7cO6zBrXvy10XOTnVx4/xMWjmnVFvLS1Zlmr952QLsP/6Y9TV2HXxQpjYoizxFWlVf7ygr00i+X3kC5fpAAYN8A1TMnKLqdVHI+wQc/BqXnavPgd+9xShK34svsdtw+8Is/LlsAJq52Sh83fKWzyqKKqFQ/PyZromVlQ1YKBTi99+ZA8XKQ1Lxo6wCSZpCs2/fvrQyHo+HZcuWybVi+/LlCyZOnKhUe1RBYmKi/EpfkVQoqhpPT0+YmtIH6j/++EOl9ynv/sCWFAZzdw5H9mTy4Gm4eGGuCEwDvEDZyaKIPjnp63Mwxbs9rfzoafaK8uCQOFqyGSZ3GyZ42QKFdj4lF1DKKGkB6UoYpkVKXGIGDiggTMm9N8OOurK/aVlI+Kxc/Nf+vegZfktiic6e0hmamtLfBaa+tnDFBQDAsIHNWQeX/m0E3dqRly3AnQfvGGozU5IFtASvIS3KLcA7236bKBHPR1dHtrteUgoPK9b7lK1xAFo0taW5kYdHfsaoiYfEn2dN6cTqWnp6HJorIwAsWXMJfCWyp0pDVWOBIqjy3c2Xssj+bVhLWtmpcy8R9Fo1ltJMC/B7j+gbxZKkpPKw7H+XlbpnWeYxpmzOOnLei/9tvaVUDK+CCrCiLe853bNVfcY4akv+VO63Y4Oi83gJ6urqGD6IGnLhyYtI8W8+dXx7qecaGOhg0hhPStm9h+/EWevHjvyZdTuY5qVrt0MYs8IykZ8vxEEJGWH5wj5SE0upqp+x6Ut/zO2Jv9YOZjy/dbcNuP9Y/ruv6jaVwM8p7jMFLMfuzu0aUz47NjRXOHmXJBU1HuZ+VRaxnaesLQzhIOHWbF33WziR8pJVtbQ0GOfvFeuu4EOE/NAlZy/74+LVwDK1QVli5FgaVvZ6Rx7KyjT5+RIKRSWVygIpWYwrYk5RpWx17koA2vbYKJ5Hnt1cKE72VVbKWz6rKKqEQpEpAUdISAhDzWLl3KhRo3Dr1i3aMXlKrqKiIiQlUV/aT58+KdDSb6SlMQ8yrq6uGDFiBK188+bNGD9+vNQ2Jicno0OHDvDzY97BVLWLMdOE5+vry/r85GTqJMDj8cDnK7cjymS9qa2tjaVLl9LKL168iEOHDtHKpZGeni5VUVoR/YEttfTpgX39AqWbf9++/w59hu2glUtOAkwwuUekZrLbPZUkI4NZ4J/0G906KSQ0nrVQcPj0M8rn8b+2FWdblKRGDbrw9/DZB1b3KSoqQpKEEuyTEhnaACBVyg60i7MlBvSmK8wWr76Il19detkQHZuGbCkL2sw0+ruXwnLhoixMz10y6zJbunZ0lHrMm8F1tjQlyVmY8BpCn6ilYW1hyCj0Llvnw8raJzE5i9a/l//em/X9FUGRfmtiTA1+/fxVlNTvExGZjG4DtzIqXJh2e+UxcyLdnbmkj7RobsfaLQQAFs+iB7dOTuFh1uIzrIXd/HyhVFcSVY4FiqDKdzdTyjj+27BWjML7hDknFNoEePsuUaosYiXhLuwXGCMzrlp0bBra9NiodKD9ssxjhgb0TYZAKe5WIpEIG7f/hz/WXKIdE7CYb5NTqJZSvGyBSpXgQPnP6dramlg6rxet/OLVQBw6yd5KOD0jR2p/K8s8Lom0mHHubtZyx5yxo6QrDQcyzOPS6NfDjfGdW7uZneXJtdshlHfDwd4Mvw6VPp+pqp+x7UtzJnfG7r9GMl6jY9/NOHdFdSGKFOnfvBzB1+PsxtCkJGp//KVvUwVbx0xFjIclCkW280VhYSFljmvR3A4mxt/6aHnKqisX9KHV42UL0KzjGpnXPnD8MYaMkRY2TPV+/poa1M1rv8AYfEqVbe1akesdRSiLTPPpM7XeJwaZkA0pqcx9syLmFFXJVo9fRGDw6L3iz/Y2xqwt1dlQEfJZRVAlFIpM8fKmTJlCUzS9fv0azZs3x+nTp2n1AdCUQ5KEh4fTXGwfPXrE2h25NM+fP5dqzbZs2TLG8oMHD6J79+64d++eOEZHQUEBLly4gFatWoljBHbpQt+ZUHUnqVuXbmK7fv167N27FzExMYiIiMDixYsxdOhQ2vMpKipiVD6+ePGCVsaGwEDmQXfs2LHgcukvmbe3N4YOHSoz2U12djb+/PNP1K5dG/3792esU1H9gQ26ulq0AeXi1UCclzCbz88XYvn/rqDboK2MgsdHFgGUHz+PoJU9fKqc4O4nRRBwcbbE6BF0wfy3KYcRFS078O6roI+UrL+ODc2xeQ3zbjgA1LOkb0iMnX4U126H4FPqF7wK+ohfJx/GSokstwDwISKZ9hwfPYtATo7iv+WLV1FSd/+WzKXH3eBlC9Ci0//wvy3XZcaC+xifjnEzjsGuyWL8KWUx8pwhdtFdBSzrlKHu1+zFpVn/9y3sPfIQ0bFpiIhMxuLVlzB07D65z7O2oR6ji5i3V2uKwMuEjo4mJv7mSSsviWuiCEwKwMDXsVgqZ9e0sLAQC5adp5Qd3+ON+gwxiVSBIv22gYRFAi9bgAUrztNcOM9e9kcDj6UICY1nvOcnJWLdDWFQ0JagaBzHJm5WjIqC/cce4acu6/A+TPr8X1hYiNMX/ODYcjkatliGjEy6oKnKsUARVPnuPnnJHMNMV1cLixgUsn6BMWjssQw+N2XHdnvuH4UOff+CU+uVuHmX2b2uVzd6cqWOff/C7fvU78Ln52PTjttwa7OS5tJZApsEBmWZx2ys6HPG4tUXadYyKak89PfajfnLzzEK/PGJshPuFRUVwfcJfZNF1bHmKmJOHzuyNePGjff0oxg6dh/jO1VCdrYAazffQG37ORgwYjdjnbLM45J0aMPsvj5nsnyrH48mdMtqAOjX0w3GtemZSaWhpaWBjSt/oZVv3X0XV2/Jft/SMnLwx1rqnHPx2CSplvqq7GeK9KVJYzxxeMdoxmODR+/FinU+KgmfoUibSjbDzlx4Jfe6IpEI67Z9M07h6nPgzaAcUoaKGA8zvipVz156xWpT7eCJp5Q5bvl8urxTXrJq40bmGMWgEC+59l87/0NSKaVVdEwqZi76F+NnHgfAnLxPpGScWFkwJVkZPnY/nvpFIiWVh2u3Q9D9l+24cuNbxvCKXO8ogrIyTXxSBiVhGVCsIE1jUOzLIzzyMzKlzA3lPaeoSrb65xzV0CsyJhVzlpzB4xcRiIlLQ3pGDpJSeIhLTEdUdCrCP3xG6NtEBIfEIeh1HMLCP8lMyFUR8llFoFZUmerMr0RGRjJm9TU1NcWsWbNgbGyMJ0+e4OjRowCAxYsX45dffkHTptSdJA8PD/j6+kJXl777nJCQgKFDhzImPPH29saOHTugra1NO1ZCp06dcO/ePdp5O3fuBIdDfyH+97//YfHixVKvV/L9Slv6mZqa4ubNm3j27BmmTp1KqXvw4EGMHj26zLE9ShAKhayT3gQEBMDdvXjXKjc3F/Pnz8eOHXTrOA8PD1y8eJFRWVnC2rVraW7LHh4euHTpEiws6Br/R48eoVevXoyxFk1NTTFw4EC4uLjA2dkZ5ubmSEpKwo0bN7Bz507xOatXr6bds6L7g0yEiQDvKsbNOIaDJ+jtGTawOTq0bYT0zBwcOPoIkTGpcLA3w9lD47F2yw2xO04JF45NYtxlFIlEOPLPc3hPP0o7xtXn4Ob5mTJ37x89/wDPnpto592+OIsxi25eXgHa992MF6+o2blNTbi4fGoK4zkhb+LRuucG8SRob2OM/y7NgS1DltcSXgV9hEfHP6UeL33f2OB14HCKM9vGJ2Vg2Nj9ePKCHvPH26s1dmwYDm1t6e9Ip/5bxVm9Sp+3c+MI8T1Ks33ffcxYyLwZ4uJkiW7tG8PFyRKOjczB1eUgIiYFF3wCcejktz7x4No8eLaiJjF56heJAV67Ga3K9mweiYmj6co2VSAUiqBpOplV3cD7f6CJm+wA03/vuYtZi88ofB4AvHufBMefV1DKpo3vgO3rh7FqX2kuXQvCgFF0AWWKd3tsWDEQenrU91skEmHSnFPYXypu48pFfbHsd/ruqypQtN+eOPMSoyYdpNX1cLfBr8NaQk1NDeeu+IstB88cnoD0jBxMmnOSUn/25E7YtPoXheegGQv/wfZ9vpQyKwtDRAX9KTcDniQJnzPRtf9WmntQCV5DWsDVyQrOjS1gX88YX3Ly8PDZBxw89lh8Tvs2Drh/ZS7lvLKOBcpSlndX2vu3b6sXxo1qQ3PbEwiEGD31ME5LWWj36OyMFs1s4NS4Lhp9VUIHhSbgxJkX4vADXH0OPgavYwwjIO29KTmviYsVRKIiyjP2cLfB3s0j0bTDWkr9fj3dcPrAeMZnXtZ5DCh+do1+WirONF6aeVO7oFFDc3yI/FycOCBbgF5dXXBk52jYuS+mLNC4+hwEPVjGGAc0N7cA81ecx47992nHPNxtcOHEJKmx/NhS0XP6o+cf0GvIdsbNTFMTLgb2doeLY104O9aFuYkBklKycPO/N9hx4L74nFWL+zEm9lB2HpdGf69duHz926Kfq89BcvhfrN7jfUcfYeLsE5Sys0cmKmW9NmfJGWwppTAo4eD23zB6eEvaeJqRyUenAVsoFrM3zk5H907MMbVV1c/K0pfOXvaXakXmYG+Gpb/3hteQnxiPq7JNmZl8GNrNFn8e0Nsdfy7px2jtlZ6RgyVrLmHP4W8Jwl7dX6RUDDQmKmI8bNphrbifODY0x7Z1w9DRsyFt7M/PF+LQyaeYPPfbnL7/71EYN4o5V0F5yaoxcWno3G8z47hbQomCqfQYM2tyJ2xc+QuM7GZRyh0bmuPR9d9hJCUJkjJs3n0Hc5eclVtvcL9mOHN4gvhzRa132KKsTPMp9Qt+nXAI//nSFW8jfvkJ+7Z40WTg0kiOuyXn7d86Crq69LAi5TWnqHJdNHzcfqlykyL06e6K3VtGMhpjqFI+q1XbDGo1h5e5vYpSJRSKADBhwgTs379fZh0ul4sLFy6gc+fOePToETw9GaxSuFx4eHhgwYIF6Nq1K1atWoX9+/cjPp7Z6qL0eba2tli0aBGGDaMvQpkUSCW4urri8uXLtEQi165dw/Dhw6UmHilN06ZN4ePjAwsLC6xevVqqlWPTpk3h6emJLVu2yL2mPDZt2iQ3FuWxY8cwatQo+Pj4YN68eQgPl+/S6ODggH79+mHDhg20Y0wKxRLs7OywdetW9OlDNY0PDg5Gly5daG7WbBgyZAj27t2LWrWKX+DK7A9S+apQjIpOhX2zJXKrjxraEjs3DAeXq82o1AKKJ303p7o4vmcsomPTMOi3PVJdukpjZWEIezsT3Lk4ixYQmGnxUYKpCRdTxrbH8gXUHc/E5Cz0H76L0eqhW0dnDBnQDJYWhoiKScHt+28pLgLdOjrj1P6xrISFnkO207J2loarz8GT6/Ph4myJlRuu4uCxx7QdOKZzbOqZYPHs7hg20IN2XNqzB4qf/+WTU2iCwekLfhg+7oDc78PE8vm9sWLht3ej55DtePz8g1wXGVMTLmzrmeDg1lEqNdMHgE07buN3Ccs8SY7tHsO4My3Jh4hkOPz0LcyBh7sNXt5dxLotbXpsoAhPT27NV8iltjS7Dz3AlHmnaOVcfQ7mTu0CVydLqKvXwNMXkfC5FUxRcJ05PIHRdbqsKNtvhUIRnFqtkGr9UIK7mzXOHpwAezsTrPnrOpaupVtlWlkYwrFRXRzcOYpRKGIi5E08XD1XU8p2bBiOqePaszpfkoxMPvqN3IlHz+hWK/LwcLfBoW2/wtmpeNNLVWOBoqji3ZWn0O/W0Rk3z02nlBUWFmLesvMUiwi2mJpwsWvTCAzqw6xUKSgoRIe+fzEuYJjo19MNJ/d642NsGpxar2SsY29jjPp2dXBkz2/I5ReoZB4r4eTZF/CaKD98yl9rBmPWpI4QiSD1ebduYY8Bvd0xd2oX+NwMxryl5+S+b0CxsqVfTzdsWDlIbt3SVOacHvImHp0HMYdFkMeQ/s2wd7OX1KRQiszj8jh88inGllJELZrdA38uZfZWkURSMQUAOfHbGRfE8hAKRRg/6ziOnKK78TnYm2GKdzs41K+D9Ixs3H8UBp9bweJna29jjEvHp4jHq9Koqp+pqi89fPYBvYcyKwYAoCh9L2M5E8q2KTIqFQ1b0NdO7ds4oG3L+rCyNEJenhBvwxIpikQAeHxzPlr/pJy8wER5j4d1jGuipvUM2vN2sDdD3+6usKlnDA2NGoiOScWpcy8pc9yWtUMwa7Ls+MWqlFVLk5WVi/GzjrOO/75z43BM8W6PgoJCaJlNYaxjasKFc2NLrF8xoMxx7bKycuHw01KZ45uLkyUe+syljWMVtd6RhbIyzaYdt7Ftzz255wHF33/mxI7w9qKHI2JSKJbg2NAc549MpCn4VTmnlMe66OqtYPQZvlPhtjHhYG+G14+WMipzVSWfFalzK0WhKHuLrwLZunUrMjMzcfYs885Aly5dcPToUZibF3fEQoZgm0BxLL979+7By8sLAPDmzRu5yqOS84KDgxEZqXiGsuDgYEaX5F69eiE4OBgzZsyAj4/0IPf9+vXDyZMnoadXPJDI0vEGBAQwxpxUhhkzZiAtLQ3r1q1jPL5582aMGlWcAS0+Pp6VMhEodiX291c8WUhUVBSys+nxDVxdXeHn54eNGzfi6NGjrBS0Q4YMwR9//AEXF6qZfGX2B3nY2Rrjv4uzMHDUbqmD4eEdozG6VPIIaTE5Q0Lj8flrrIwcXh4rwQwoDsAcl5iBoiLFglInp/CQ+Ike68HC1ABPby3Atv33aLt+t+69Ee+slMbFyRJrFvdFn+6urINj798+ClPnnpI6kd08P1O8CAl9l8hq0uRlCxASGo+IaHpGUHmEhMYDDO4YwwZ6wNrKCFt33WUtUC2Y2Q1zpnShudyxmTSB4t8mOYWH9C/KxdSSxYwJHZGenoP/bb3JePyvtYNZKRMBoEF9UzjYm4kXSJPGtlOoLZPHthML71YWhmjVnL4jrMi1OrZpCO+ZxygLAl62ACukuNzNntwJ82Z2g4WpgdL3lYWy/VZDowZunp2B3sN3SLXsmz25E/63bKDY6keai1XJ+MDn5QNmjFVouDhbonULe/Fz5OpzZMYCk4dhLV3cPDsTm3ffwZGTT2RaO5Tg4W6DlYv6onsnR8qYUhFjARMV8e6+fZ9AK1NXV8eWtUPQzM0Gew77slrsmppwsXJhX4we3kqmdZempjqu/zsDC1aepy3WJVkwsxvWLOkPDY0aMmNzRsakIjImFbnZ+cjJEah0Hhs5uAUSP33B/OXnGI9bWRji3PFJ+MndBgCQkyM9QciTF5GwszEBUOwGzUbJAxS7g/krEXi9Mud0F2dLvLy7GJu238bRf56y6sdD+jfD0rm9GBVjpVFkHpdH187UuLyjh9GTbkmjVi1djP+1rdjq3NurtVLKRKB4/D284zcM6d8cE2cdp4w34ZGfaVb5QPEY+efSAfD2agMdHeZ3TlX9TFV9ybNVA7y4vQjdfvlb/B25+hwM7tec0V1VFsq2SZOjgRbN7WhWYr6PwxnjO3P1OVgwqwcm/tZWIXd2NpT3eAhjoHN7R1qcvvDIz9i08z/G8yeN8cSsiZ3Q0KGO3ParUlYtjYGBDv49NB7tDjpg/dabMuff62dmoEdnJwDFlrjSSE7h4V7KO+QXMCsxFcHAQAc+p6dhzJQjjPKSvY0xbl+cybgpUlHrHVkoK9O8D//E6jygeH2TIieuJBNvw5KQmU13/VXlnFIeslXvbq7458A4/LHmEit5UxbhkZ+x86Av5jIk3SlP+awiqDIWikCxefudO3dw/vx5PH/+HNnZ2WjYsCFGjhyJ4cOH01wDIiMjoaOjA11dXejo6CA/Px88Hg85OTkwNjaGoaEh4uLikJeXBw6HI/7T1taGhoYG8vPzIRAIxH95eXkwMjKCiYkJrW0xMTEQiUTQ19eHvr4+1NXVwefzxfH2LC1lCzkZGRnw8/NDQkICkpOTweFwYGlpiYYNG8LR0ZGy25efn4/Y2Fjo6elBT08P2trayM/PR05ODnJyclC7dm0YGKhu0RobG4uQkBBERERAJBKhfv36cHR0hL39t9269PR0pKSkUJ4hh8OBlpYWhEIh5TkKBAJoaGgwWuilpKQgKysLenp60NfXB4fDQV5eHrKzs8Hn8xld30sjEAhw8+ZNXLp0CQkJCUhISIBQKETjxo3h5uYGR0dHNGvWTOp1qkp/oPDVQrGE+KQMnL8cgCs3QxCfkA6Otiba/dwAv8/sBmuJQM8ZmXxkZvKhr8+Bni4HNWqoISc3H7zsPBQICtGgviny8goQ8zEVWlqa4OhqQFtLE9paGtDS0kBRUREEAiEE+ULk5RdAkCtEQYGQ0UWEz89HfEIGdPW1oK/DgY6OFoTCQvByBcj5IoB5HQOZQndySnH8kZt33+BjfAYSEzMgKBCiYX0zmJsZoIWHHbp6NoaTo4XSE2vIm3i8j/yMmNh06OtpoYG9KdycLClx+GITMyDgF0BLWwMcbQ1oa2hAW1sTGhrqyM//+iwKCiHIy0d+nhCGhrqMcfyiY9NQVFgEfX0O9PU4UFevAX5uPrL5xQtPKwt6LJbSpGXk4PyVANx98A5Jn7PwOZkHjrYm3JzqwqmxBZwaWqCVh51UQTf8w2fUqKEGjk7xb8rR0oS2tgbU1NTE3yM3vwD5uULk5wthZWmk9KJIHh/j0/HmbQIiopJRWFSEBramcHQwh70d/d2Rxbv3SficVrxh8JO7jULtzcsrwHP/4pgpZrW5aNyo7EGtRSIRnvtH48r11wgKSUBcQhriEtJR394MFmYGsLOpjc7tHNHuZwcYGNATK6mSsvbb7GwBLt8IwsWrQXgXngShUISmblaYObkTzR0nP1+I2Lh06NXUgb62JrS0NJCbmw8ePw/87HzY1DOW63JYmgPHH4tjIS2a1R1/LhugkmdSVFSEZ6+icPaSP8I+fManlC/4ksWHnY1JsZtM47pwdjJHczcbxjFFVWOBoqjq3X0flgRtXS1w9bWhq118PIcvAC9HgJpcbdSWY+0QEZmMUxf8EPD6Iz4l85Ca+gXGxjXh7mIJ58Z10ahBHbRuYa+woJqVlYvHLyLwKfkLUtJ40NPhwLyOASzMDeDkYEF7V6Jj06ChoQZ9XW3oaGuiqAjg5+UjO0eAPH4+bG2MIRIVqWQekyQ4JA7nfAJw8+5bpGdko46ZAXp1dcaMCZ1orl0JnzMhLBCBq8eBro4WRKIiZOcUZyPm6GjA0twQ6Rk5SE3NhianuE/paGmC87WdQmHht3YWCJGfWwB1TXWFXdyqypwuEAhx824oLl0PQkJiBhKSMiEUitC4YR00cbZC44bmaOZqrXAsWTbzOBue+kUiP78QWlrqClurJ6XwEBZerFBoUN+UtUW2LPj8fNx58A5Xb4XgQ9RnxMWng5cjgG09E1jUMYBLYwt07tAYLZraQktL9viqqn6mqr5UQsLnTPxz9iXatKqP5m42Coe1UEWbklJ4uPXfG7wMiEbip0zEJmTgSxYfdcwM0MDeDDbWteHY0Bx9urlWyCK8PMbDkv6RkyPAvUdh8H0chriEDCR+ysSnz1moaaCLBrYmsLc1hb2tCfp0c5Wp6JNFWWVVaRQVFSHkTTzCopLx6fMX5PDzYGpiANt6teHqZEmbv0rGX309DnS1taCmVpyYJpufB2G+CLY29NATylJQUAi/oBhERqUgISkDdUxrwaGBKZo4WbGSSytivcOEsjJNwudM8Hn5lPM4HE1oaqqjoKAQAkEB8oRC5OUWID9PCDtbE8Z3OzYxA0JBIXS5WuDqcKChoS5eF+XmFMCyrmG5zinlsS4SiUQ4ezkAvy89J1a6tmhuh2Zu1pB0gCgqUkN6Rg4SP2XibVgSo9Wli5Mlgh/Rk85Koqx8VlkWilVKoUgg/JBIKBQJBALhe2LFOh+s3FA8xn18s462MUIgEAgEAoFAIFQVnvtHYcb8f8Vu7A72ZvA5NRUODeS76AiFIpy97I8R4+mhA758/BtcrvQ8DWXhh3d5JhAIBAKB8H2Rny/E5l3FLlijhrYkykQCgUAgEAgEQpUlNjEDrbqsp5TdvzaXdVgjDY0aGD7IA0nJWTQX+ITEDFYeFNUJ1aQMJhAIBAKBQJDg8o3X4pg2syfJDgRPIBAIBAKBQCBUJrv23ad8XrW4n1Ix0vuJQde2AAAgAElEQVR2daWVaWgwJ4urzhCFIoFAIBAIhHJh47bbAIozbbq7WVdyawgEAoFAIBAIBOlcvBZE+dyhrYNS19HWpcdptaz7/XnqEIUigUAgEAgEleP7JFwce2betK6V2xgCgUAgEAgEAkEGhYWFCI/8TCkzMVQuE3xIaCLlszKJ7qoDRKFIIBAIBAJBpRQVFWH+svMAigNZ9+jsVMktIhAIBAKBQCAQpFOjBl09FiahYGTLs5cRlM/jRrVV6jpVHaJQJBAIBAKBoFJ27PcVWycunNWdUUAjEAgEAoFAIBCqCmpqanCwp2ZyfuEfrfB1PkQkY+ueu+LPLk6WGPGLR5nbVxUhEj6BQCAQCASl8H0SjiVrLiExOUtcdt4nADMWngYA2NsYw2tIi8pqHoFAIBAIBAKBwJphA5tTPv+5+QZC3yZKqU3ny5c89B6+Q5yUEABO7BoNLS0NlbWxKqFWVFRUVNmNIBB+aISJAO9qZbeCQCAQFKb3sB24djsEXH0Ofhv+M/wCP+LFqyjx8TOHJ2Bwv2aV2EICgUAgEAgEAoEdiclZcG+7GskpPHGZvY0x7l2dB2sL2UlV7j8Ow8xFZxASGi8ue3BtHjxbNSi39pZQpM6FWs3h5X4fSYhCkUCobIhCkUAgVEMyM/kwtJst9fjYka1xcPuvFdgiAoFAIBAIBAKhbMQmZqBLvy20BC3zpnbB+F/bwqZebWhpaUAoFCE6JhXhUZ+x+9ADXLsdIq7bq6sLNq0chEYNzSukzUShSCD8qBCFIoFAqIb8e/EVhnnvZzzWo7Mzzh+dBB2d7y+bHYFAIBAIBALh+yYllYcx045SlISlMTXhUqwYS3BxssSWNYPRqV2j8m4ihcpSKH6fjtwEAoFAIBDKFcNaenBsaI63YUniMg93G8yY2AkjB3tATU2tEltHIBAIBAKBQCAoh4kxF1dPT0NsYgb+Pf8K530CEP0xRaxElHSJ7tbJGV07OKJ3N2eoq6tXVrMrHGKhSCBUNkUCQJhS2a0gEAgEpUjPyERODh91LeqQbM4EAoFAIBAIhO8WobAQySmp4PNzYWhogFoGNauGAlFNA9CoU/G3JQpFAoFAIBAIBAKBQCAQCAQCgcAWYkpAIBAIBAKBQCAQCAQCgUAgEFhDFIoEAoFAIBAIBAKBQCAQCAQCgTVEoUggEAgEAoFAIBAIBAKBQCAQWEMUigQCgUAgEAgEAoFAIBAIBAKBNUShSCAQCAQCgUAgEAgEAoFAIBBYQxSKBAKBQCAQCAQCgUAgEAgEAoE1RKFIIBAIBAKBQCAQCAQCgUAgEFjz3SoUhUIhXr9+jfj4+MpuSpWkqKgIHz9+xIMHD3Dv3j1ERUWhqKiosptFIBAIBIJC8Pl8PH36FDk5OZXdlCpBVFQUgoODK7sZBAKBQCAQCNUeoleSjUZlN0BVJCcnIywsDP7+/vD19cW9e/fA4/Ewf/58rF+/vrKbV6V4+vQppk+fjoCAAEp5SEgInJ2dK6lVBAKBQCDIRiQSITY2Fu/fv8fLly9x584dPHr0CABw9epV9OrVq5JbWLHweDyEh4cjJCQEDx48wPXr15GcnIymTZvC39+/sptHIBAIBAKBUK0geiXFqHyFYs59QJSh9Om/TtiGS1dfgpedy3icnxkC8C4off3vjas3/NFn6J/MB3PuALzwim0QgUAgECoGXU9A3Vgll+rbty98fX2ho6MDLS0taGlpQUNDAxoaGtDW1oa6ujq0tLSgqakJTU1N8XGRSAShUAihUIi8vDyIRCLk5+dDIBCIy4VCIfLz85Gfn4/c3FwcPHgQnTt3Rrdu3eDn5ye1TXw+XyXfrTqwc+dOrFu3TupueXZ2dgW3iCCPjx8/4vjx41BTU0OzZs3QvXv3ym4SgVBmSL8m/GiEhoYiMDAQ0dHRiIqKAp/Ph6WlJWxtbdGrVy/Y2tp+l2358OED/vvvPxgZGWHYsGEqu25V4tdff8WlS5fA4/EYj/9IcqYiVL5CUZQJCFOVPv2F33upykQA0OEUlun63xP/nPfDiPEHpB5XE2YCQt0KbBGBQCAQKoyifJVdKjAwEDweT6rQpUoiIyPh6ekpU5kIADo6OuXelqpCeHi4TNcbbW3tCmwNQR4xMTFwdXWlvC/btm3D9OnTK7FVBELZIP2a8CPx8OFDrFu3Djdu3JBaZ/r06ejTpw/27NkDCwuLat+W1NRUnD9/HkeOHMHz588BAD169PhuFYovXryQKdf+SHKmIlT7GIr7/vbCmj/6o0v7xozHdbQ1K7hFVZNrt0PEykTHhub4c2k/HN/jjRULeoOrz6nk1hEIBAKhOlGzZs0Ku5e+vj6MjIxw7tw5LFy4EI6Ojoz1fiQl2uTJk7F9+3Z4eXkxHtfVJZuDVYn9+/fTFilLliyBSCSqpBYRCGWH9GvCj8Lq1avRrl07sQLPw8MDs2fPxubNm2mhVnx8fODu7l5uYUfKuy15eXm4ePEi+vfvDxMTE0yaNEmsTAQAc3Nz1XyRKsi+ffuwdu1adOnShfH4jyRnKkKVVii+e5+E9dtuIStLugViu58dsGROD9y+MAuL5/SgHdfUqnwjzMrGLygavYftAAA42Jvh0fXfsWh2T3gN+QnLF/RBhP9anDk8AfXtTSu5paqFTf8hVH/I71y9uX3/HfYdfUQWIAykpmVj8647CAv/VNlNoWFoaCj+f+vWrXj58iXevXuHqKgoJCQkIC0tDTk5OSgoKIClpSXt/MOHDyMvLw9ZWVlITk5GXFwcPnz4gJCQENy5cwcDBgwQ19XT04OmpiYGDRqE//3vf/D390fHjh1p1+RwfpzNsUaNGmHatGk4fvw4bt26RTtOFIpVi5SUFFoZj8eDQCCohNYQKovbt29j37593818R/p15fP27Vts2LABWVlZldaG1NRUbN68Ge/fv6+0NpQnCxcuxLJly8SfT506hZcvX2Lz5s2YPXs2rl69ipcvX8LOzk5cJzk5GT179kR6enq1aUtAQABmz54NU1NTDBw4EJcvX2asV1r+q06weVfatWuHxYsX4/bt21i8eDHt+I8kZypClVMoikQi+D4Jx8gJB+H48wosXHEBT/2iWJ07zqsNrUxXR0vVTaxWCARCeI0/LP48c1JHGBnqUeqYmnAxuF8zcDjVX/lalv5DqD6Q37l6w+fn4/QFP7TpsQHdBm3FxNknkJ2tOnfc6s6790lYuPICTBrMxdw/zuLo6WeV3SQa+vr6AABXV1fMnDkTHh4eaNSoEWxtbWFhYQEjIyPo6upCQ0MDpqb0zSoDAwNwOBzUrFkTJiYmsLS0RP369eHs7IxOnTph6dKltHuVoK2tjTFjxtCu+aPuHHft2pWmtCVuOVULT09PWlnr1q3J7/QDwOfzcfr0abRp0wbdunXDxIkTv5sYp6RfVw4ikQi+vr4YOXIknJycsGDBAjx9+rTC2/H27VssXLgQJiYmmDt3Lo4ePVrhbShvbt++TUnCcfDgQQwfPpxWz8PDA5cuXaKUJScnY9asWVW+LY8fP4aTkxOaNWuGrVu3iq2OuVwuunXrRqtfkR4qZaUs78q4ceNoZWRsY6bKaZA8e23CkxeRlDJXl7qszjWsRd+R1/4OlGRlYfehBwiP/Cz+3Kq5nYza1Z+y9B9C9YH8ztWXtIwc2LotAi/7mwWDg70Zatb8MZVBkqxcfxUr1vtQytzdrCupNdIpUfI5OzvLrcskfOrp6THU/Eb9+vXF/zNZ2zHtkP/IO8empqaUmIrEQrFqMXLkSERGRuKvv/4Cj8eDh4cHjh07VtnNIpQzaWlpsLW1pbgFOzg4VKsFuSxIv64cPD098eTJE0qZm5tbhbZh5cqVWLFiBaWsadOmFdqG8iY3NxeTJ08Wf/bw8MDYsWOl1ndxccHy5cuxcuVKcdnx48exatUq2NjYVNm2RERE4O3bt+LPdnZ2mDdvHkaNGoXw8HCaF0R1ki/K8q4wyZk/6sa1PKqchaKwsIhWVtesltLX09b+sS0UT517Sflck/t9a9ZV3X8IVRPyO1dftLU0KMpEAHBqXH6Bq6sbhYWFtLKGdlUvHEWJ8s7BwYF13dJoacmem7lcrtiyka2i8EdWKEpChN6qhZqaGpYvX460tDSkp6fTXNII3yfa2tq0GINOTk6V1BrVQ/p15cAkJ5RnAhAmhEIhrYyNPFCd+PfffxEV9c37adq0aXLP8fb2ppXt37+/SrfF3t4eQLF18aVLlxAWFobJkydDX1+fsa9VJ/lC1e9KdfruFUmVUyha1DGgfDY14ZbpelqaP66FYkoqD36BMZQyDS31ymlMBaHq/kOompDfufqip0dX+tTkkgm6BFMTuuWKrm7VU5RpahYnPCsRRGWhoUGfh+UpFAGIk6+oq7Obt4hC8Rtsni+h4tHU1Ky28acIisNkif29WCeWhvTrikUyKQZTWJHyxszMjFYmz/OguiHpwt2+fXu551hZWaFt27aUMkn346rWlp9//hkJCQl4/Pgx+vXrxyizlaY6yVqqfleIbMVMlVMomkkoBrgMi08COz59ogcdFYnoll3fE6T//BiQ37l6Y29jTPn8o8e6LY1xbX1ambauZiW0RDarVq1CUFAQ+vbtK7dujRrKiRqHDx9GUFAQPDw8lDqfQCAQKhtJi73q5C5IqJpIKvMk4wxXBMbGxrSy7ym+XHx8PHx9fSllVlZWrM6VTBr39u1bfPqkfHK98m6Lurq6QlZ7JRvK1YGq8K78CFQ5haJkwhBdPWK5oiwZvB8v6y3pPz8G5Heu3hgZUid0faIQFiP5bABAT6fqPR9ra2u4ubmVq7WNjY0N3NzciABIIBCqLbVr16Z8JuMZoawYGRlRPldGn5JsA/B9KcufPaMmw2vdujXU1NRYnduiRQtaWXh4+HfRFoDZ66SqUhXelR+BKtcjiiQM6Grqq3YhVVRUhNfB8YiOS0VqejbqmBrAwc4UDR3qqOT60TGpeB/xGYmfMsHR0kQdMy7q25nCxqq2/JNVDI+Xp/Jrlsf3S0nlISzyMz7GpiFPIIRRLV2YmdVEM9d6CmeeVkX/EQpFCAmNx+vQBIwe0UqhcwsKChH4Jg4fIj5j5GD6IC6N6Ng0vHgVhbatG9BiAcbEpeHxs0gIhYWob2+Cls3soKEhfy8gL68AASGxiI1LR3aOAMZG+jA3N0ATJyulMnqnpmUjPj4DCZ8z8Sn5C7Q5GqhrYYi6ZrVgbWVUoVnCy2OciI5JxceEdKSk8pCZxYeRoR7srI1hU8+YMeFTZcLn5yM0PAHJydlIS89BYaEI9ayNYGNpDGsrI1b9g4mcHAFeBsYgL0+IHp0Vi/PE4+XhRUA01KCGTu0aKXSunhIuvYWFhXj7Lgn+wXEYNfQnmltsbm4B/IJi8Dn5CzKz+DCspYfG9evA3s4E2tqK765W1LggEtHjvego0V5CcXbVoKAgxMbGgs/nw9LSEs7OziqJNSUSifDmzRtERkYiNTUVtWrVgpmZGVxcXKq16195fK/CwkK8ffsWsbGxSEpKgra2NoyNjdG4cWPUq1dP6bbm5ubi1atXyMzMRJ8+fSjHBAIBnj59ioiICBgaGuLnn3+W+rsXFhYiNDQUAQEBGDVqFGUsKSgoQEBAAGJjY5GZmYk6deqgQYMGaNRIsTGuNNnZ2Xjx4gUKCwvRtWtXVudUdBtLk5WVhXfv3iEuLg6ZmZmoVasWrKys0Lx58yqxsJT1bIqKihAcHIxXr15BW1sbbm5urBJJRUVFISoqSpzoyNjYGNbW1nBxcWG9kJdGWd1C8/LyxL93dnY2jI2NYW5ujiZNmlSqK6Iy/RoAUlNTERcXh8TERHz69Ana2tqoW7cu6tatC2tr60r5TkVFRYiPj0diYiISEhKQlpYGQ0NDWFhYoG7durCyslLa8l4Vv1+RhBDM5VZ82B+RSEQrK6uFYmpqKsLCwpCamoq0tDRwOBzY2trCxsYG5ubmZX73FMHf35/y2cXFhfW5TAlYUlJSvou2ANXLQrG835WioiIEBQUhJiYGqampKp9/o6Oj8f79eyQmJoLD4YivXxbZqTyofElAAlEhdYBSZRKRV0EfMW3+abx4FUU71r6NA9b80R+tf5IfD0oSoVCEE2deYPPuOwgJjWes4+5mjWnjOmD08JZKT0KVRXl8v6KiIly6FoS9Rx7j1r03UustntMDKxf2Za0gUbT/FBYWIuZjOsKjkvHmXSIePQuHz81g8fFO7RvCyoK+CwcUP5eYj6l4H/EJb94l4OHTCNy48+279O7qCgMD+v2zsnLxLiIJwW8S8NI/GrfvvUVcYgYA4MC2X+Ht1RoAEPQ6DmNnHUPg61jK+Ts2DMfUce2lfqeo6FSs/usajpx6ynicq8/BoL7NsGxeL9ja0F0WJL/jjTtvsPPAA5m/EwAMG9gc/Xo2wcDe7tDSKt+hRVXjRFpGDtZvvYkLPgGIjEmVWq99GwfMm9YV3Ts5so7nVh5cvRWMXQcfUPqZJFx9DmZP7owJYz1lJqrJyytAZFQK3kV8QkhoPO4+fC/OnG1vY4yIgLVSz+Xz8xEZlYz3kZ8RGByHO77vxPFa3d2sEXB/iczvIZQQRNnECExMzsLbd4kIDk3A4+cRuOP7Vpzc5WcPOzg0KHZrSMvIwbyl56T2fwDwcLfBqsV90L0T88KyMsaFb/emh6VQRgH6o/Pvv/9ixowZSE5Oph0bPXo0li9frlTWxaysLGzZsgW7d+9mvDYA9OjRAwsWLEC7du0Uvn5lUR7fKzExEdu2bcPhw4elXtPV1RXHjx+Hq6urzGuJRCJERUUhNDQUr1+/xv3798UuYFwuF1++fAEA5OfnY82aNVi9ejXtGiULi6SkJISGhiI4OBiPHz/GnTt3xIkzWrVqhYYNGwIAnj9/jpEjR1IC4ZfQvn17rFmzBq1bt5bZ7tzcXHz48AFhYWEICgrCvXv38Pz5cwDFMUJDQ0MZz6vINjKRkZGBgwcP4p9//kFAQABjHS6XCy8vL6xcuRImJiYK30NZ2D6b06dPY+bMmbS+9/r1a8b+lpubiwMHDuDAgQMIDg6mHQeK429t27YNQ4cOZd1eyaQAylpxRUVFYfXq1Thy5AjjcS6Xi0GDBmHZsmWwtbVV6h5sUbZflyAUCnHjxg3s3LmTlkFWkmHDhqFfv34YOHBguccv+/LlC/755x9s27aNkvVWElNTUwwZMgQDBw5Ehw4dWF1blb+fZJ+qjLicqkrWIRQKsXv3bhw/fhx+fn5S69nZ2WH+/Pnw8vKqkFiNkuOeIglnrK2taWVlUeJVpbYA1ctCsTzflVevXmH69Onisa80ZZl/hUIhTpw4gS1btkidi5o2bYqpU6di9OjRVUKvVGV6RGFhIS5fD8a5K1Qt/OPnH9Cy63rGc04fHMfaMu7k2RfwmnhI6nHfx+Fo030DfP6Zit7dZAu2pbnz4B3m/HGOomizsijexS9REgFA4OtYeE8/ikMnHuPEPu9yt1gMDonD9n2+tPJ+I3cxxivbv3kkXJwtaeXl8f38gqIxe9FZsfJCFn9uvoHA4Dic2ueNWjKsxJTpP7MmdcTwcQdk3l8oZI45eeXGa/QbuUvmuYUMu3cTZ5/AvqOPpJ6Tl1cAANi8+w7mLjnLWMegJvNzyMjkY/3Wm1i/jSqcuThZUn4/XrYAR049xZFTT2UqJzMz+eg4YAtNodmiuR001NUQHBpPydZ7+sIrnL7wCnGh62BpXj4WOqocJy74BGL01MOU78DV56B9m4aoUUMNl6+/Fpf7Pg6H7+NwODY0x+UTU1DfvmIDYKek8jBr8Rla1nYXJ0u4OdVFwOtYvA1LAlD8+67aeA2rNl7Dmj/6Y/Hs7rRd3bWbb+CPNdKDROfn0wXFEhauvID1f0tfAAiF9H5fQk6OAHuPPaL1qU07buG8D33RalRLF9fPTIe180LKeCOJQFD83ty+/w6jJh1EcgpPal0A8AuMQY/B29GtozNOH6COLfcfh6Fj380yz1f1uCBuV1A0/t5zl1YurW8vmtUd/Xq6ybzfj4ZQKMTcuXOxbds2qXWOHDmC69ev48mTJ6hfvz7r6x46dAjz5s2jZG11cHBAUlISpezGjRu4ceMGJkyYgL///rtKZwUsj+/F5/OxdetWLFkie2MBAIKDg+Hm5oYLFy5gwIABjHXCwsJk7vaXtDEmJgaDBg1iVIBZWhbLN1ZWVmKrMyYEguL5YPfu3ZgyZYrUer6+vmjTpg18fHzQu3dvxjrLly/HqlWrpF6DKUtqRbeRqU1r167FihUr5Nbl8XjYvXs3Tpw4gQULFkhVlE2cOFFlrpBsng2fz8fEiRNx4sQJxjqSFipFRUU4d+4c5syZI/PaAJCcnIxhw4bhzZs3WLFihcwNxpycHOzbt4/WHzdt2oQLFy7Q6hsaGuL69eu08oyMDKxbtw4bNmyglLu6ulIWmzweD0eOHMGRI0ewY8cOTJ06VeZ3URZl+3UJmZmZ6NSpE+25tGzZEurq6ggODqaMO6dPn8bp06cRHx+PunXrlq3xMggODkabNm0o9+ZyufDw8EBmZialvcnJydixYweuX7+OyEjZaxlV/n6FhYW4fPkyzp07Ryl//PgxWrVi9pw4ffq0yq2Z/Pz88Pfff9PKpbVh4cKF6NevH608ODgYY8aMofWFtm3bwsrKCnfu3BFvCERFRWHSpEn4/fff8e+//6JHjx4q+CbS+fjxI+WzIpZtTApPaZtq1a0tgPJxsSuS8n5XTp48CS8vL6nHlZl/AeDOnTuYO3cuZWwokV9Kz08BAQHw9vbGoUOHcPLkyUq3WKwSCsULPoFY+udl8YK4NLxsAaNFIQDUYmmVtG7rDSxaxS7DUp/hO/Hu2Qo0amgus15hYSGmzT+NPYcfisuW/d4Lvw37GXa2xVZf8UkZ8LkRjCnzTonrPHkRiW4D/8bz/xaWixvlh4hkLFl7CWcv+zMel2ZhqCcRg668vt+cJWewZfe3BbOVhSFa/WQHDkcT78M/0bJSA8CNO2/w65TDuHKKWThStv+oqXViLC8NR5v5FeHn5ss9V5tDtyrKyOTLPKegoBBT5p3C7kMPpNapZUBfxAW9joNnn41i5Zi9jTH2b/sVLZvZQUdHE/n5QgSExGL+svN49CxCfN60+f9AQ6MGJo72pFwvJ0eA3sN3UBQ/F45NQo/OzmJrKaFQhEvXg7Bq4zVKvzIxKh/XC1WNE8kpPEyb/w/lHZkzpTMm/uaJ+vYm4omSz8/Huq03sHrTNwH/bVgSmnZYg0snp6BjW9WYs8vj7GV/eE8/Kv5tTU24OL7HGy2b2aLm/9s777Coju6Pf5WObKysJdhAUQFBVKJvLFEsBDsmEhONorxJ1GgimihqVBCj2I0lGnuLJmJUVBTra0OJqCCKggqiFGWRIouUZeH+/uC3G+7O3N27yy7F3M/z7KN3mJl7ptx25sw57/0zF/6++wwTvtmNx4kZyrSflh5H7IMU7Nk8CRYW/8xHqQb/qhZqgqS8yVNflrZgUVwsx8btl7Bk5SmWAleBJFNKVQK6upSvrObmqb9uCkvk+HHhEazefF5tPlXOXnoArwlbcPrP75T9U1Cg+drW930h5l4KfloeirBz96lluOa2rlvb31UKCgrg7e2NY8eOacwrkUjQv39/JCYmarR6ycrKgqenJ8t6Yv/+/fD09ETjxo1RVlaGhIQEbNq0Cb/++o9Cedu2bcjPz8f+/ftr5Au4IdoVFxcHd3d31geLu7s7WrVqhaysLERHR1OVNqNHj8atW7eoAXhkMs3X1Z07dzBkyBDODyWFH6U3b8hgdRXJz8/HhAkTsH//fo3nBIDhw4fj4cOH6NSpE/G33NxctWW5fDlVpYyq9X7xxRc4efKkMm3mzJkYN24cunTpotxi/sMPP7AUAFKpFD/99BNnvePHj9ebQlFT30gkEnzzzTdUixEFDRr8Y7lfUFCAwYMHIyIiQpnWtWtXODo6ori4GDExMVR/Y0uXLkWjRo3g5+dH/K24uBgbN27EkiVLWMqpijLS5mnXrl2JtOjoaHz00UfKemxtbbFjxw707NkTFhYWkMlkuHv3LubMmYNr1/5ZrJ4+fTqMjY3xzTffcPaDrug6r4FyJeuwYcNY8+fo0aPw9PRULlDI5XIcP34cQUFBrI9qWhAQfZGQkMBSJtra2uLIkSNwdnZWKo3z8vKwc+dOLF68WJlPk4JTn+N39OhRLFy4kGo5KZVKOed8/fr1tegJ9URHR2PhwoUICwuj/p1LBlWLtpKSEixfvhyLFy9Wpg0aNAjLly9H586dlc/ksrIyHDx4ENOmTVP2oVQqxZAhQ7Bq1Sr88MMP+mgWFdV5ru3CoFgsZl3nlbEKrEmyAKjWnVp8MPS1EhwcjHnz5vHKy/f5W1paiunTp2Pr1q3KtIULF8LHx0cZ2CstLQ0nTpxgLSRGRERg8ODBiIyMrFZ3O3UY1c3lVY30GJraTdRoUaKKyMoMeS/YFgi5uQVoaEs+3BX5Z00bhEHuDrBuaIXE56+x748b+OPobSKv7/he2LFhAue55fIyTJq+BwcO/61MW/rTKCyYRV8t+fPYbYz13c5KGznEBccPcK8s60pA8EkErjyldbkSyRblx6kh21en0T8PxyN7v8GoIS6sG1NBgQwLfj6O9VtIK53nD4LRqgV5sTTt8INO8ycjYQ3uxD7Hnejn2Pn7DaqyNTtpHVUxWlAgQ1RMMu7EvMBvu6+ylDgKKvapgnTJG9yNfo47MS+wZvM5qnJFE9fO/IjePf6xqom8k4TBXuuVdbVs0RAR5+ZQt2Tm5RVh8Ke/EAqK2/+bh24ubZTH38/7Ext+u6Q8vh4+h9MdQEGBDIM/WY+IvxOp16W+0HWcK8rDMAwGev2CS1cfKdNWBn6KH2cM4qwjcOUpBASfJNIf3wpC+3aGtVS8evMJPhq6Wnlsb9cU50P9qNcBAKRl5MTV54EAACAASURBVKJr36VEP02Z1Bdb1oxTHmflvMWtO8m4HfMcqzaEE/NQ3bZlSaYUUdHJuB39nDqH3ft2wsXjM1lpSc9ew66bZmslVb749AP8vs0XCY9fIfpBCq7eeKJW2Q6UK9NnTx8M994dUL+RJRKTMhETm4LQ0zE4f/kRtUzF/iksLKny+4LvjH3Y9XsEkVcT8ZGB2vn/FQ0DjCvvP1BbRowYwVJSAOUvQR9++KHOdYaFhRGrviKRCFKpFA4ODpg2bRp69OiBevXqITY2FitXrqRaru3fv1/tKnNGRgbc3d1ZL6YXLlzAgAHkghTDMPjuu++wadMmVvqGDRswY8YMbZuoFd26dWO1z9fXFzt2cFvgG6pdK1asgL+/PwDAw8MDO3fuJD66IyIiMHbsWEKxOHXqVJbiUoFcLkd0dDRiYmJw7NgxnDlzhrNdXLi7u+PixYuIj49HTEwMrl69ii1btnDmF4lE8PPzw+DBg9GkSRMkJSVh3759+OOPP4i8XH39+vVr/P3337hz5w5Wr15NKJd69eqF69evE+WqUsaKjBo1CqGhocrjY8eOYdSoUUS+vLw8eHl54dKlS8TfVAkKClKrbNQWvn2jjpKSEqWC48aNG8otaWKxGOHh4XB1dWXlT0lJgY+PD9FeW1tbPH36lNgBkJSUBDs77d0nffHFF/j999+Vx5GRkRg8eLBy3tjY2ODmzZtKa5WK5OXlwcPDg/hQvn37Nrp166a1LOrQdV4DwPfff8+yHr9+/TrnlsCKyt6Kbg30DcMwcHJyUt4LbWxscOvWLTRvTjcsSUpKQpcuXSCVSuHt7Y0///yTmk/f49e0aVOtLcv03W8KiyhtefToEcvKfOnSpVi4cKHy2MvLCwcPHuRUlF28eBEDBw4k0g8dOoSxY8dqLQ8fVK/rw4cPY8yYMbzL29nZsVxRjBkzBocPH651skRFReGDDz5gpZ06dQpDhw7lff6qRl/XSm5uLqeSTp/PX7lcjkmTJrGs6n/++WfMnz+fmv/PP/8k5v3IkSNx/Dg/4zlDUCMUiteu34CFuSmaNLaCt882lpWa1zBX/LnzK6JYnTp1iI8yLoWim2sbnPjzWzRrwt43zzAM5gUeI7aIAkBO0jrOLbZrNp/HDwv/MaH1HOiE04fVfyzQrM4e3ghAp47qLSG15clTCTKy8iBuJMKNqCRMmr6H/feoILRuxd7+qdqXhmyfQqHo88WH2L1pImd9qjIA3ErNa5FPKj1/CgpkcO4dSPjRe5u6EZaW6q1X3rwphP0HCwklDpP9m9pysfdT4PLRUurfWrZoiEVzh+GDLq2RkCTBqg3nlO26f20RnBzLP9BycwvQocci1rkjL/ijR1du/ysp6dlo5cReWVEobgBAJpOjSbtZSkWRm2sb3LqofiXm0rV4DBi5DmJrETISVqvNqyv6GOcDh2/hyyk7lcdfT+yD39ZxKxOA8lWjoZ/9SviQdHVphZvhcw0WjKa4WA7n3ktYSqmkmGVoq3L9qqKqhFQQsucbfDqCtIBIePwKHXsuZqX16mGH62fmaJQxKuYZPnAPZqUNHdwZp/6YzkorKJAh8k4SrBtaQVTfAm1d2A/JDcFjMWUS20oWAOrWJVdCN++4jOlzDlHlmfu9B5YuGEW13GMYBms2n8ePi/6ilk19tILwOVlV94UHcWnIKyiCuJEI2/Zdw6qN51h/l2XQt1GbmGi5SvyOKxQB4KuvvsKmTZsIq0OpVIoRI0Yo/e4pcHNzw61bbFcCFRk2bBjLGkOTVURZWRk6derEsmoSi8VITU01qCNzbRWKhmpXRYXikydPOLeUv3nzBvb29sRLf35+vlr/WGVlZRg7dixCQuguQXx9fTF27FjUr18fp06dUm7NpH1Abd68GdOnTyfqcHNzw8mTJ9G0aVNWOsMw8Pf3J7YuAuXbGitavqly7949dOnShZU2aNAgnDt3jqNE1cp47tw5eHh4KI+HDh2KU6e4F6efPn2K9u3bs9JEIhHhH27IkCEG2/LP1TdAuf+qb7/9Fvb29oiIiEBAQAAkEgnx0VhRobh3715MmEA3JigrK8OoUaOI+9i1a9fQu3dvVlpBQQEiIyPRpEkT1K9fn/DVumHDBkyZMoU4R926dZXPu9zcXHTo0IF1fURGRlIjtipITU1Fy5YtWWmqSkp9o828lslkaNKkiVLBpuneCwCXLl3CgAEDIBaLkZFBLtDpg9u3b7Mso+fNm4dly5apLRMYGIiAgAD4+Phg9+7dxN8NMX7Xrl2DhYUFrK2tMWbMGJZluZeXF1WxWf4OrL931Pv370MqlUIsFmPbtm1YtWoV6+9c1uQVnxFPnjxh+QC0t7dHXFycRjmXL19OVbA8ffpUJwW+OgoLCwmr6hMnThDBv9Th6OjIWrDTVeFT3bLQFIqnT582+JbzyqCva4VLoajv5++aNWtY71+enp5U9xcVmTZtGrGoFhcXBwcHB7XlDEWN2IPTp2d7dO/SGm1aNka9euyPABPjujAxMSJ+2mz1OrT9v4QyESifPEvmj4DYmtyi+ew5PUBDckoWoej6emIfjTKMGUWuEO44QF/Bqwzt24nRu0c72LdvCusm5LYDIw19WVXt+2Eat0UYAEyd9BExLhcu0x0k62P+WFqaYuQQ9ksRAJiZaf5gr1/fAsNV/G6KeEQddu7cEnaUoChiaxEuhc7Cf7/sDefOLTFmZDecPjxD6btSVCGgw6LgUJbCwqFDc7XKRABo2aIR+vyH/ZF38MgtZL4uryctPZdlddalM/sFh4bCSsrMxHBeFCo7ztk5bzHtB7ZPpSk+pBJLFSMjI+zb4kOkR997gT+PkRbO+mLtr+dYysSRQ1w0KhMBoO9/2mPudx5E+qz5h6lOtDvYN0NnR/aKuZkZP8fnbl3aKuelAtqWZ0tLU7j36YjOTjZU/5qmpuTYmZgYUbdVjBxK9xm4fLEXgheP5nw21KlTBz9MH8xpGb5jD+nbtKruC06O7+NDNzu0sxNDpLJFX2RlRu0brZWJ/wJsbW2pykSgXNmhamEHlL8sc62r/vXXX8TWLnXWjEC5UmDcuHGsNIlEopNVnaGoinZ5e3ur9U9Zv359LFq0iEjnCgBSUQ4uy4wff/wRO3bswMCBA+Hm5obAwECsWbMGAKgfBTTrO6Dc6kX1QwEov4cEBQVBLCYt02lBUSri4uKi3LakgI+irapkXLqUvbipyeqnXbt2xAetVCrFxx9/jNGjRyt/hvQfytU3ffr0QVhYGD799FM4Oztj6tSpSjcIXFvaxGKx2jbXrVuX6CMAxAIFUB50xd3dHc7OztQtsaampjAxMSF+FZ93ixYtYimjHBwc1CqjgHILuD592O/rBw8erPT2RnVoM6/T0tJY1oyqikgaCqs2QwZjiY+PZx07OjpqLKP4aOeSyxDj16dPH3Tv3h2tW7cmFl1o88nExETvwTM6d+6MDz/8EO3atSOCW4hEIk45FDAMQ/iGnDZtGi85586dS3WJQbsuKwvNqlPbvqT1T22XRUFVRtvWBUNfK/p8/j5//pxYzP366681ykB7D9q5cyclZ9VQIxSKhqRHd1vY2XJHnzM1NYbfNNKMOjkli5p/76GbrGORlRmGDKJHCq1In57tiY/J+w/TNJaragzdvr/2TsGG4LFwdFBvJWNpaYrPvNhKSm23u2oLLVIwXz8RIhH7BUqdDzrWOeuTVrA//zSKCPrRpLEV7kcsxosHy2HTvPyFOC+viAi889UEzcpfAPhkOGmp9jip/OVHks3u59AzMbj/QL2j8mZNRFg8ZxhmfateUVydBKw4wVKUurq0Uvro04TYWgRvitL8Vw3bb3XleWo25geFstL4ji0AfOndk0hLSc/BxaukLygAeE/l2q1nyd+SSnXuGzoisZUFqZTr19sec2YM5lV+5BAXuPclfZlwbYeujvuCgG588cUXaj88HR0dWVZYCrg+uFWdzg8fPhzNmmneYk6znNQU9bQqMWS7vL29sXbtWl4BWT755BMi7fVr+mJuRWj++MRiMdWqaNasWUhJSUFwcDDxN5olZM+ePdVau5iammLWrFlEuqrTfBqq1gl8lG1VISPDMCz/bQB4zYfBg8l77tOnTyk5DQOXJeu2bduIOfLhhx8iIyODiCLr5OSEHTt2YPv27RqVVs7OzkR01aws+rdCZcjLy8PGjRtZaV99Re7AoEG7pmg+IPUJ33mtao0cGhrKGcFUQdOmTbFo0SLMnj27ckKq4dWrV6zj33//HS9fkr66K9K9e3csWrSIuu2zto1fVXL06FGcP8/2da26UMVF3bp1MXnyZCJ9z549yMnhDtqnCzTfp4WF6v2Hq6J6D1LnW7S2yKKgJvqErir0/fzdu3cv61gkEmHIkCEa5ejTpw+hGL5/n+6HvSp452cEH2VYrx7kxJC8piuv9v/BVrh1bN8cpqaatdrGxnXRXGU7XfzjVxy5qw9Dt2/0cFfM+Lo/L1msm7BXklPSsnmV0xd8rAy5qIyl3uhhrtT0+vUt0LJFI6Uy4+z/yA9Uh478tjO+T/HBl/z/VrkNRewHjyRTCue+QQj+JRz5HD4fjYyMEOA/HDOnag50Ux2UlZVhz0H23ObyCcnFF5+Sq8t/305CYpL+V/9PU4JzuHbhp/wEAEeHFnCgBJY69Jf67UUKaIFD+FKZsroy0rOLVi84QQvIrSJPkvj5W6mu+4KAZmg+llRRtQAB6ArFtLQ0QsnSuXNnXnLQfG89e/aMV1lDY+h2tW3bFn5+fnB2dibyqkILssBHoUhj8uTJnBYGNjY2vJ2V83mRp23V1yVqpq6BSvQtIy1IDp8P1hYtyPeNylq+VBY3NzfOiOBisZhQlL733nvw9fXFiBEjeNWv2ubKRkulcfYs6YaJ7zY2mkVkcnJyZUXSCq55rap4lEgkcHFxwYoVK5Cfn08tY2RkhMDAQMycOZP6d32gCNik4MyZM+jQoQOOHz/OGbG6bdu2CAwMpM6b2j5+hkR1q6m9vb1WwXa8vLyo6aquCCoL7X2yoEB9cEBVVBeeVa0Ea6Ms6mT6t6Dv56+qQrFjx468LLKNjY2Jd7JHj+iGEVXBOz8jmok1XzQtxOSedtoOqDdvCglfWg3qW0CSKUVBgYxz25SCeiofoinp+l1RqSzV3b7UlzkIv/gAwb+E47PJ27BqQzjr79L8YuqWzZqIrpZIri6t0Kght/+oityJIVc7SkvLkJtbALm8TL18FCsyRQTqVi3JYC4AMC/wGEStvsOwsZuwecdl3IhK5FQw1jQexKURwUNaNNPugTq4P/2FMJHDPUJloFnLibWMnu3zBeno/BHPRYzK+IU0lE9JdTRprF3ffOhmRygGFfc5QyJYKBoWa2vu3QgKVH1UAaA+22iWM6ampsjKykJxsfr7noUFadWqq6JM31Rnu4qKihAdHY19+/Zh1qxZcHd3r1R9FVH1Y6crtG1MqtAUabq4I9d1O6K+ZaRZwCQmJmo8R1kZ+Z5BCzhRlfTvz2/Bmg+lpaVISEjAX3/9hUWLFmHYsGHEFmdDbCe+c+cOVZbc3FxOBZcC2jWqb+stTXDN69atW1PT/f39IRKJMGzYMGzevBk3btzgVDAaApqyTyqVwsvLC40aNYKPjw/27duH2NhYlJSUaKyvto+foSgtLUV4OPu7jmtOcNG0aVOq774nT55USjZVaEpxbeekqtJPV6vAmiSLgH6fv2/evCG2Qjdo0AASiQQFBQUa3ytUx5G2OFhVvPPmEpaU7XGqNG/GL0z4C8o26POXH6FpB/bed5GVGSwsTJXWKMUlcup23cpYuhiCqm5fYlImzlx8gIi/n+LStQReW5plsjJYWLy7vsNsmnM7dVflKcUybog3O8KyYgwqjlduXgE1urRiq6q5uQnm+Xli+Tq6b6ywc/cRVsGCzs21DbyGuWCERxeNW9mriwSK9ZnYmt91r8DCwgRurm1YwWAA4EWq/rc8xT5IYR2LrMy08hsLAC5O5Ifdw/ia52ahunB2tEHE3+yPZk2KeIGaDe1jTBXaix4Nmr+bgIAABAQEKI8V1lgWFhbKFeU3b95QFTR8ZKsKqrJdJSUlCA8Px/Xr13H16lUigikNTUpNLvi85POBj9UgV/TXqkLfMtKuiRs3bmi0Cqvo5B8o39ZpyMBDfOCzVVsdkZGRuHjxIiIiInD9+nXqnK+ItpZCfKBtG1e1itHmGjWkH0ttMDc3x7x587B8+XLq38PCwli+Xd3c3ODl5YXhw4fDyUnzbjNd6dGjB9zc3Ijt8EC5YnHv3r0sK6KhQ4di+PDhGDFiBPU6e1fHr7JkZGQQ7dPlvu3q6kr47tXkw1ZbaM+1t2/falWHqpW3rtbbNUkWBTXdh6Ih0efzl7YN+vz588R1IRKJWPcKmUxGtXiszh0C77xCkQ98tvQCwNtiftYr0vxiqsJGQcsWDWFna42uzvy3MFYFVdW+/11PwC9bLyL09D3ib3ZtmsC9bye4OrfE9cinOHiE3xbNdwVrLSytCgo1j5dinLjGS2RlhjatrdGurTWcKigDg+YPh1xeSkSbpREVnYyo6GTMDwpFwNzhWDB7iNbKL0PzOotczSsq0rzSrEqbVo0JhWKGAXx7qrpcUHe9cdGcEmxKYeXL1wfgu4xtG2tCofjee+/Gi/u/FT4vuWZm/Bby+CgKFB9H6pQO9vb2sLOzw6BBNcO/bFW0KysrCzt37sSaNWuoL72enp744IMP4OzsTPUZpguq2xYNiSEDROgLbWRs0KAB7O3tWb7aQkJCcPv2bXTv3p1aJicnB5s3b2al/fjjj7oJq0e02T6poLi4GCEhIVi3bh01KJCbmxt69+4NV1dXBAcHE4pUfaOPa1QkEqFt27aws7MzqDJOW4KCgiCXy4nowDSioqIQFRWF+fPnIyAgAAsWLNB7kBGg/Llx9uxZfPrpp7h06ZLG/ArF548//og9e/Zg9OjRrL+/y+NXGWj+RrVVjAH0beGqfjAriz6UeKpWhI0baw6qWNNlUfBvVijyge/zl++ClFQqVfs+ZmNjg3bt2qFrVzI+QlUhKBS1oLiYNFV3dWmFDcGfUfPXrVsHZqZGsDA1hbm5KczrmUDcSFTjlC0KqqJ9gStOImDFKVZayxYNMX/2EAz6qBMrgI6pqfG/TqGozT26sIhUKP66+gt0diQftgBgYmIES1MTmJmZwMzCBA1EFqhfn25dYmRkhJWBn8DFyQa/bL1EKNG4CFhxEpcjEnD+qF+NmudZOeTDN0PyRut6bFqQFqQNOfpQV+TyMqoC8e3bYtSrx9+quRnF8lpkZSYoE/8fVYWyaqRrgX83RUVFRNqUKVM4HcgbGxvDzMwMFhYWMDc3h5WVFRo3blzjXrwN3a5nz56hb9++xNabyZMn4/PPP0evXr1YH0gikUijFRgf/s0+nfTBjz/+SASO8PX1xbFjx4govvn5+fjmm29YyuLjx4+jffv2VSKrOrS93goLC+Hl5UX4vevTpw9mzJgBd3d31sf3uXPnDK5QpPmv/PXXXzl9nZqYmMDCwkJ5ndavX58zmnV1Y2RkhJUrV8LFxQW//PIL1SqQRkBAAC5fvozz588bRKnYsGFDnDlzBsHBwdi+fTuvrYNSqRSffPIJFi5ciCVLlijT3+Xxqwy5ublEmqbgNzRoFtWVVZCpYmpqSjybaPKrQzW/rvfHmiSLgpr2XlNboe3I6Nq1KxE4T0HdunVhZmYGc3NzWFhYwMLCAtbW1ga5J2pL9UtQi2j0HmnmWlxUgt492lWDNPrH0O1bsiqMUCauDvoUM77qz9tKVOAfGjckfWA0E7+n1/k4bkwPjBvTA89eZOHE6RiEhN4hrLpUuXz9MUJC7+DzT9z0JkdlafAeqfRLe6m9QrEhpc/F1pVzbqwKlyI2QyKFbVv+CsWGDUhfnKqBk/7NxMWns46H8QjgJfDvgWbxZm5urjdffdWFIdv14sULQpnYtWtX7Nu3D46OjpWuX8Bw/Pe//8WjR4+wdu1aZVpsbCzs7OwQFBSEDz74AJaWloiLi8PKlSuVWwxFIhH27duHkSNHVpfoOlNUVIRPPvmEpUwUiUT4888/qX7aqgqacqRZs2a1/t5TkXHjxmHcuHFITk5GaGgoQkJCEBERobbM5cuXERISgs8//9wgMpmammLRokVYuHAh7t69i+PHj+PgwYMat9MGBQVh0qRJaNu2LYB/x/jpAs1vny5blWnPMH25vKiIs7Mza05qE8G+qKiIsM7v0KHDOyGLgP6gBYsrKiqqlfcKYUlXC1rakDexhwkvqY6payOGbF/knSQsXn6ClTbPzxOzvx30TigTq8P3WjtbMgBBkgEChABA21aN8f2UAbh+Zg6yk9bh5KFv4Td1AOza0LcXXb6eYBA5dKUVZW7ff6i9P8GcHHLrdNvW+t9qR7OWe5qsnfP33DekKX2H9vxeuuRy/sGPaqPfQbm8DA8T2CvjI4a6GOQ8ArWTNm3aEGn6dvxeHRiyXVOmTGEpE0UiEY4fPy4oE2sJq1evhr+/P5G+cOFCeHh4oE+fPpgyZYpSCTB27Fg8fPgQo0aNqmpR9cLGjRsJX2zVrUwEgHbtyEVhffuIqym0adMG33//Pa5fv47s7GycPHkSfn5+hFWsAtWgOIagTp066NatG4KCgpCYmIjnz59j//798PHx4fRRVtE/7L9p/LShVSvSDZZEIsGbN9ot7tOC1NjZ2eksFxeq0eLj4uJ4l63oPgIo35JKUx7VRlkE9Aftmnj48GGt1Cu9UwpF7WPsqamLElmnQQNLaqCRx08y9HhmA1PG3UuGbN/vh8mty3NmDK50vYZEml/M+6JOe6md+bk+sG1DKhTv3ntR6XpLS0sRcy8FcQ/TqX9v2MASwzycsfZnb8TfCkKA/3AizzMDKTZ1pQ1FoRgVnYxnL7QLqJKazh5nkZUZujiRUWMrS7u25NgeCSUjB6rj1SvyJc1zID8rvJxcclskF48TK39/0CFAaqW4HMFWeA//2Bk9u9E/YFSp6feFfzO6RNrlKqewNqlIVFSUxiidNR1DtSs9PZ1QzsyYMYMaVdsQ6DL2us4XQ9dlqHo11VWnTh0sX74cSUlJVN+YNjY28PLyQnBwMF68eIFDhw5Va1TnyvbNjh07WMdubm5VokzUJDdNmUbz7VjbKC0tRXR0NB48eED9e8OGDTFs2DCsXbsWCQkJCAwMJPI8e/ZM73K9efMG0dHR1AAJQPlH//jx47F79248e/aM6ve1Ytl3dfwqC9e25FOnTlHTuUhPJ79NBgwYoJNM6nB1dWUdJyUl8d5qrOoWwcvL652RBfj3bHk29PO3QYMG1EWKhISaZZTDhxqvUNRmLGlWNcUy7QMvAEBpKf2D0aEj6Z8uaM1pnc5haEpKyP6gpVXEUO178IhtDdarhx0aNFAfKUkmq/yHmzbzx8yM9C33Jk+zYuXt22JcuKybT51iFT9uxVq0uU0r0jrw4JFbeBSvvU+SiuTmFcG1/1J4qkSMpmFsXBeL5wzDlEl9WemKiNFVhaZxtm0rpqYfPandS57qNlnvUd0N4pPQlRLQ6I+jt7QKJPPkGRkM4WN3uqWQpQXbgbAkK4/XOe7cS+YtjzqqcjWOYRjMX3KclfZL8FjO/NVxXxDQTEkJeS3IZPwCi6lCU6a1bt2aSJNIJNizZ49O5zA0qr4RuaIlG6pdtC1Y/fv3V1tG1+teX2NPG3ddo0yXlmq26uY7RhWpahkBIDw8HOfPnwdQrmSTSCRgGAYpKSk4evQo5s6dW2WKYnVUpm9KSkoIyx0+ykRd+74imuY9zYr44MGDBvfdqCt853Vubi66du3Kq5+NjY2xaNEiTJkyhZVuiIjHV65cQdeuXbFs2TKNeRs3bowjR44QSsOKclXH+BlqQUPf9OvXj0g7dOiQVnXQLO4MEbhm4MCBRNr169d5lY2NjWUdq0b5rs2y6JO4uDikpWm/W6wyaHOtVMXzl7aDY+nSpTqdozqp8QrFZC0siGSUwSou1k2hKONQvE0c25NIO3jkFmLupeh0HkNSQlOwaugPQ7UvXcVfnaoCQ5WXmVIErDhZqXMC2s0fC3NSpsjbmldDV28+r1MUXoDcEkkLjMNF3/+0g5gSyXfBslCdZFGgCPZSXMJflgEfdWId0yzsDImmcbayMsM0335E+t4/IsnMHMTeTyG2yf7wrWEit0784j9EmjS/GBeuPOJdx/7Df7OOx3v3QFuOLeqWluy5H33vBTWQTUXk8jLMCzyuNg9fVC0/tYVh+CsmQk/fYwUZWh30Kdq24nboXR33hYpI84shlfKzGH38JAPf+R/CZ5O3IST0DgoLdXv+6RvaB3Rllcg0pZKuL3q0l8Z69ephzJgxRPqCBQt4R+arSlTbwNUXhmoXLZozLTplRYKDg3UKyKKvsdfnHOKj0OQ7RhWpShnLysowZ84cTJs2DQDg4OCAixcvwtq6ap/nfKlM37x+Te6i0KSsunLlCkJCQvgJpwZNAT/69u0LsZhcBP3pp58qfW5DwHdeKxSP2ij/VS3PaNuJK4siiIo215WqUqaiErE6xi85OdlgdfNFUyRaAMp7S0XCwsKo1yMNmUyGnTt3stICAgIMYjHXoUMHwgL79Gl+BjYVlX0ikQgfffQRNV9paSm2b9+Ozz77DAsWLEB8fHy1ycIFTQGnqwJbJpPhypUr8Pf3V0Yw79u3r+aCekSba6Uqnr8TJkwg0g4ePIjo6GidzlNd1DiFookx2xokKjoZr17zs5bJzSJfhjOzSJ9nvOrKpX9MTxz7H6oS5+tZB5CWwf+j+OGjdIOvKGVTFAKvOdqlwFDts27CdsYbeTuJ01ryaaIEHqPXQ5JJPpg0+XarzPxp3Ihs95Zdl9WWCV5/BgHBuik+GYbBS5U+faVF5GFzcxMs/GEokX7sVDR2/X6Ddz3ZOW9ZY1tUUH4DlWRKefuAkOOnwwAAG2JJREFUk2Sy+3jIYHo0O32hyzhPmdiHSLsfl4pjp/jdtHf/cZN1/NWEPujYoTmvstrSqkVDjBnZjUhfFHxSo5UxAKRL3hDtWvzjMM78TRqRzrL3qrS3IgUFMnhP3obzl/krONVx4fIj3tYzNL798SCOnNBsbXruf48wYeou5bGrSyt897W72jJVfV+oW5d8Mb56U7OPu2fJr9GhxyJs3HYZh4/fgfekbfhk4tYa4Yvl7VvyuVNZS5/s7GwiLStLOxcGCmg+mQBg3rx5RJpEIsHMmTOp0ZJpyGQyg29fYRiGiJb56tUrzvyGaBfNJxPXC3FZWRlWrVqFBQsWUOvVhL7GnlYP3w9bVbjmkAJtx0hBVcq4YsUKrFq1Snnct29fTp9xNYHK9A0tiq66iMPnzp3D8OGkexddLGMvXLig9nlnbm6OhQsXEunHjh3Drl27KCXoZGdnU7eH6hNt5rVCcSeRSHi7WFBdqDCEdVVFufiSkcF29VJRSVMV42diwt4FFBUVRchkaOrWJVUIV69eVVtm5MiRVGXrzz//zOucYWFhLKWlvb09VSGjL+bMmcM63rJli8Z7zMOHD3Ht2jXlcVBQEOfi2qxZs/D111/j8OHDWLZsGTp16sQqW5WycEG7x9EUbXzo3Lkz+vXrhxUrVij9inbv3l2nuvhSmWulKp6/EydOpF4T33zzjVb377i4uGq1VK5xCkVa8ITPJ2/HjahEZL6WIuzcfXz86UacOHOPyBd5l7QauaiFRU9FIm7RLVAsLU0xbyZprh8VnYxObotwMjyWUqqCjHeS0H/EGjj2CkT4RcNuX7geSW5BunpD/YepodrX3o4dDEKaX4y5AX8RH7shoXfQ3m0h7sfRV3BfZahXGlVm/vTt3Z5IOxkeiy+n7CIshG7HPMfHn27EvCV0Cy0+ypEnTyWEBdO1m0/x9i3/D+3J43pR/V76ztiLzyZvQ04ut8VJfn4xfl57Bo3tZsHriy3KdGn+P209GU72kyo5uQX4Zesl5XGP7rZw72PYCGK6jHNnJxv4fPEhUW7itN1Ieqb+AXE75jnWb7moPHbo0Bxrl5JWPvqEpgCMvvcCCzVYoJaWlmLuor9Yafu3+qKdHX3bNwAM7NeJSJu9IASrN51jXaNlZWU4cuIuXD9ayqmI1aT0Nzaui5Yt2MqHqOhkzJwfggdxaUiXvMH2fdcwYNR6PHnK7wVfml+MMT6/YdzXO6kLH8XFcvyy9SI8PlmvvOYmj+uFKydmw8RE/Zb1qr4vtLYhrSUnz9iLsHP38ep1Hm7HPMeEqbsRuILtd2jfn6S17ZkLD/DwUeVcIFSWsrIyvHhB+natrEUFbbsP14u4Jm7fvk1Nd3V1pSoRtm/fjh49euDRI+73i9LSUvzxxx/o1KkTOnbsqFGZUxkeP35MWIZcu3aNqsgFDNMu2ja/+fPnEwFfMjMzMWrUKMyZM4f6Eq3JegvQ39j//fffRNqFCxe0rgcAbtxQv4in7RgpqEoZVX0Kbt26FZs2bUJUVBRevnyJrKwsvHz5EikpKUhMTER8fDzu37+P6OhoREdH48mTJzq7HdCFyvSNpaUlMf+OHTuGv/5iPztlMhkWLVoEDw8PqvUVl989BcbGxoRlUVRUFGbOnIn79+/j5cuX2L59OwYMGMC6ViZPnkxV5vr6+uKzzz5Tez/Jz8/HsmXL0LhxY4MHzNFmXufl/fP+fvKk5gW3nJwc/PLLL8rjnj17wt1d/QKgLiiCgpw5c4bXc+nu3bssS1V/f39iQcXQ40cL5jB27FjcuHEDmZmZCAsLw8cff4wTJ05QSusHmgyTJ09GWFgYMjIycPv2bUyYMIHlC9PU1JS1aKFg/fr1Gn0pZmVlEVaeR48eJRRG+sTX15cYxyVLlnDmZxiGJaNYLMZXX31FzVtQUIANG0jXUhs3bqxyWdRB81uquu2cD1KplFpuxowZWtelDZW5Vqri+WtpaUld5I2KikLHjh013isjIyPRv39/ODk5ITw8XCfZ9AJT3eQdZZjs35S/NT+PYVAeX0Xtb8zIbqxyEWfnMGJrETXv1rXjWHlVfyWSLdRy29aPZ8qythL5i15uZsaO7s4pm+dAJyZg7jAmZM83zP1ri5j71xYx+7f6Mh7uTso8IiszJjtpnVq5dP2Vvt7C7Nw4kSqbyMqMiTg7R215Q7Rv/1Zfal1urm2YjSvGMptWfs70622vTD+8+2tm69pxRH6/qQOY0tdbOGXXdf4ofg4dmnOWsbdryni4OzEtWzRkpW//5Utm+lf9ifzq+jklLpjp1cOOeh7f8b2YwvRNvMf76ukfGJGVGbUusbWImTKpL7N51efMlbAfmMe3gpgrYT8w82Z+zCqzZP5IZX2n/pjOqmP+LE8mI2E19dwJfy9htcOhQ3MmK3GtQea1Psa5MH0T06O7LbWfbp6fSz1X7NWFrL6ya9OESYpZZvA2Mtm/Mcf2T6W2a5pvPyY/ZQP12v9qQh9W3sB5IzSeJyNhtdp+dHVpxQzq14nVDyIrMybygj9jb9eUlbdli4ZM6qMVas83/GNnXuO3edXnRNmcpHUay7Vs0ZAZM7IbM2vaQNZ9RfG388dmajUOVXVfYLJ/Y6IuzefVN2JrEVP0crOyHO1cAJgLx/z+qb8krUof72/fvmVWrVpFlcvBwYG5e/eu1nWWlpYyO3fupNYpEomYiIgIteWvXr1KLXfz5k1q/rS0NMbBwYFzHMaPH8+sXLmSOX36NBMfH89ERUUxa9euZZXp16+f1u3kS2pqKtOrVy/6s8TXlyksLKySdpWUlDC2tuS9FQAze/ZsZseOHczcuXMZkaj8PW3o0KFMZmam8rjiWCQmJlJlruzYVyQiIoIRi8XUurZu3aq2bElJCbXctm3bmLKyMr2NUVXKyDAMMRa6/vz8/DjbpC8q0zcKfH3p76Vjx45lfvvtNyY4OFg5p+3t7ZmYmBjG29ubyH/06FG15xk+fDivftu8eTOr3NWrVznHRCwWM1OmTGE2b97MXLlyhXn8+DFz5coVxt/fn1UmKChI5z7WhLbz+tSpU6w88+fPZzIyMqh1x8fHs+p2cHBgsrKyDNKOuXPnsu4ju3btYgoKCqh5L1y4wJp3X375JSOXy6l5DTl+a9eu5TWnxowZo7d+UiUqKoqXDGKxmCkqKmKV9fPzo+bduXMnU1paSpwrOzub6dq1KyvvmTNnDNa2iqjOW657TFlZGfPzzz+z8l2/fp2z3rS0NGof9OrVq8pl4SIlJYV6jXft2pV59uyZVnXdunWLWo+h0fVaqcrnb1FRETN27FhO2Tw9PZnFixczISEhTGxsLBMbG8vs37+f8fDwYN27srOz9dp32lDjFIq5z9ZzKgYVv86ONkzO/yurPAc6cSpTWDc0axHTo7st8+D6YuIDjkuhqPh5uDsRZeSZvzIzpw7gNUlpshzZ+43elQ9JMcsYV5dWvGRo2aIh06+3PSPP/JVal77bVyLZQigeaD9Xl1bM09tLGSb7NyZowUhO2T3cnahKC23nj+rv9OHvtGrrmZAZDJP9G+M9qhv17yIrM6ZHd1tm/TJvhsn+jQnwH04oHrjKdXa0YQ7t+C+vsY+9ulBju7l+3qO6sfpjx4YJnPmCFoxkdm6cyCxf7MWMGclus71dUyadQ/Go719lxjktfiXj5tqG81rfuXEic/avmcyWNeMYr2GuxN+rQmFa8ffr6i8450jA3GHM0X1TmNDfpzFzv/MgFF+Hd3/N+zzz/Dx5zxm7Nk2U16k6ZXa/3vbMxVA/4lw3z8/VeA7f8b2oCzp8FIpcvxlf92OkL0hFrKafoe8Lqj/PgU5q6xdZmTGxVxeyyhza8V9qXsnjCtdkFSgU09LSGA8PD8bZmZ/SWCwWM7169WKCg4PV1vvs2TPig4LrZ2Njw/Tr14/6oUdTKFaUJSAggCiTnZ3N9OnTh9e5VX9ubm5MbGys3vpXQWBgIGNjY6Px/CKRiHF2dmYOHTpk8HYdOHCAV9k1a9YwpaWlnC/dQPlH1erVqxmG0d/YMwzDeHp68lKcicVipmfPnsz9+/eJOtTJDYDx8PCo1BhVpYwVmTNnjk5zgfbz8fHRMIN1Qx99oyAxMZFXW7788ksmLy+PYRiGcXd3p+ZxdnZmxo8fTz3PzZs3NZ7D19eX+qF57949zo9aTT9vb28mJydHPx1fAV3n9Y4dOzjlXLp0KbNz504mODiYGTOGvWBsb2/PvHz5Uu/tUDB+/Hiq7FOmTGFWr17N7Ny5k1m8eDGhWBkzZgxTUlKitm5DjV9ubq7Gep2dnQ0y/hXx9FT/3igSiZh79+4R5UpKShgfHx9qGXt7e2b9+vXM6dOnmQMHDjC+vr6sttra2hrkmaqOTZs2EXIOHTqUCQkJYSIiIphDhw4R94bQ0FCN9dIW4fz9/atFFgUrVqxgunbtyus+q7jGAwMDNdZLU+ydOnWKt1y6ou21Ul3PX7lczsycOVOne4VYLGaOHDli8L5UhzFqGPXrW+DkH9MxadoeIgACANi1aYJzx75XRgi+HvmEl+N7SaYUkkwpsvPUby+h8TCejEBkZGSEdT97o5tLG2zdfRkRfydqrEdsLUKg/wj4fP4fg0TBfSstQvQ9cmsZjZT0HKSk54Bh6I5s9d0+Y+O6CA/5DsM+30QdVwDwmzoAyxeNhplZ+bTkirStkL1AKgPYO6m1nj+qeA50xPljMzHF7wASk7m3wXZ2tMHeTRPh6tLq/2VlqPmk+cX4+3YSnDqW+9qLe5SOlHTNW9+k+cW4H5eKp88yNeYFyrfz3ro4H6s3nsPeQzd4XRPeo7ph4eyhcHJkR/Zu0awB7No0Idp/+PgdHD5+h6jHoUNz+M/8GN6juivHztBUZpxbiOvjxtm52LD9EmYvYDtYP3vpAc5eekCU6exog6XzR2D4x84Gcf6sjqmTP4J77w7w/X4f6zqU5hcjYAV9i4jf1AH44XsPtBCTfqK4WLpgBJpai7BwWaja+TNyiAt2/DIBTRpbqfXPp7jn+o4nfVf27GaL/Vt9Me2HA9RzeQ1zxda143n3tedAJ+RJCznvU64urbB+mTf6/ofcvsyvfsPeF1TZvvFLfDv7IEJP010OhP/1PTo7sbfRfebVHTGxKVix4SwAQGRlhr2/ToJ1k6r3gXb27FneeSUSCSQSCZydndXmk0qluHuXX1T21NRUpKamau1PRiKRUH3WNGzYEOHh4Vi3bh127dql9P2jDjc3NwQGBuLjjz82yD3jwYMHvLYHS6VSxMbGIjGRvDb03a5x48YhPT2d8PWkwMbGBn/99Rc++OADAHTfmgoiIiKUkVT1OfbXr1/nFQhGMS912aoeFxcHQPcxqkoZK/Lzzz+jXr16WLx4sdb1qbJnzx5MnTpVOdb6Qp99Y2tri/Pnz2P06NGcde7evRs+Pj7KYy7fYbGxsZy+A3v27In9+/dj2rRp1PN4eXlh69at1PuEs7MzoqKisGrVKuzdu5dX2729vfHTTz+hc2fD+LLWdV63aNECtra2xH3m8OHDOHz4MFHewcEB/v7+8Pb2hpkZ6dpHXzg6OkIkErH6ViqVYuvWrdT8Q4cOhZ+fH9zd3TXe2w01fvXr18fJkycxadIkavRoW1tbnDt3Dg0aNNB4vsqwY8cOTJs2DaGhdFc84eHh1Ge7sbExdu/eDW9vb3z99des+fT48WPMnDmTKCMSibBs2TL4+vpq7Qewsnz77bfo3LkzJk2apJy/YWFhCAsLI/K6u7tj1apV6Nq1q8Z6jxw5gv/+97/K59vQoUMxf/78apFFwYMHD3g/bxXXOB8/iKrRvD08PDB0KBkHQN9oe61U1/PXyMgI69atQ7du3bB161ZERERorEcsFiMwMBA+Pj4ag4oZmjqMtm/c+kZ6DJCTSpOSklJExSQjMSkTaS9z0EzcAPbtxeji2JIVkfTxkwzUrVsHZhbGMDc1gZmpCczNjVGnTh3IZHIUy+QolJVAViiHTCZHS5tGRERTAIhPeAlzS1OIrMxh+f9RPd8WFEP6thjviczRuGE9tc14mijBwaNRuHvvOV5JpHj9Og9NmrwH1842cOr0Pjq2b4ZePewMokhUUFRUguTnr2FqagIzy/L+MDc1hqmpMRiGQXFxeX8UyUpQXChHSYmcd1AJfbUvP78YoWdicOxUDB49fgm5vAxdXVri+6kD0LObLSuvTCbHi5Rs1HvPAlbmJjA1NUZhoQzSgiIU5MvQpnUTTgUW3/nDBcMweBCXhrjHL5H5Oh9vC4rQ1Lo+3m/REK3fb4gO9s1Y+aXSImS+zoelyBRW5mYwNTVCUZEc+UXFKJAWw8LKFO83bYAX6TkoLiiBqbkxzMyNYW5sDHNzExgbGynna1FJKYqLZJAVydGwoaXWCoHiYjnCL8bh+OkYpKXnIO1lLuTyMnTq0AxdnFqiU4fm6ObcSq1PPaD8mjh9MQ4P49OR/uoNnqdkobi4BLZtrGHX1hq2bcTo1qUl+vfuUOVKNgWVHWdJZrm/xfCLD/A8NQfp6TkoLpGjQ7umaN60Pnq42WJw305wdGhRbW1UUFZWhsg7z3Di9D3E3E9DSloWUtKy0c6uKVo0rQ/bNo0x8CMHfPShPerX1/1lq6SkFDdvJyH5eRYys6RgGAbNm5bP/fbtxHi/KfsF9dXrPBQVlsDK0gyWFqYwMqqLgkIZ3hYWoyBfBmtrERpyKPBzcgtw994LJCZnIudNAWxbN0H7NmJ0dmoBIyO6b8Pc3AI0tPVjpe3f6ovx3h8gMSkT8U9fISn5NYqK5WhqLYKrkw2hfNMVQ90XuLj/IBXxiRlIfpENq3qmaG8nhoujjdp7QkGBDKlpOWjbpgnpH1I0DDBuUak+4ENqaiqKi4thZmYGU1NT5b8mJiYoKyuDTCaDTCZDcXExZDIZioqK0LJlS1ha0ucJUB4h9NmzZzAzM4O5ubnyX1NT0/9/vhUrf0VFRZDJZOjUifQNWlBQgJSUFFhZWaFevXqwsLCAXC5Hfn4+8vPz0bx5c7VyMAyDmzdvIiQkBAkJCcjIyEBubi7s7OzQuXNnODk5wcnJCd27dzfoPSMlJQVFRUUwMzNT/szNzWFsbKzs24r90ahRI7XRevXZrnv37uHIkSM4e/YssrKy0Lx5cwwdOhTfffcd6tVjv0ulp6dDLpfDysoKlpaWKCsrQ35+PqRSKczNzfH+++/rbewBICEhAUZGRsp6FHWVvzPKlHUo6mvVqhV1Pjx69AiWlpZKuYFyBWl+fj5EIhEaN26s8xhVpYwVKSgowPr161nBcjw9PamRdUtLS5GZmYmUlBRERpL+WwFg9uzZWL16NfVvuqKvvqlIWloajhw5ghMnTiA1NRXm5ubo27cv5syZg5YtW7Ly5uTkIDc3V3n/qFu3rrJPZTIZ2rfnXrTKycnB3bt3kZiYiNzcXLRt2xbt2rWDs7Mz5/OuIsXFxQgPD8fx48eRlpaGtLQ0yOVydOrUCS4uLnBwcEC3bt0MEgm5IpW99zx69AhnzpzBw4cPkZ6ejufPn6OoqAh2dnaws7ODra0tunXrhv79+1fZe5dcLsetW7dw7tw5JCYmIj09HampqTA2NoadnR3atWsHW1tb9O/fH46OjjqdwxDjV1JSgqioKCQmJiItLQ3NmjWDvb09unTponHe65PY2FgkJCQgOTkZVlZWaN++PVxcXHhFiC8oKMCFCxdw6tQpPHnyBC9evEB+fj5sbW3RvHlzODk5YdCgQejRowdMTTW/1xuS0tJSXLt2DSdOnEB8fDwyMjIgl8vh5OSETp064cMPP9TJz+fz589hYWFB9Stc1bKkpaUhPz9f+YxV/Kvo+4rvb4p3uPfff1/tfEtMTCTm9f379+Hk5KS1fLrC91qpruevKk+fPsWhQ4dw584dZGRkQCKRQCwWo0uXLnByckLHjh3Rq1evalckKqixCkUBAQEBAQFV1CkUBTRQRQpFAQGB2sWBAwcwe/ZsZaRbLy8v7N69mxoNWZU3b95g/fr1CAgIYKW7ubnh1q1bhhBXQEBAQKCW8P3337MC0AQFBREBdgRqNzUuyrOAgICAgICAgICAgOEJDQ3Fl19+qVQmurm54ciRI7yUiUD5lrLFixcTkcPj4+P1LquAgICAQO0hOTmZpUzs1asX/P39q1EiAUMgKBQFBAQEBAQEBAQE/oUsWbKEdbx69WrUrav958Ho0aNZx1Xt50xAQEBAoGYRFBSk/L9IJMLvv/8OY+MaF8JDoJIICkUBAQEBAQEBAQGBfxmvXr0iHPD37NlTp7pUFYgdOnTQWS4BAQEBgdpNfHw8du3apTzetm0bWrduXY0SCRgKQaEoICAgIFBrqF6nvwICAgLvDqoRd0Uikc6BD6Kjo1nH/fv311kuAQEBAYHazeLFi5X/9/HxwdixY6tRGgFDIigUBQQEBARqDXJ5KZFWLCupBkkEBAQEajcmJiasY6lUiqysLJ3qunLlCuv4yy+/1FkuAQEBAYHaS2lpKc6cOQMAmDt3LsuPosC7h7CJXUBAQECg1iArJRWKRUWCQlFAQEBAW1q1akWk3blzB4MHD9aqnpCQEERGRiqPp0+fjnbt2lVaPgEBAQGB2oeRkRGSkpJgbGyMBg0aVLc4AgZGsFAUEBAQEKg1ZGfmE2mSzLxqkERAQECgdtO0aVPCZ6Kfnx/y88n7LBexsbHw9vZWHtvb22PZsmV6k1FAQEBAoPbRpEkTQZn4L0FQKAoICAgI1BoiopKItLP/e1QNkggICAjUflSVfw8fPsTkyZPx9u1bteXkcjl27dqF3r17K9NsbW3xv//9DyKRyCCyCggICAgICNQsBIWigICAgECNRy4vw5kLcZiz+Ajxt79vJ2H5utMopWyHFhAQEBDgpn///rh06RIrLSQkBM2bN8fmzZuRmpqKsrIyAEBBQQFiY2Nx4MABuLi4wNfXF1KpFEC5ZeOtW7fQokWLKm+DgICAgICAQPVQh2GY6g2aKT0GyDOrVQQBAQEBgZrLBwOWIyo6mVdeuzZNcGT3FHRxaWlYoWojomGAsfCxLyAgQHL79m1MnDgRDx8+pP5dLBZDIpEQ6Z988gmWL1+O9u3bG1pEAQEBAQEBgRpG9QdlMWoM1BEMJQUEBAQE6MQ/yeCdNzH5NaTFloBJUwNKVEupY1rdEggICNRQunfvjri4OERHR+P333/H+fPn8ezZM6UFYkVlopubGwYNGoQRI0agR48e1SWygICAgICAQDVT/RaKAgICAgICakhMTISpqSksLS1hYWEBc3Nz1K37z0JUUVERCgsLlb/mzZvD0tKyGiUWEBAQeDcoLCxEZmYmSktL0ahRI7z33nuoU6dOdYslICAgICAgUAP4Pw7iA2tIFqa3AAAAAElFTkSuQmCC;" vertex="1" parent="1">
          <mxGeometry x="540" y="80" width="325" height="60" as="geometry" />
        </mxCell>
        <mxCell id="4lkgSBnJgcppSlId6tgm-20" style="edgeStyle=orthogonalEdgeStyle;rounded=0;orthogonalLoop=1;jettySize=auto;html=1;exitX=0.5;exitY=0;exitDx=0;exitDy=0;entryX=0.5;entryY=1;entryDx=0;entryDy=0;" edge="1" parent="1" source="4lkgSBnJgcppSlId6tgm-8" target="4lkgSBnJgcppSlId6tgm-9">
          <mxGeometry relative="1" as="geometry" />
        </mxCell>
        <mxCell id="4lkgSBnJgcppSlId6tgm-8" value="" style="rounded=0;whiteSpace=wrap;html=1;" vertex="1" parent="1">
          <mxGeometry x="150" y="170" width="270" height="60" as="geometry" />
        </mxCell>
        <mxCell id="4lkgSBnJgcppSlId6tgm-9" value="" style="rounded=0;whiteSpace=wrap;html=1;" vertex="1" parent="1">
          <mxGeometry x="150" y="80" width="270" height="60" as="geometry" />
        </mxCell>
        <mxCell id="4lkgSBnJgcppSlId6tgm-13" value="" style="endArrow=classic;html=1;rounded=0;entryX=0.5;entryY=1;entryDx=0;entryDy=0;" edge="1" parent="1" source="4lkgSBnJgcppSlId6tgm-1" target="4lkgSBnJgcppSlId6tgm-2">
          <mxGeometry width="50" height="50" relative="1" as="geometry">
            <mxPoint x="180" y="440" as="sourcePoint" />
            <mxPoint x="230" y="390" as="targetPoint" />
          </mxGeometry>
        </mxCell>
        <mxCell id="4lkgSBnJgcppSlId6tgm-14" value="" style="endArrow=classic;html=1;rounded=0;entryX=0.431;entryY=1.046;entryDx=0;entryDy=0;entryPerimeter=0;" edge="1" parent="1" source="4lkgSBnJgcppSlId6tgm-2">
          <mxGeometry width="50" height="50" relative="1" as="geometry">
            <mxPoint x="189" y="357" as="sourcePoint" />
            <mxPoint x="191" y="330" as="targetPoint" />
          </mxGeometry>
        </mxCell>
        <mxCell id="4lkgSBnJgcppSlId6tgm-16" value="" style="endArrow=classic;html=1;rounded=0;entryX=0.5;entryY=1;entryDx=0;entryDy=0;" edge="1" parent="1" source="4lkgSBnJgcppSlId6tgm-6" target="4lkgSBnJgcppSlId6tgm-5">
          <mxGeometry width="50" height="50" relative="1" as="geometry">
            <mxPoint x="200" y="460" as="sourcePoint" />
            <mxPoint x="202" y="433" as="targetPoint" />
          </mxGeometry>
        </mxCell>
        <mxCell id="4lkgSBnJgcppSlId6tgm-17" value="" style="endArrow=classic;html=1;rounded=0;entryX=0.5;entryY=1;entryDx=0;entryDy=0;exitX=0.5;exitY=0;exitDx=0;exitDy=0;" edge="1" parent="1" source="4lkgSBnJgcppSlId6tgm-5" target="4lkgSBnJgcppSlId6tgm-4">
          <mxGeometry width="50" height="50" relative="1" as="geometry">
            <mxPoint x="210" y="470" as="sourcePoint" />
            <mxPoint x="212" y="443" as="targetPoint" />
          </mxGeometry>
        </mxCell>
        <mxCell id="4lkgSBnJgcppSlId6tgm-18" style="edgeStyle=orthogonalEdgeStyle;rounded=0;orthogonalLoop=1;jettySize=auto;html=1;exitX=0.5;exitY=0;exitDx=0;exitDy=0;entryX=0.153;entryY=1.011;entryDx=0;entryDy=0;entryPerimeter=0;" edge="1" parent="1" source="4lkgSBnJgcppSlId6tgm-3" target="4lkgSBnJgcppSlId6tgm-8">
          <mxGeometry relative="1" as="geometry" />
        </mxCell>
        <mxCell id="4lkgSBnJgcppSlId6tgm-19" style="edgeStyle=orthogonalEdgeStyle;rounded=0;orthogonalLoop=1;jettySize=auto;html=1;exitX=0.25;exitY=0;exitDx=0;exitDy=0;entryX=0.78;entryY=0.993;entryDx=0;entryDy=0;entryPerimeter=0;" edge="1" parent="1" source="4lkgSBnJgcppSlId6tgm-4" target="4lkgSBnJgcppSlId6tgm-8">
          <mxGeometry relative="1" as="geometry" />
        </mxCell>
        <mxCell id="4lkgSBnJgcppSlId6tgm-23" value="" style="endArrow=classic;html=1;rounded=0;" edge="1" parent="1">
          <mxGeometry width="50" height="50" relative="1" as="geometry">
            <mxPoint x="280" y="80" as="sourcePoint" />
            <mxPoint x="280" y="60" as="targetPoint" />
          </mxGeometry>
        </mxCell>
        <mxCell id="4lkgSBnJgcppSlId6tgm-24" value="Action: N+1个值，输出每个action的概率" style="text;html=1;align=center;verticalAlign=middle;whiteSpace=wrap;rounded=0;" vertex="1" parent="1">
          <mxGeometry x="190" y="30" width="230" height="30" as="geometry" />
        </mxCell>
        <mxCell id="4lkgSBnJgcppSlId6tgm-27" value="" style="endArrow=classic;html=1;rounded=0;entryX=0.5;entryY=1;entryDx=0;entryDy=0;" edge="1" parent="1" target="4lkgSBnJgcppSlId6tgm-1">
          <mxGeometry width="50" height="50" relative="1" as="geometry">
            <mxPoint x="190" y="530" as="sourcePoint" />
            <mxPoint x="180" y="530" as="targetPoint" />
          </mxGeometry>
        </mxCell>
        <mxCell id="4lkgSBnJgcppSlId6tgm-28" value="" style="endArrow=classic;html=1;rounded=0;entryX=0.5;entryY=1;entryDx=0;entryDy=0;" edge="1" parent="1">
          <mxGeometry width="50" height="50" relative="1" as="geometry">
            <mxPoint x="389.47" y="530" as="sourcePoint" />
            <mxPoint x="389.47" y="500" as="targetPoint" />
          </mxGeometry>
        </mxCell>
        <mxCell id="4lkgSBnJgcppSlId6tgm-41" style="rounded=0;orthogonalLoop=1;jettySize=auto;html=1;exitX=0.5;exitY=1;exitDx=0;exitDy=0;entryX=0.5;entryY=0;entryDx=0;entryDy=0;" edge="1" parent="1" source="4lkgSBnJgcppSlId6tgm-29" target="4lkgSBnJgcppSlId6tgm-33">
          <mxGeometry relative="1" as="geometry" />
        </mxCell>
        <mxCell id="4lkgSBnJgcppSlId6tgm-29" value="node feature" style="text;html=1;align=center;verticalAlign=middle;whiteSpace=wrap;rounded=0;" vertex="1" parent="1">
          <mxGeometry x="150" y="530" width="60" height="30" as="geometry" />
        </mxCell>
        <mxCell id="4lkgSBnJgcppSlId6tgm-52" style="edgeStyle=orthogonalEdgeStyle;rounded=0;orthogonalLoop=1;jettySize=auto;html=1;exitX=0.5;exitY=1;exitDx=0;exitDy=0;entryX=0.5;entryY=0;entryDx=0;entryDy=0;" edge="1" parent="1" source="4lkgSBnJgcppSlId6tgm-30" target="4lkgSBnJgcppSlId6tgm-48">
          <mxGeometry relative="1" as="geometry" />
        </mxCell>
        <mxCell id="4lkgSBnJgcppSlId6tgm-54" style="edgeStyle=orthogonalEdgeStyle;rounded=0;orthogonalLoop=1;jettySize=auto;html=1;exitX=0.5;exitY=1;exitDx=0;exitDy=0;entryX=0.5;entryY=0;entryDx=0;entryDy=0;" edge="1" parent="1" source="4lkgSBnJgcppSlId6tgm-30" target="4lkgSBnJgcppSlId6tgm-49">
          <mxGeometry relative="1" as="geometry">
            <Array as="points">
              <mxPoint x="390" y="570" />
              <mxPoint x="475" y="570" />
            </Array>
          </mxGeometry>
        </mxCell>
        <mxCell id="4lkgSBnJgcppSlId6tgm-55" style="edgeStyle=orthogonalEdgeStyle;rounded=0;orthogonalLoop=1;jettySize=auto;html=1;exitX=0.5;exitY=1;exitDx=0;exitDy=0;entryX=0.5;entryY=0;entryDx=0;entryDy=0;" edge="1" parent="1" source="4lkgSBnJgcppSlId6tgm-30" target="4lkgSBnJgcppSlId6tgm-50">
          <mxGeometry relative="1" as="geometry">
            <Array as="points">
              <mxPoint x="390" y="570" />
              <mxPoint x="550" y="570" />
            </Array>
          </mxGeometry>
        </mxCell>
        <mxCell id="4lkgSBnJgcppSlId6tgm-56" style="edgeStyle=orthogonalEdgeStyle;rounded=0;orthogonalLoop=1;jettySize=auto;html=1;exitX=0.5;exitY=1;exitDx=0;exitDy=0;entryX=0.5;entryY=0;entryDx=0;entryDy=0;" edge="1" parent="1" source="4lkgSBnJgcppSlId6tgm-30" target="4lkgSBnJgcppSlId6tgm-51">
          <mxGeometry relative="1" as="geometry">
            <Array as="points">
              <mxPoint x="390" y="570" />
              <mxPoint x="610" y="570" />
            </Array>
          </mxGeometry>
        </mxCell>
        <mxCell id="4lkgSBnJgcppSlId6tgm-75" style="edgeStyle=orthogonalEdgeStyle;rounded=0;orthogonalLoop=1;jettySize=auto;html=1;exitX=0.5;exitY=1;exitDx=0;exitDy=0;" edge="1" parent="1" source="4lkgSBnJgcppSlId6tgm-30" target="4lkgSBnJgcppSlId6tgm-73">
          <mxGeometry relative="1" as="geometry">
            <Array as="points">
              <mxPoint x="390" y="570" />
              <mxPoint x="680" y="570" />
            </Array>
          </mxGeometry>
        </mxCell>
        <mxCell id="4lkgSBnJgcppSlId6tgm-76" style="edgeStyle=orthogonalEdgeStyle;rounded=0;orthogonalLoop=1;jettySize=auto;html=1;exitX=0.5;exitY=1;exitDx=0;exitDy=0;entryX=0.5;entryY=0;entryDx=0;entryDy=0;" edge="1" parent="1" source="4lkgSBnJgcppSlId6tgm-30" target="4lkgSBnJgcppSlId6tgm-74">
          <mxGeometry relative="1" as="geometry">
            <Array as="points">
              <mxPoint x="390" y="570" />
              <mxPoint x="755" y="570" />
            </Array>
          </mxGeometry>
        </mxCell>
        <mxCell id="4lkgSBnJgcppSlId6tgm-30" value="task feature" style="text;html=1;align=center;verticalAlign=middle;whiteSpace=wrap;rounded=0;" vertex="1" parent="1">
          <mxGeometry x="360" y="530" width="60" height="30" as="geometry" />
        </mxCell>
        <mxCell id="4lkgSBnJgcppSlId6tgm-31" value="" style="endArrow=classic;html=1;rounded=0;exitX=0.25;exitY=1;exitDx=0;exitDy=0;" edge="1" parent="1" source="4lkgSBnJgcppSlId6tgm-29">
          <mxGeometry width="50" height="50" relative="1" as="geometry">
            <mxPoint x="50" y="670" as="sourcePoint" />
            <mxPoint x="90" y="590" as="targetPoint" />
          </mxGeometry>
        </mxCell>
        <mxCell id="4lkgSBnJgcppSlId6tgm-42" style="edgeStyle=orthogonalEdgeStyle;rounded=0;orthogonalLoop=1;jettySize=auto;html=1;exitX=0.5;exitY=1;exitDx=0;exitDy=0;entryX=0.5;entryY=0;entryDx=0;entryDy=0;" edge="1" parent="1" source="4lkgSBnJgcppSlId6tgm-32" target="4lkgSBnJgcppSlId6tgm-35">
          <mxGeometry relative="1" as="geometry" />
        </mxCell>
        <mxCell id="4lkgSBnJgcppSlId6tgm-43" style="edgeStyle=orthogonalEdgeStyle;rounded=0;orthogonalLoop=1;jettySize=auto;html=1;exitX=0.5;exitY=1;exitDx=0;exitDy=0;entryX=0.5;entryY=0;entryDx=0;entryDy=0;" edge="1" parent="1" source="4lkgSBnJgcppSlId6tgm-32" target="4lkgSBnJgcppSlId6tgm-36">
          <mxGeometry relative="1" as="geometry" />
        </mxCell>
        <mxCell id="4lkgSBnJgcppSlId6tgm-44" style="edgeStyle=orthogonalEdgeStyle;rounded=0;orthogonalLoop=1;jettySize=auto;html=1;exitX=0.5;exitY=1;exitDx=0;exitDy=0;" edge="1" parent="1" source="4lkgSBnJgcppSlId6tgm-32" target="4lkgSBnJgcppSlId6tgm-37">
          <mxGeometry relative="1" as="geometry" />
        </mxCell>
        <mxCell id="4lkgSBnJgcppSlId6tgm-32" value="layer info" style="text;html=1;align=center;verticalAlign=middle;whiteSpace=wrap;rounded=0;" vertex="1" parent="1">
          <mxGeometry x="50" y="590" width="60" height="30" as="geometry" />
        </mxCell>
        <mxCell id="4lkgSBnJgcppSlId6tgm-45" style="edgeStyle=orthogonalEdgeStyle;rounded=0;orthogonalLoop=1;jettySize=auto;html=1;exitX=0.5;exitY=1;exitDx=0;exitDy=0;" edge="1" parent="1" source="4lkgSBnJgcppSlId6tgm-33" target="4lkgSBnJgcppSlId6tgm-38">
          <mxGeometry relative="1" as="geometry" />
        </mxCell>
        <mxCell id="4lkgSBnJgcppSlId6tgm-46" style="edgeStyle=orthogonalEdgeStyle;rounded=0;orthogonalLoop=1;jettySize=auto;html=1;exitX=0.5;exitY=1;exitDx=0;exitDy=0;" edge="1" parent="1" source="4lkgSBnJgcppSlId6tgm-33" target="4lkgSBnJgcppSlId6tgm-39">
          <mxGeometry relative="1" as="geometry" />
        </mxCell>
        <mxCell id="4lkgSBnJgcppSlId6tgm-47" style="edgeStyle=orthogonalEdgeStyle;rounded=0;orthogonalLoop=1;jettySize=auto;html=1;exitX=0.5;exitY=1;exitDx=0;exitDy=0;" edge="1" parent="1" source="4lkgSBnJgcppSlId6tgm-33" target="4lkgSBnJgcppSlId6tgm-40">
          <mxGeometry relative="1" as="geometry" />
        </mxCell>
        <mxCell id="4lkgSBnJgcppSlId6tgm-33" value="resource info" style="text;html=1;align=center;verticalAlign=middle;whiteSpace=wrap;rounded=0;" vertex="1" parent="1">
          <mxGeometry x="240" y="590" width="80" height="30" as="geometry" />
        </mxCell>
        <mxCell id="4lkgSBnJgcppSlId6tgm-35" value="目前含有的Layer信息" style="text;html=1;align=center;verticalAlign=middle;whiteSpace=wrap;rounded=0;" vertex="1" parent="1">
          <mxGeometry x="10" y="700" width="70" height="30" as="geometry" />
        </mxCell>
        <mxCell id="4lkgSBnJgcppSlId6tgm-36" value="layer的remaining download time" style="text;html=1;align=center;verticalAlign=middle;whiteSpace=wrap;rounded=0;" vertex="1" parent="1">
          <mxGeometry x="92.5" y="700" width="80" height="30" as="geometry" />
        </mxCell>
        <mxCell id="4lkgSBnJgcppSlId6tgm-37" value="layer的大小" style="text;html=1;align=center;verticalAlign=middle;whiteSpace=wrap;rounded=0;" vertex="1" parent="1">
          <mxGeometry x="190" y="700" width="70" height="30" as="geometry" />
        </mxCell>
        <mxCell id="4lkgSBnJgcppSlId6tgm-38" value="fn" style="text;html=1;align=center;verticalAlign=middle;whiteSpace=wrap;rounded=0;" vertex="1" parent="1">
          <mxGeometry x="310" y="700" width="70" height="30" as="geometry" />
        </mxCell>
        <mxCell id="4lkgSBnJgcppSlId6tgm-39" value="bn" style="text;html=1;align=center;verticalAlign=middle;whiteSpace=wrap;rounded=0;" vertex="1" parent="1">
          <mxGeometry x="370" y="700" width="70" height="30" as="geometry" />
        </mxCell>
        <mxCell id="4lkgSBnJgcppSlId6tgm-40" value="下载完成时间" style="text;html=1;align=center;verticalAlign=middle;whiteSpace=wrap;rounded=0;" vertex="1" parent="1">
          <mxGeometry x="430" y="700" width="90" height="30" as="geometry" />
        </mxCell>
        <mxCell id="4lkgSBnJgcppSlId6tgm-48" value="需要下载的大小" style="text;html=1;align=center;verticalAlign=middle;whiteSpace=wrap;rounded=0;" vertex="1" parent="1">
          <mxGeometry x="360" y="590" width="60" height="30" as="geometry" />
        </mxCell>
        <mxCell id="4lkgSBnJgcppSlId6tgm-49" value="需要下载的时间" style="text;html=1;align=center;verticalAlign=middle;whiteSpace=wrap;rounded=0;" vertex="1" parent="1">
          <mxGeometry x="445" y="590" width="60" height="30" as="geometry" />
        </mxCell>
        <mxCell id="4lkgSBnJgcppSlId6tgm-50" value="waiting time" style="text;html=1;align=center;verticalAlign=middle;whiteSpace=wrap;rounded=0;" vertex="1" parent="1">
          <mxGeometry x="520" y="590" width="60" height="30" as="geometry" />
        </mxCell>
        <mxCell id="4lkgSBnJgcppSlId6tgm-51" value="computing time" style="text;html=1;align=center;verticalAlign=middle;whiteSpace=wrap;rounded=0;" vertex="1" parent="1">
          <mxGeometry x="580" y="590" width="60" height="30" as="geometry" />
        </mxCell>
        <mxCell id="4lkgSBnJgcppSlId6tgm-59" value="假设有N台机器，有L个layer" style="text;html=1;align=center;verticalAlign=middle;whiteSpace=wrap;rounded=0;" vertex="1" parent="1">
          <mxGeometry x="560" y="285" width="170" height="30" as="geometry" />
        </mxCell>
        <mxCell id="4lkgSBnJgcppSlId6tgm-60" value="&amp;nbsp;N*(5+L)" style="text;html=1;align=center;verticalAlign=middle;whiteSpace=wrap;rounded=0;" vertex="1" parent="1">
          <mxGeometry x="650" y="630" width="60" height="30" as="geometry" />
        </mxCell>
        <mxCell id="4lkgSBnJgcppSlId6tgm-62" value="L" style="text;html=1;align=center;verticalAlign=middle;whiteSpace=wrap;rounded=0;" vertex="1" parent="1">
          <mxGeometry x="10" y="731" width="60" height="30" as="geometry" />
        </mxCell>
        <mxCell id="4lkgSBnJgcppSlId6tgm-63" value="L" style="text;html=1;align=center;verticalAlign=middle;whiteSpace=wrap;rounded=0;" vertex="1" parent="1">
          <mxGeometry x="100" y="730" width="60" height="30" as="geometry" />
        </mxCell>
        <mxCell id="4lkgSBnJgcppSlId6tgm-64" value="L" style="text;html=1;align=center;verticalAlign=middle;whiteSpace=wrap;rounded=0;" vertex="1" parent="1">
          <mxGeometry x="195" y="730" width="60" height="30" as="geometry" />
        </mxCell>
        <mxCell id="4lkgSBnJgcppSlId6tgm-66" value="1" style="text;html=1;align=center;verticalAlign=middle;whiteSpace=wrap;rounded=0;" vertex="1" parent="1">
          <mxGeometry x="315" y="720" width="60" height="30" as="geometry" />
        </mxCell>
        <mxCell id="4lkgSBnJgcppSlId6tgm-68" value="1" style="text;html=1;align=center;verticalAlign=middle;whiteSpace=wrap;rounded=0;" vertex="1" parent="1">
          <mxGeometry x="375" y="720" width="60" height="30" as="geometry" />
        </mxCell>
        <mxCell id="4lkgSBnJgcppSlId6tgm-69" value="1" style="text;html=1;align=center;verticalAlign=middle;whiteSpace=wrap;rounded=0;" vertex="1" parent="1">
          <mxGeometry x="375" y="720" width="60" height="30" as="geometry" />
        </mxCell>
        <mxCell id="4lkgSBnJgcppSlId6tgm-70" value="1" style="text;html=1;align=center;verticalAlign=middle;whiteSpace=wrap;rounded=0;" vertex="1" parent="1">
          <mxGeometry x="445" y="720" width="60" height="30" as="geometry" />
        </mxCell>
        <mxCell id="4lkgSBnJgcppSlId6tgm-72" value="N*（3L+3）" style="text;html=1;align=center;verticalAlign=middle;whiteSpace=wrap;rounded=0;" vertex="1" parent="1">
          <mxGeometry x="210" y="771" width="100" height="30" as="geometry" />
        </mxCell>
        <mxCell id="4lkgSBnJgcppSlId6tgm-73" value="layer info" style="text;html=1;align=center;verticalAlign=middle;whiteSpace=wrap;rounded=0;" vertex="1" parent="1">
          <mxGeometry x="650" y="590" width="60" height="30" as="geometry" />
        </mxCell>
        <mxCell id="4lkgSBnJgcppSlId6tgm-74" value="request cpu resource" style="text;html=1;align=center;verticalAlign=middle;whiteSpace=wrap;rounded=0;" vertex="1" parent="1">
          <mxGeometry x="720" y="590" width="70" height="30" as="geometry" />
        </mxCell>
        <mxCell id="4lkgSBnJgcppSlId6tgm-77" value="" style="endArrow=classic;html=1;rounded=0;" edge="1" parent="1">
          <mxGeometry width="50" height="50" relative="1" as="geometry">
            <mxPoint x="980" y="200" as="sourcePoint" />
            <mxPoint x="1490" y="200" as="targetPoint" />
          </mxGeometry>
        </mxCell>
        <mxCell id="4lkgSBnJgcppSlId6tgm-78" value="" style="whiteSpace=wrap;html=1;aspect=fixed;" vertex="1" parent="1">
          <mxGeometry x="1040" y="315" width="80" height="80" as="geometry" />
        </mxCell>
        <mxCell id="4lkgSBnJgcppSlId6tgm-79" value="" style="whiteSpace=wrap;html=1;aspect=fixed;" vertex="1" parent="1">
          <mxGeometry x="1120" y="470" width="80" height="80" as="geometry" />
        </mxCell>
        <mxCell id="4lkgSBnJgcppSlId6tgm-80" value="" style="whiteSpace=wrap;html=1;aspect=fixed;" vertex="1" parent="1">
          <mxGeometry x="1250" y="350" width="80" height="80" as="geometry" />
        </mxCell>
        <mxCell id="4lkgSBnJgcppSlId6tgm-81" value="" style="ellipse;shape=cloud;whiteSpace=wrap;html=1;" vertex="1" parent="1">
          <mxGeometry x="1390" y="530" width="120" height="80" as="geometry" />
        </mxCell>
        <mxCell id="4lkgSBnJgcppSlId6tgm-83" value="" style="endArrow=none;html=1;rounded=0;entryX=1;entryY=0.5;entryDx=0;entryDy=0;exitX=0.5;exitY=0;exitDx=0;exitDy=0;" edge="1" parent="1" source="4lkgSBnJgcppSlId6tgm-79" target="4lkgSBnJgcppSlId6tgm-78">
          <mxGeometry width="50" height="50" relative="1" as="geometry">
            <mxPoint x="1060" y="480" as="sourcePoint" />
            <mxPoint x="1110" y="430" as="targetPoint" />
          </mxGeometry>
        </mxCell>
        <mxCell id="4lkgSBnJgcppSlId6tgm-84" value="" style="endArrow=none;html=1;rounded=0;exitX=1;exitY=0.5;exitDx=0;exitDy=0;entryX=0;entryY=0.5;entryDx=0;entryDy=0;" edge="1" parent="1" source="4lkgSBnJgcppSlId6tgm-78" target="4lkgSBnJgcppSlId6tgm-80">
          <mxGeometry width="50" height="50" relative="1" as="geometry">
            <mxPoint x="1170" y="330" as="sourcePoint" />
            <mxPoint x="1220" y="280" as="targetPoint" />
          </mxGeometry>
        </mxCell>
        <mxCell id="4lkgSBnJgcppSlId6tgm-85" value="" style="endArrow=none;html=1;rounded=0;entryX=0;entryY=0.5;entryDx=0;entryDy=0;exitX=0.5;exitY=0;exitDx=0;exitDy=0;" edge="1" parent="1" source="4lkgSBnJgcppSlId6tgm-79" target="4lkgSBnJgcppSlId6tgm-80">
          <mxGeometry width="50" height="50" relative="1" as="geometry">
            <mxPoint x="1240" y="570" as="sourcePoint" />
            <mxPoint x="1290" y="520" as="targetPoint" />
          </mxGeometry>
        </mxCell>
        <mxCell id="4lkgSBnJgcppSlId6tgm-87" value="" style="endArrow=none;dashed=1;html=1;dashPattern=1 3;strokeWidth=2;rounded=0;exitX=1;exitY=0.5;exitDx=0;exitDy=0;entryX=0.16;entryY=0.55;entryDx=0;entryDy=0;entryPerimeter=0;" edge="1" parent="1" source="4lkgSBnJgcppSlId6tgm-78" target="4lkgSBnJgcppSlId6tgm-81">
          <mxGeometry width="50" height="50" relative="1" as="geometry">
            <mxPoint x="1180" y="340" as="sourcePoint" />
            <mxPoint x="1230" y="290" as="targetPoint" />
          </mxGeometry>
        </mxCell>
        <mxCell id="4lkgSBnJgcppSlId6tgm-88" value="" style="endArrow=none;dashed=1;html=1;dashPattern=1 3;strokeWidth=2;rounded=0;" edge="1" parent="1" source="4lkgSBnJgcppSlId6tgm-80" target="4lkgSBnJgcppSlId6tgm-81">
          <mxGeometry width="50" height="50" relative="1" as="geometry">
            <mxPoint x="1130" y="365" as="sourcePoint" />
            <mxPoint x="1429" y="304" as="targetPoint" />
          </mxGeometry>
        </mxCell>
        <mxCell id="4lkgSBnJgcppSlId6tgm-89" value="" style="endArrow=none;dashed=1;html=1;dashPattern=1 3;strokeWidth=2;rounded=0;entryX=0.55;entryY=0.95;entryDx=0;entryDy=0;entryPerimeter=0;exitX=0.943;exitY=0.613;exitDx=0;exitDy=0;exitPerimeter=0;" edge="1" parent="1" source="4lkgSBnJgcppSlId6tgm-79" target="4lkgSBnJgcppSlId6tgm-81">
          <mxGeometry width="50" height="50" relative="1" as="geometry">
            <mxPoint x="1350" y="560" as="sourcePoint" />
            <mxPoint x="1400" y="510" as="targetPoint" />
          </mxGeometry>
        </mxCell>
        <mxCell id="4lkgSBnJgcppSlId6tgm-90" value="" style="rounded=0;whiteSpace=wrap;html=1;" vertex="1" parent="1">
          <mxGeometry x="1020" y="560" width="50" height="65" as="geometry" />
        </mxCell>
        <mxCell id="4lkgSBnJgcppSlId6tgm-91" value="layer x" style="rounded=0;whiteSpace=wrap;html=1;" vertex="1" parent="1">
          <mxGeometry x="1020" y="605" width="50" height="20" as="geometry" />
        </mxCell>
        <mxCell id="4lkgSBnJgcppSlId6tgm-92" value="layer y" style="rounded=0;whiteSpace=wrap;html=1;" vertex="1" parent="1">
          <mxGeometry x="1020" y="585" width="50" height="20" as="geometry" />
        </mxCell>
        <mxCell id="4lkgSBnJgcppSlId6tgm-93" value="" style="rounded=0;whiteSpace=wrap;html=1;" vertex="1" parent="1">
          <mxGeometry x="1080" y="560" width="50" height="65" as="geometry" />
        </mxCell>
        <mxCell id="4lkgSBnJgcppSlId6tgm-94" value="task i" style="rounded=0;whiteSpace=wrap;html=1;" vertex="1" parent="1">
          <mxGeometry x="1080" y="605" width="50" height="20" as="geometry" />
        </mxCell>
        <mxCell id="4lkgSBnJgcppSlId6tgm-95" value="task j" style="rounded=0;whiteSpace=wrap;html=1;" vertex="1" parent="1">
          <mxGeometry x="1080" y="585" width="50" height="20" as="geometry" />
        </mxCell>
        <mxCell id="4lkgSBnJgcppSlId6tgm-96" value="t" style="text;html=1;align=center;verticalAlign=middle;whiteSpace=wrap;rounded=0;" vertex="1" parent="1">
          <mxGeometry x="1480" y="200" width="60" height="30" as="geometry" />
        </mxCell>
        <mxCell id="4lkgSBnJgcppSlId6tgm-97" value="" style="endArrow=classic;html=1;rounded=0;" edge="1" parent="1">
          <mxGeometry width="50" height="50" relative="1" as="geometry">
            <mxPoint x="1030" y="170" as="sourcePoint" />
            <mxPoint x="1030" y="200" as="targetPoint" />
          </mxGeometry>
        </mxCell>
        <mxCell id="4lkgSBnJgcppSlId6tgm-98" value="" style="endArrow=classic;html=1;rounded=0;" edge="1" parent="1">
          <mxGeometry width="50" height="50" relative="1" as="geometry">
            <mxPoint x="1081" y="171" as="sourcePoint" />
            <mxPoint x="1081" y="201" as="targetPoint" />
          </mxGeometry>
        </mxCell>
        <mxCell id="4lkgSBnJgcppSlId6tgm-99" value="" style="endArrow=classic;html=1;rounded=0;" edge="1" parent="1">
          <mxGeometry width="50" height="50" relative="1" as="geometry">
            <mxPoint x="1095" y="171" as="sourcePoint" />
            <mxPoint x="1095" y="201" as="targetPoint" />
          </mxGeometry>
        </mxCell>
        <mxCell id="4lkgSBnJgcppSlId6tgm-100" value="" style="endArrow=classic;html=1;rounded=0;" edge="1" parent="1">
          <mxGeometry width="50" height="50" relative="1" as="geometry">
            <mxPoint x="1220" y="170" as="sourcePoint" />
            <mxPoint x="1220" y="200" as="targetPoint" />
          </mxGeometry>
        </mxCell>
        <mxCell id="4lkgSBnJgcppSlId6tgm-101" value="任务到达时刻" style="text;html=1;align=center;verticalAlign=middle;whiteSpace=wrap;rounded=0;" vertex="1" parent="1">
          <mxGeometry x="960" y="140" width="80" height="30" as="geometry" />
        </mxCell>
        <mxCell id="4lkgSBnJgcppSlId6tgm-105" value="" style="endArrow=classic;html=1;rounded=0;exitX=-0.005;exitY=0.406;exitDx=0;exitDy=0;exitPerimeter=0;" edge="1" parent="1" source="4lkgSBnJgcppSlId6tgm-102">
          <mxGeometry width="50" height="50" relative="1" as="geometry">
            <mxPoint x="960" y="300" as="sourcePoint" />
            <mxPoint x="830" y="340" as="targetPoint" />
          </mxGeometry>
        </mxCell>
        <mxCell id="4lkgSBnJgcppSlId6tgm-106" value="" style="endArrow=classic;html=1;rounded=0;" edge="1" parent="1">
          <mxGeometry width="50" height="50" relative="1" as="geometry">
            <mxPoint x="830" y="340" as="sourcePoint" />
            <mxPoint x="1030" y="200" as="targetPoint" />
          </mxGeometry>
        </mxCell>
        <mxCell id="4lkgSBnJgcppSlId6tgm-107" value="" style="endArrow=classic;html=1;rounded=0;entryX=0.283;entryY=-0.006;entryDx=0;entryDy=0;entryPerimeter=0;" edge="1" parent="1" target="4lkgSBnJgcppSlId6tgm-102">
          <mxGeometry width="50" height="50" relative="1" as="geometry">
            <mxPoint x="1080" y="200" as="sourcePoint" />
            <mxPoint x="1130" y="230" as="targetPoint" />
          </mxGeometry>
        </mxCell>
        <mxCell id="4lkgSBnJgcppSlId6tgm-108" value="state" style="text;html=1;align=center;verticalAlign=middle;whiteSpace=wrap;rounded=0;" vertex="1" parent="1">
          <mxGeometry x="880" y="395" width="60" height="30" as="geometry" />
        </mxCell>
        <mxCell id="4lkgSBnJgcppSlId6tgm-109" value="scheduler" style="text;html=1;align=center;verticalAlign=middle;whiteSpace=wrap;rounded=0;" vertex="1" parent="1">
          <mxGeometry x="767" y="330" width="60" height="30" as="geometry" />
        </mxCell>
        <mxCell id="4lkgSBnJgcppSlId6tgm-110" value="action" style="text;html=1;align=center;verticalAlign=middle;whiteSpace=wrap;rounded=0;" vertex="1" parent="1">
          <mxGeometry x="890" y="285" width="60" height="30" as="geometry" />
        </mxCell>
        <mxCell id="4lkgSBnJgcppSlId6tgm-111" value="next_state" style="text;html=1;align=center;verticalAlign=middle;whiteSpace=wrap;rounded=0;" vertex="1" parent="1">
          <mxGeometry x="1090" y="230" width="60" height="30" as="geometry" />
        </mxCell>
        <mxCell id="4lkgSBnJgcppSlId6tgm-112" value="" style="endArrow=classic;startArrow=classic;html=1;rounded=0;strokeColor=#FF0000;" edge="1" parent="1">
          <mxGeometry width="50" height="50" relative="1" as="geometry">
            <mxPoint x="830" y="300" as="sourcePoint" />
            <mxPoint x="970" y="200" as="targetPoint" />
          </mxGeometry>
        </mxCell>
        <mxCell id="4lkgSBnJgcppSlId6tgm-113" value="action是否合法？" style="text;html=1;align=center;verticalAlign=middle;whiteSpace=wrap;rounded=0;" vertex="1" parent="1">
          <mxGeometry x="860" y="230" width="60" height="30" as="geometry" />
        </mxCell>
        <mxCell id="4lkgSBnJgcppSlId6tgm-115" value="" style="endArrow=classic;html=1;rounded=0;" edge="1" parent="1">
          <mxGeometry width="50" height="50" relative="1" as="geometry">
            <mxPoint x="1030" y="210" as="sourcePoint" />
            <mxPoint x="1080" y="210" as="targetPoint" />
          </mxGeometry>
        </mxCell>
        <mxCell id="4lkgSBnJgcppSlId6tgm-116" value="" style="ellipse;whiteSpace=wrap;html=1;aspect=fixed;" vertex="1" parent="1">
          <mxGeometry x="1000" y="95" width="30" height="30" as="geometry" />
        </mxCell>
        <mxCell id="4lkgSBnJgcppSlId6tgm-117" value="" style="ellipse;whiteSpace=wrap;html=1;aspect=fixed;" vertex="1" parent="1">
          <mxGeometry x="1050" y="95" width="30" height="30" as="geometry" />
        </mxCell>
        <mxCell id="4lkgSBnJgcppSlId6tgm-118" value="" style="ellipse;whiteSpace=wrap;html=1;aspect=fixed;" vertex="1" parent="1">
          <mxGeometry x="1100" y="95" width="30" height="30" as="geometry" />
        </mxCell>
        <mxCell id="4lkgSBnJgcppSlId6tgm-119" value="" style="ellipse;whiteSpace=wrap;html=1;aspect=fixed;" vertex="1" parent="1">
          <mxGeometry x="1200" y="95" width="30" height="30" as="geometry" />
        </mxCell>
      </root>
    </mxGraphModel>
  </diagram>
</mxfile>
